SplineFontDB: 2.0
FontName: THMaliGrade6-BoldItalic
FullName: THMaliGrade6-BoldItalic
FamilyName: TH Mali Grade 6
Weight: Bold
Copyright: Copyright (c) 2006 by Department of Intellectual Property (DIP), Ministry of Commerce and Software Industry Promotion Agency (Public Organization) (SIPA). All rights reserved.
Version: 1.1
ItalicAngle: -12
UnderlinePosition: -55
UnderlineWidth: 50
Ascent: 1638
Descent: 410
XUID: [1021 375 425136265 16154816]
FSType: 0
OS2Version: 3
OS2_WeightWidthSlopeOnly: 0
OS2_UseTypoMetrics: 1
CreationTime: 1152588240
ModificationTime: 1204862691
PfmFamily: 17
TTFWeight: 700
TTFWidth: 5
LineGap: 123
VLineGap: 0
Panose: 2 0 5 6 0 0 0 2 0 4
OS2TypoAscent: 0
OS2TypoAOffset: 1
OS2TypoDescent: 0
OS2TypoDOffset: 1
OS2TypoLinegap: 0
OS2WinAscent: -18
OS2WinAOffset: 1
OS2WinDescent: 206
OS2WinDOffset: 1
HheadAscent: -18
HheadAOffset: 1
HheadDescent: 223
HheadDOffset: 1
OS2SubXSize: 1434
OS2SubYSize: 1331
OS2SubXOff: 0
OS2SubYOff: 287
OS2SupXSize: 1434
OS2SupYSize: 1331
OS2SupXOff: 0
OS2SupYOff: 977
OS2StrikeYSize: 49
OS2StrikeYPos: 399
OS2FamilyClass: 773
OS2Vendor: 'IPTH'
Lookup: 4 0 0 "'frac' Diagonal Fractions in Latin lookup 0"  {"'frac' Diagonal Fractions in Latin lookup 0 subtable"  } ['frac' ('latn' <'dflt' > ) ]
Lookup: 6 0 0 "'liga' Standard Ligatures in Latin lookup 1"  {"'liga' Standard Ligatures in Latin lookup 1 subtable"  } ['liga' ('latn' <'dflt' > ) ]
Lookup: 6 0 0 "'liga' Standard Ligatures in Latin lookup 2"  {"'liga' Standard Ligatures in Latin lookup 2 subtable"  } ['liga' ('latn' <'dflt' > ) ]
Lookup: 6 0 0 "'liga' Standard Ligatures in Latin lookup 3"  {"'liga' Standard Ligatures in Latin lookup 3 subtable"  } ['liga' ('latn' <'dflt' > ) ]
Lookup: 6 0 0 "'liga' Standard Ligatures in Latin lookup 4"  {"'liga' Standard Ligatures in Latin lookup 4 subtable"  } ['liga' ('latn' <'dflt' > ) ]

StartChar: .notdef
Encoding: 65536 -1 0
Width: 1811
VWidth: 3622
Flags: W
HStem: 25 147<626.078 964.031 1043.81 1321.65 1321.65 1447> 48 132<352.1 578.862 578.862 814.292 814.292 1046.19> 2360 132<967.166 1883.86 1883.86 1932> 2370 141<835 1069.43>
Fore
1677 2492 m 0x20
 1892 2492 1988 2501 2032 2501 c 0
 2068 2501 2068 2495 2068 2472 c 0
 2068 2447 2057 2408 2048 2363 c 2
 1795 1199 l 1
 1700 792 l 2
 1663 640 1529 116 1502 83 c 1
 1548 97 l 1
 1545 49 1519 25 1468 25 c 0xa0
 1297 33 953 48 610 48 c 0
 433 48 326 43 256 35 c 0
 232 35 214 40 214 68 c 0
 214 111 432 1063 488 1334 c 2
 656 2103 l 2
 734 2438 730 2372 730 2439 c 0
 730 2461 749 2494 782 2504 c 0
 799 2509 825 2511 863 2511 c 0x50
 979 2511 1210 2492 1677 2492 c 0x20
660 177 m 0
 757 174 863 173 969 173 c 0
 1045 172 1121 172 1197 172 c 0
 1273 172 1356 171 1447 168 c 1
 1450 186 1455 210 1462 240 c 2
 1488 352 l 2
 1502 423 1568 713 1578 761 c 2
 1840 1953 l 2
 1865 2060 1923 2336 1932 2360 c 1
 1629 2360 l 2xa0
 1153 2360 914 2368 835 2370 c 1
 829 2339 818 2287 802 2214 c 2
 587 1247 l 2
 576 1192 563 1134 550 1074 c 2
 376 299 l 2
 363 239 353 199 348 180 c 1x50
 498 178 l 2
 549 177 603 177 660 177 c 0
EndSplineSet
EndChar
StartChar: exclam
Encoding: 33 33 4
Width: 560
VWidth: 3622
Flags: MW
HStem: 18 235<220.375 377.187> 1483 20G<568 607>
VStem: 179 241<60.6977 211.208> 287 122<380.757 459.613>
Fore
585 1503 m 0
 629 1503 681 1478 681 1424 c 0
 681 1418 680 1411 679 1404 c 2
 409 361 l 1
 381 311 352 313 332 313 c 0
 302 313 287 329 287 361 c 1
 458 1403 l 2
 480 1487 551 1503 585 1503 c 0
420 162 m 0
 420 90 354 18 279 18 c 0
 199 18 179 76 179 112 c 0
 179 182 240 253 327 253 c 0
 401 253 420 202 420 162 c 0
EndSplineSet
EndChar
StartChar: quotedbl
Encoding: 34 34 5
Width: 785
VWidth: 3622
Flags: MW
VStem: 446 111<1293.27 1374.75> 725 108<1275 1367.88>
Fore
557 1275 m 1
 537 1243 507 1224 483 1224 c 0
 462 1224 446 1238 446 1270 c 1
 515 1682 l 2
 530 1731 579 1744 603 1744 c 0
 633 1744 664 1730 664 1695 c 0
 664 1691 663 1685 662 1680 c 2
 557 1275 l 1
833 1270 m 1
 822 1248 802 1224 772 1224 c 0
 753 1224 728 1235 725 1275 c 1
 794 1682 l 2
 809 1731 859 1744 883 1744 c 0
 914 1744 943 1729 943 1695 c 0
 943 1691 942 1686 941 1680 c 2
 833 1270 l 1
EndSplineSet
EndChar
StartChar: numbersign
Encoding: 35 35 6
Width: 1303
VWidth: 3622
Flags: MW
HStem: 559 122<356.38 501 665 856 1022 1189.55> 923 126<506.656 630 792 994 1160 1297.4>
Fore
900 685 m 1
 994 918 l 1
 750 918 l 1
 736 875 722 836 710 801 c 2
 665 681 l 1
 900 685 l 1
884 1309 m 0
 884 1284 876 1281 792 1045 c 1
 1035 1045 l 1
 1078 1166 1087 1143 1139 1311 c 0
 1146 1328 1165 1335 1187 1335 c 0
 1222 1335 1261 1317 1261 1292 c 0
 1261 1289 l 1
 1160 1042 l 1
 1259 1042 l 1
 1289 1036 1303 1013 1303 988 c 0
 1303 955 1276 918 1228 918 c 2
 1116 918 l 1
 1022 685 l 1
 1157 685 l 1
 1184 681 1196 658 1196 634 c 0
 1196 599 1171 559 1127 559 c 2
 978 559 l 1
 930 432 927 404 886 304 c 1
 869 277 840 264 815 264 c 0
 790 264 769 278 769 304 c 0
 769 310 770 317 773 325 c 2
 856 559 l 1
 624 559 l 1
 532 302 l 2
 516 271 491 255 458 255 c 0
 430 255 405 269 405 294 c 0
 405 303 408 313 416 325 c 1
 501 559 l 1
 400 559 l 2
 364 559 349 581 349 606 c 0
 349 640 378 681 425 681 c 2
 541 681 l 1
 630 923 l 1
 545 923 l 1
 516 930 502 954 502 979 c 0
 502 1013 527 1049 575 1049 c 2
 672 1049 l 1
 761 1288 l 2
 780 1334 811 1350 837 1350 c 0
 854 1350 884 1342 884 1309 c 0
EndSplineSet
EndChar
StartChar: dollar
Encoding: 36 36 7
Width: 1383
VWidth: 3622
Flags: W
HStem: 71 108<514.528 651 803 934.245> 718 115<944.865 1033.18> 738 115<655.77 804.538> 1081 21G<1240 1274.5> 1427 110<790.54 939 1090 1147.77>
VStem: 273 111<294.71 470.615> 464 120<982.465 1232.99> 1088 114<340.844 643.687> 1214 121<1141 1154.96 1154.96 1174.66 1164.81 1342.71>
Fore
792 738 m 1xbf80
 506 769 464 951 464 1057 c 0
 464 1324 714 1508 962 1537 c 1
 991 1668 l 2
 1001 1720 1041 1737 1068 1737 c 0
 1092 1737 1122 1721 1122 1686 c 0
 1122 1681 1121 1675 1120 1668 c 2
 1090 1528 l 1
 1235 1503 1335 1408 1335 1240 c 0
 1335 1209 1331 1176 1325 1141 c 1
 1316 1122 1296 1081 1253 1081 c 0
 1227 1081 1214 1094 1214 1121 c 0
 1214 1133 1218 1146 1218 1183 c 0
 1218 1327 1149 1394 1067 1419 c 1
 943 833 l 1xdf80
 990 822 1202 776 1202 550 c 0
 1202 404 1150 287 1045 184 c 0
 980 123 892 86 780 73 c 1
 750 -69 l 2
 739 -125 690 -138 670 -138 c 0
 652 -138 619 -128 619 -89 c 0
 619 -83 620 -76 621 -69 c 2
 651 71 l 1
 426 84 273 201 273 396 c 0
 273 474 294 485 327 485 c 0
 391 485 384 455 384 439 c 0
 390 277 500 190 674 179 c 1
 792 738 l 1xbf80
939 1427 m 1
 708 1411 584 1222 584 1086 c 0
 584 1032 584 895 817 853 c 1xbf80
 939 1427 l 1
803 182 m 1
 1065 221 1088 427 1088 510 c 0
 1088 635 1013 690 918 718 c 1xdf80
 803 182 l 1
EndSplineSet
EndChar
StartChar: percent
Encoding: 37 37 8
Width: 1742
VWidth: 3622
Flags: W
HStem: 103 118<1152.59 1364.02> 529 124<1191.03 1391.11> 923 119<655.477 870.603> 1350 122<696.494 912.734>
VStem: 503 124<1069.41 1281.62> 939 114<1111.56 1296.45> 999 125<248.817 462.618> 1436 112<294.778 478.285>
Fore
1491 1588 m 0xf9
 1516 1588 1540 1571 1540 1543 c 0
 1540 1522 1528 1503 1518 1489 c 2
 619 35 l 1
 591 8 564 -6 538 -6 c 0
 516 -6 490 2 490 33 c 0
 490 46 497 62 508 81 c 2
 1419 1542 l 2
 1445 1581 1477 1588 1491 1588 c 0xf9
1053 1259 m 0xfd
 1053 1154 968 923 728 923 c 0
 540 923 503 1065 503 1142 c 0
 503 1239 549 1318 617 1383 c 0
 678 1442 754 1472 845 1472 c 0
 990 1472 1053 1373 1053 1259 c 0xfd
759 1042 m 0
 864 1042 939 1145 939 1220 c 0
 939 1258 921 1350 824 1350 c 0
 704 1350 627 1255 627 1166 c 0
 627 1116 654 1042 759 1042 c 0
1548 438 m 0
 1548 329 1488 240 1440 189 c 0
 1382 126 1309 103 1218 103 c 0
 1032 103 999 261 999 325 c 0xfb
 999 446 1110 653 1343 653 c 0
 1487 653 1548 552 1548 438 c 0
1436 397 m 0
 1436 429 1425 463 1419 478 c 0
 1395 526 1342 529 1319 529 c 0
 1202 529 1124 442 1124 346 c 0
 1124 298 1150 221 1254 221 c 0
 1363 221 1436 338 1436 397 c 0
EndSplineSet
EndChar
StartChar: ampersand
Encoding: 38 38 9
Width: 1466
VWidth: 3622
Flags: W
HStem: 25 125<484.71 774.939> 1327 124<671.258 941.236>
VStem: 256 144<233.608 554.932> 439 133<972.914 1227.52> 639 136<480.32 741> 986 132<1039.26 1281.74> 1190 137<494.382 710.608 668.038 753.179>
Fore
400 376 m 0
 400 260 460 150 660 150 c 0
 774 150 872 190 937 244 c 1
 867 295 711 419 639 741 c 1
 500 710 400 519 400 376 c 0
572 1096 m 0
 572 995 628 933 739 918 c 1
 911 931 986 1084 986 1169 c 0
 986 1241 951 1327 811 1327 c 0
 652 1327 572 1196 572 1096 c 0
1190 623 m 0
 1190 676 1184 703 1184 711 c 0
 1184 743 1217 759 1247 759 c 0
 1293 759 1327 743 1327 620 c 0
 1327 591 1324 433 1182 276 c 1
 1229 230 1254 216 1321 184 c 2
 1358 166 l 1
 1374 155 1382 143 1382 128 c 0
 1382 82 1328 49 1300 49 c 0
 1297 49 1298 45 1211 86 c 2
 1157 113 l 1
 1120 139 1083 182 1075 191 c 1
 836 29 675 25 606 25 c 0
 340 25 256 208 256 358 c 0
 256 552 379 758 561 838 c 1
 486 875 439 938 439 1058 c 0
 439 1255 592 1451 862 1451 c 0
 1066 1451 1118 1304 1118 1193 c 0
 1118 1039 1009 845 775 801 c 1
 828 588 899 452 1063 334 c 1
 1135 398 1190 489 1190 623 c 0
EndSplineSet
EndChar
StartChar: quotesingle
Encoding: 39 39 10
Width: 417
VWidth: 3622
Flags: MW
VStem: 364 110<980.305 1125.22>
Fore
474 1019 m 1
 461 989 434 968 407 968 c 0
 390 968 364 979 364 1021 c 1
 435 1429 l 1
 453 1481 501 1495 525 1495 c 0
 549 1495 582 1480 582 1443 c 0
 582 1438 581 1433 580 1427 c 2
 474 1019 l 1
EndSplineSet
EndChar
StartChar: parenleft
Encoding: 40 40 11
Width: 864
VWidth: 3622
Flags: W
VStem: 221 707 221 145<133.762 691.965>
Fore
571 -182 m 0x40
 571 -227 533 -269 489 -269 c 0
 471 -269 454 -263 437 -248 c 1
 278 -42 221 176 221 381 c 0x40
 221 556 270 1086 833 1555 c 1
 846 1562 858 1565 869 1565 c 0
 904 1565 928 1535 928 1498 c 0x80
 928 1471 914 1439 881 1415 c 0
 480 1076 366 685 366 408 c 0
 366 290 388 86 550 -131 c 1
 550 -124 571 -152 571 -182 c 0x40
EndSplineSet
EndChar
StartChar: parenright
Encoding: 41 41 12
Width: 864
VWidth: 3622
Flags: W
VStem: 732 145<579.926 1147.5>
Fore
225 -131 m 1
 631 216 732 599 732 864 c 0
 732 1115 638 1300 552 1415 c 1
 536 1431 529 1450 529 1468 c 0
 529 1517 576 1566 620 1566 c 0
 632 1566 643 1562 654 1555 c 1
 819 1344 877 1118 877 906 c 0
 877 595 752 315 652 160 c 0
 560 15 438 -121 287 -248 c 0
 263 -263 242 -270 224 -270 c 0
 192 -270 172 -248 172 -214 c 0
 172 -160 225 -131 225 -131 c 1
EndSplineSet
EndChar
StartChar: asterisk
Encoding: 42 42 13
Width: 1061
VWidth: 3622
Flags: MW
Fore
1133 1262 m 0
 1167 1262 1173 1229 1173 1214 c 0
 1173 1188 1155 1167 1120 1151 c 2
 876 1026 l 1
 1083 891 l 1
 1092 880 1097 868 1097 856 c 0
 1097 826 1060 784 1027 784 c 0
 1016 784 1006 788 996 796 c 2
 810 920 l 1
 762 697 l 2
 754 650 708 640 688 640 c 0
 659 640 639 653 639 683 c 0
 639 687 639 692 640 697 c 2
 686 927 l 1
 458 808 l 2
 446 803 435 801 426 801 c 0
 394 801 386 835 386 854 c 0
 386 874 396 891 414 904 c 2
 642 1026 l 1
 439 1162 l 2
 424 1174 417 1189 417 1204 c 0
 417 1238 452 1270 487 1270 c 0
 511 1270 516 1261 516 1261 c 1
 727 1123 l 1
 732 1143 735 1158 736 1166 c 2
 750 1233 l 2
 776 1363 775 1443 849 1443 c 0
 890 1443 903 1426 903 1399 c 0
 903 1393 902 1386 900 1378 c 2
 853 1132 l 1
 1084 1249 l 2
 1103 1258 1120 1262 1133 1262 c 0
EndSplineSet
EndChar
StartChar: plus
Encoding: 43 43 14
Width: 1123
VWidth: 3622
Flags: MW
HStem: 687 114<336.142 506 506 529 529 642 782 817.846 817.846 821.405 821.405 950.992>
Fore
641 378 m 0
 606 378 588 388 588 420 c 0
 588 427 589 435 591 444 c 2
 642 686 l 1
 370 695 l 2
 344 699 331 720 331 743 c 0
 331 776 356 814 398 814 c 2
 660 805 l 1
 684 914 l 2
 698 981 714 1022 716 1051 c 1
 731 1083 748 1107 794 1107 c 0
 827 1107 844 1095 844 1072 c 0
 844 1067 843 1062 842 1056 c 2
 816 960 l 2
 790 867 786 835 782 803 c 1
 825 803 825 801 853 801 c 2
 891 801 l 2
 937 801 995 820 1035 820 c 0
 1063 820 1082 811 1082 781 c 0
 1082 724 1048 687 862 687 c 0
 832 687 800 688 764 690 c 1
 732 556 l 2
 699 420 689 378 641 378 c 0
EndSplineSet
EndChar
StartChar: comma
Encoding: 44 44 15
Width: 622
VWidth: 3622
Flags: W
HStem: -186 96<93.152 123.023 108.088 305.273> 28 99<334.139 397.24> 233 96<339.808 439.224>
VStem: 232 101<132.231 209.707> 441 108<134.485 215.755>
Fore
354 28 m 0
 286 28 232 71 232 149 c 0
 232 250 321 329 410 329 c 0
 538 329 549 191 549 187 c 0
 549 39 365 -186 150 -186 c 0
 116 -186 33 -175 33 -132 c 0
 33 -117 51 -90 92 -90 c 1
 113 -94 134 -96 154 -96 c 0
 272 -96 364 -25 398 35 c 1
 386 28 381 28 354 28 c 0
407 233 m 0
 348 233 333 183 333 160 c 0
 333 146 335 127 369 127 c 0
 398 127 441 151 441 182 c 0
 441 199 428 233 407 233 c 0
EndSplineSet
EndChar
StartChar: hyphen
Encoding: 45 45 16
Width: 1050
VWidth: 3622
Flags: MW
HStem: 695 119<312.168 1001.5 1001.5 1043.14>
Fore
373 814 m 2
 994 819 l 1
 999 820 1004 821 1009 821 c 0
 1041 821 1054 795 1054 766 c 0
 1054 750 1050 733 1044 718 c 1
 1030 706 742 709 345 695 c 1
 319 699 307 719 307 742 c 0
 307 776 332 814 373 814 c 2
EndSplineSet
EndChar
StartChar: period
Encoding: 46 46 17
Width: 622
VWidth: 3622
Flags: W
HStem: 13 226<251.831 397.858>
VStem: 210 228<53.9668 195.557>
Fore
356 239 m 0
 396 239 438 201 438 145 c 0
 438 70 360 13 292 13 c 0
 227 13 210 59 210 98 c 0
 210 198 310 239 356 239 c 0
EndSplineSet
EndChar
StartChar: slash
Encoding: 47 47 18
Width: 1068
VWidth: 3622
Flags: W
Fore
1167 1794 m 0
 1191 1794 1216 1776 1216 1746 c 0
 1216 1720 1197 1698 1197 1698 c 1
 290 2 l 1
 253 -38 217 -42 205 -42 c 0
 175 -42 163 -30 163 -12 c 0
 163 14 180 35 180 35 c 1
 1097 1742 l 2
 1120 1787 1153 1794 1167 1794 c 0
EndSplineSet
EndChar
StartChar: zero
Encoding: 48 48 19
Width: 1268
VWidth: 3622
Flags: W
HStem: 25 138<449.682 840.565> 1247 140<699.068 1056.1>
VStem: 175 142<303.234 750.36> 1206 140<592.199 1083.7>
Fore
1346 871 m 0
 1346 438 1046 25 612 25 c 0
 314 25 175 219 175 496 c 0
 175 815 430 1387 909 1387 c 256
 1259 1387 1346 1096 1346 871 c 0
639 163 m 0
 1040 163 1206 534 1206 879 c 0
 1206 1039 1141 1247 883 1247 c 0
 483 1247 317 751 317 489 c 0
 317 281 425 163 639 163 c 0
EndSplineSet
EndChar
StartChar: one
Encoding: 49 49 20
Width: 933
VWidth: 3622
Flags: MW
Fore
773 1162 m 1
 714 1104 l 2
 695 1084 675 1066 654 1049 c 2
 595 998 l 2
 536 947 519 937 492 937 c 0
 460 937 434 958 434 987 c 0
 434 1058 558 1086 740 1306 c 2
 808 1392 l 2
 817 1405 829 1411 842 1411 c 0
 885 1411 939 1350 943 1325 c 1
 692 80 l 2
 683 35 628 21 600 21 c 256
 567 21 541 31 541 61 c 0
 541 66 542 71 543 76 c 2
 649 545 l 1
 773 1162 l 1
EndSplineSet
EndChar
StartChar: two
Encoding: 50 50 21
Width: 1155
VWidth: 3622
Flags: W
HStem: 18 121<310 408.798 408.798 413.273 411.036 762.273 676.753 847.792 847.792 985.088> 1358 121<667.581 1015.59>
VStem: 1098 128<966.256 1275.87>
Fore
863 1479 m 0
 1072 1479 1226 1381 1226 1167 c 0
 1226 1003 1123 725 799 554 c 0
 518 404 350 240 310 134 c 1
 472 142 526 143 580 143 c 0
 694 143 732 141 770 139 c 2
 873 132 l 2
 983 125 1024 134 1024 86 c 0
 1024 49 984 4 953 4 c 0
 865 13 658 18 509 18 c 0
 394 18 278 15 161 11 c 0
 137 11 128 23 128 31 c 0
 128 44 202 345 741 646 c 0
 956 768 1098 975 1098 1132 c 0
 1098 1238 1050 1358 845 1358 c 0
 699 1358 552 1290 481 1051 c 0
 472 1024 448 1010 410 1010 c 256
 380 1010 365 1025 365 1054 c 0
 365 1182 562 1479 863 1479 c 0
EndSplineSet
EndChar
StartChar: three
Encoding: 51 51 22
Width: 1199
VWidth: 3622
Flags: W
HStem: 0 115<439.329 881.591> 692 111<792 967.234> 1318 118<769.729 1119>
VStem: 170 126<246.316 470.768> 460 120<923 1145.31> 1086 119<299.807 580.089> 1198 118<986.73 1242.37>
Fore
491 907 m 0xfa
 467 907 460 925 460 987 c 0
 460 1199 675 1436 976 1436 c 0
 1166 1436 1316 1317 1316 1143 c 0xfa
 1316 1068 1277 851 1067 757 c 1
 1194 695 1205 554 1205 502 c 0
 1205 206 960 0 654 0 c 0
 297 0 170 144 170 360 c 0
 170 407 177 460 189 518 c 0
 200 569 225 594 264 594 c 0
 298 594 313 580 313 551 c 0
 313 531 296 485 296 408 c 0
 296 291 352 115 660 115 c 0
 917 115 1086 257 1086 470 c 0xfc
 1086 648 928 692 794 692 c 0
 763 692 746 707 743 738 c 0
 743 777 757 797 792 803 c 0
 1163 848 1198 1061 1198 1125 c 0
 1198 1229 1117 1318 955 1318 c 0
 789 1318 580 1214 580 975 c 1
 566 927 507 907 491 907 c 0xfa
EndSplineSet
EndChar
StartChar: four
Encoding: 52 52 23
Width: 1155
VWidth: 3622
Flags: W
HStem: 11 21G<775 811> 449 119<410 620.046 620.046 743.138 743.138 839.413>
Fore
1011 1415 m 0
 1011 1396 1000 1381 985 1367 c 1
 985 1366 l 1
 947 1331 909 1296 860 1247 c 258
 554 922 l 2
 411 763 327 665 279 594 c 1
 287 598 353 584 410 580 c 2
 509 573 l 2
 584 570 658 568 731 568 c 2
 810 568 l 2
 832 568 852 569 868 571 c 1
 998 1074 l 2
 1004 1112 1025 1130 1061 1130 c 0
 1108 1130 1116 1103 1116 1085 c 0
 1116 1079 1115 1072 1113 1065 c 2
 996 598 l 1
 1116 614 l 2
 1227 629 1217 630 1225 630 c 0
 1255 630 1275 605 1275 578 c 0
 1275 569 1273 551 1252 531 c 1
 1214 508 1117 505 964 476 c 1
 861 65 l 2
 854 29 831 11 791 11 c 0
 759 11 743 26 743 55 c 0
 743 61 744 67 745 73 c 2
 840 453 l 1
 780 450 712 449 646 449 c 0
 429 449 137 472 137 562 c 0
 137 612 487 1064 906 1445 c 0
 923 1458 939 1464 955 1464 c 0
 987 1464 1011 1445 1011 1415 c 0
EndSplineSet
EndChar
StartChar: five
Encoding: 53 53 24
Width: 1213
VWidth: 3622
Flags: W
HStem: -1 111<406.519 790.661> 863 115<653.971 950.177> 1316 140<646 690.161 690.161 715.402 715.402 1061.86>
VStem: 181 141<190.41 418.861> 1084 119<379.344 735.884>
Fore
769 863 m 0
 696 863 598 855 405 791 c 1
 379 812 l 1
 506 1288 l 2
 554 1452 543 1456 596 1456 c 0
 634 1456 749 1443 976 1443 c 0
 1066 1443 1163 1447 1268 1454 c 0
 1290 1454 1314 1441 1314 1417 c 0
 1314 1398 1298 1351 1251 1339 c 1
 1113 1324 974 1316 824 1316 c 2
 734 1316 l 2
 708 1316 679 1317 646 1320 c 1
 550 960 l 1
 648 975 724 978 799 978 c 0
 1045 978 1203 867 1203 623 c 0
 1203 287 979 -1 556 -1 c 0
 368 -1 181 72 181 282 c 0
 181 340 194 385 204 426 c 0
 208 442 225 531 295 531 c 256
 317 531 350 517 350 483 c 0
 350 458 322 397 322 320 c 0
 322 236 365 110 577 110 c 0
 822 110 1084 275 1084 573 c 0
 1084 692 1020 863 769 863 c 0
EndSplineSet
EndChar
StartChar: six
Encoding: 54 54 25
Width: 1257
VWidth: 3622
Flags: W
HStem: -0 115<447.036 870.457> 738 109<558.802 976.281> 1311 116<760.985 1109.18>
VStem: 195 144<218.629 545.315> 1084 116<366.057 636.296>
Fore
1338 1099 m 0
 1338 1075 1324 1038 1270 1038 c 0
 1225 1038 1213 1079 1213 1079 c 1
 1202 1148 1162 1311 960 1311 c 0
 590 1311 394 910 340 656 c 1
 452 796 614 847 819 847 c 0
 1114 847 1200 650 1200 494 c 0
 1200 451 1189 280 1021 124 c 0
 910 23 761 -0 626 -0 c 0
 281 -0 195 182 195 401 c 0
 195 826 476 1427 957 1427 c 0
 1159 1427 1239 1373 1292 1258 c 0
 1300 1239 1338 1146 1338 1099 c 0
339 373 m 0
 339 240 407 115 638 115 c 0
 908 115 1084 261 1084 481 c 0
 1084 612 1017 738 796 738 c 0
 562 738 339 625 339 373 c 0
EndSplineSet
EndChar
StartChar: seven
Encoding: 55 55 26
Width: 1155
VWidth: 3622
Flags: MW
HStem: 674 121<1069.72 1193.04> 1339 129<536.069 939.763>
VStem: 1038 131<1051.94 1296.59>
Fore
645 640 m 0
 608 640 593 666 593 683 c 0
 593 698 603 751 681 759 c 2
 891 791 l 1
 936 903 1038 1089 1038 1207 c 0
 1038 1252 1022 1283 991 1298 c 0
 940 1325 873 1339 792 1339 c 0
 655 1339 493 1282 400 1282 c 0
 343 1282 333 1311 333 1331 c 0
 333 1404 739 1468 833 1468 c 0
 993 1468 1169 1423 1169 1242 c 0
 1169 1170 1140 1089 1106 1003 c 2
 1017 791 l 1
 1048 791 1064 795 1095 795 c 0
 1173 795 1197 775 1197 738 c 0
 1197 725 1190 685 1128 674 c 2
 941 651 l 1
 865 506 812 400 750 294 c 2
 678 176 l 2
 593 42 547 4 514 4 c 0
 489 4 469 20 469 44 c 0
 469 54 474 66 485 78 c 2
 544 151 l 2
 615 243 710 411 830 662 c 1
 728 653 737 640 645 640 c 0
EndSplineSet
EndChar
StartChar: eight
Encoding: 56 56 27
Width: 1238
VWidth: 3622
Flags: W
HStem: 0 119<419.628 879.397> 805 120<689.73 950.262> 1328 119<753.431 1021.04>
VStem: 140 125<258.161 565.008> 511 123<970.993 1208.27> 1060 123<1087.62 1287.35> 1140 124<357.345 667.114>
Fore
1183 1211 m 0xfc
 1183 1177 1180 1031 1042 891 c 1
 1096 862 1264 757 1264 556 c 0xfa
 1264 294 1048 0 616 0 c 0
 326 0 140 147 140 367 c 0
 140 664 390 815 562 884 c 1
 527 932 511 982 511 1045 c 0
 511 1299 737 1447 922 1447 c 0
 1074 1447 1183 1353 1183 1211 c 0xfc
1140 520 m 0
 1140 690 1002 805 791 805 c 0
 517 805 265 636 265 409 c 0
 265 201 443 119 640 119 c 0
 1011 119 1140 360 1140 520 c 0
1060 1177 m 0xfc
 1060 1239 1028 1328 902 1328 c 0
 757 1328 634 1215 634 1073 c 0
 634 984 704 925 817 925 c 0
 1003 925 1060 1105 1060 1177 c 0xfc
EndSplineSet
EndChar
StartChar: nine
Encoding: 57 57 28
Width: 1216
VWidth: 3622
Flags: W
HStem: 4 111<417.198 786.528> 543 119<552.304 923.778> 1332 118<675.839 1060.59>
VStem: 160 124<238.964 465.68 432.946 497.869> 319 124<764.589 1101.47> 1189 144<809.145 1207.12>
Fore
289 464 m 0
 289 452 284 440 284 403 c 0
 284 272 357 115 610 115 c 0
 941 115 1113 487 1189 766 c 1
 1073 619 902 543 716 543 c 0
 497 543 319 609 319 875 c 0
 319 1186 542 1450 902 1450 c 0
 1188 1450 1333 1286 1333 1012 c 0
 1333 728 1133 4 594 4 c 0
 262 4 160 200 160 356 c 0
 160 472 196 511 249 511 c 0
 279 511 289 485 289 464 c 0
1189 1071 m 0
 1189 1171 1117 1332 877 1332 c 0
 615 1332 443 1146 443 920 c 0
 443 787 512 662 741 662 c 0
 960 662 1189 848 1189 1071 c 0
EndSplineSet
EndChar
StartChar: colon
Encoding: 58 58 29
Width: 622
VWidth: 3622
Flags: W
HStem: 88 108<330.464 427.593> 297 108<334.53 432.681> 621 110<419.703 498.268> 830 109<434.288 521.695>
VStem: 222 107<204.589 293.482> 309 110<741.166 827.2> 433 110<202.171 286.188> 522 111<737.485 818.81>
Fore
309 754 m 0xf5
 309 856 419 939 502 939 c 0
 588 939 633 874 633 812 c 0
 633 717 536 621 435 621 c 0
 355 621 309 682 309 754 c 0xf5
476 830 m 0
 459 830 419 819 419 776 c 0
 419 762 426 731 455 731 c 0
 478 731 522 759 522 789 c 0
 522 805 504 830 476 830 c 0
222 218 m 0xfa
 222 318 328 405 414 405 c 0
 495 405 543 345 543 278 c 0
 543 180 442 88 347 88 c 0
 264 88 222 157 222 218 c 0xfa
387 297 m 0
 365 297 329 260 329 234 c 0
 329 215 343 196 366 196 c 0
 398 196 433 234 433 255 c 0
 433 272 417 297 387 297 c 0
EndSplineSet
EndChar
StartChar: semicolon
Encoding: 59 59 30
Width: 622
VWidth: 3622
Flags: W
HStem: -170 83<191 353.926> 99 97<329.335 413.793> 304 94<331.621 436.092> 662 107<463.271 558.562> 870 108<480.1 563.364>
VStem: 225 104<207.294 299.896> 350 112<778.523 866.641> 437 118<128.15 302.773> 564 108<775.882 858.65>
Fore
203 -170 m 1xfd80
 156 -170 149 -148 149 -134 c 0
 149 -114 163 -98 191 -87 c 0
 330 -54 428 28 448 131 c 1
 424 112 386 99 345 99 c 0
 278 99 225 147 225 218 c 0
 225 305 307 398 416 398 c 0
 472 398 555 357 555 239 c 0
 555 4 372 -144 203 -170 c 1xfd80
350 787 m 0xfe80
 350 891 456 978 545 978 c 0
 623 978 672 919 672 851 c 0
 672 743 565 662 478 662 c 0
 405 662 350 712 350 787 c 0xfe80
389 304 m 0
 360 304 329 274 329 244 c 0
 329 219 344 196 366 196 c 0
 400 196 437 231 437 262 c 0xfd80
 437 284 415 304 389 304 c 0
516 870 m 0
 496 870 462 840 462 815 c 0xfe80
 462 793 475 769 495 769 c 0
 526 769 564 806 564 828 c 0
 564 844 546 870 516 870 c 0
EndSplineSet
EndChar
StartChar: less
Encoding: 60 60 31
Width: 1390
VWidth: 3622
Flags: MW
VStem: 291 130<509.892 580.912>
Fore
1311 957 m 1
 1359 957 1386 945 1386 921 c 0
 1386 899 1362 861 1298 842 c 2
 1136 798 l 2
 1075 781 1012 764 948 744 c 2
 757 688 l 2
 740 683 421 589 421 549 c 0
 421 520 559 464 650 431 c 2
 785 384 l 2
 850 364 1070 305 1166 278 c 2
 1239 258 l 1
 1239 258 1314 243 1314 190 c 0
 1314 177 1305 141 1230 141 c 0
 1184 141 1112 149 1000 181 c 2
 907 207 l 2
 890 211 524 304 344 456 c 0
 307 488 291 514 291 539 c 0
 291 701 1104 906 1138 914 c 2
 1255 944 l 2
 1286 951 1305 956 1311 957 c 1
EndSplineSet
EndChar
StartChar: equal
Encoding: 61 61 32
Width: 1123
VWidth: 3622
Flags: MW
HStem: 532 130<209.771 502.633> 555 130<845.535 1132.47> 792 130<270.244 310 364 1179.01>
Fore
1186 875 m 0
 1186 852 1171 799 1100 799 c 2
 310 792 l 1
 280 798 259 815 259 847 c 0
 259 886 289 922 364 922 c 2
 1134 929 l 2
 1176 929 1186 895 1186 875 c 0
1140 631 m 0
 1140 606 1123 555 1054 555 c 2
 253 532 l 1
 206 541 203 577 203 588 c 0
 203 635 244 662 310 662 c 2
 1088 685 l 2
 1132 685 1140 651 1140 631 c 0
EndSplineSet
EndChar
StartChar: greater
Encoding: 62 62 33
Width: 1390
VWidth: 3622
Flags: MW
VStem: 1211 131<522.445 587.444>
Fore
281 126 m 0
 231 126 223 150 223 166 c 0
 223 184 236 228 290 255 c 0
 302 261 323 268 354 276 c 2
 768 387 l 1
 926 433 l 2
 1036 466 1211 526 1211 555 c 0
 1211 601 707 766 643 787 c 2
 478 837 l 2
 452 844 359 869 359 918 c 0
 359 939 377 971 451 971 c 1
 567 941 l 2
 657 918 1342 726 1342 564 c 0
 1342 425 764 262 603 216 c 2
 472 178 l 2
 350 142 327 126 281 126 c 0
EndSplineSet
EndChar
StartChar: question
Encoding: 63 63 34
Width: 1093
VWidth: 3622
Flags: W
HStem: 50 210<486.903 631.65> 1389 132<635.698 988.938>
VStem: 347 132<1036.32 1251.49> 453 214<85.1088 225.5> 1065 134<1012.17 1312.18>
Fore
453 134 m 0xd8
 453 210 524 260 584 260 c 0
 633 260 667 223 667 177 c 0
 667 100 591 50 538 50 c 0
 483 50 453 87 453 134 c 0xd8
479 1116 m 0xe8
 479 1011 631 1008 631 952 c 0
 631 933 614 869 548 869 c 0
 478 869 347 941 347 1081 c 0
 347 1345 581 1521 858 1521 c 0
 1128 1521 1199 1333 1199 1197 c 0
 1199 916 967 807 775 600 c 0
 669 494 710 416 650 380 c 0
 631 368 616 361 603 361 c 0
 592 361 557 372 557 421 c 0
 557 566 738 740 830 814 c 0
 975 930 1065 1018 1065 1169 c 0
 1065 1269 1019 1389 833 1389 c 0
 632 1389 479 1280 479 1116 c 0xe8
EndSplineSet
EndChar
StartChar: at
Encoding: 64 64 35
Width: 1859
VWidth: 3622
Flags: W
HStem: 4 115<726.147 1088.45> 302 115<1335.23 1477.2> 319 110<835.643 1087.57> 1056 102<981.913 1241.49> 1353 119<975.81 1447.94>
VStem: 308 131<396.559 825.52> 656 111<497.739 820.898> 1697 120<730.188 1129.9>
Fore
983 429 m 0xbf
 1118 429 1187 507 1208 541 c 2
 1238 608 l 2
 1244 621 1249 637 1254 656 c 2
 1300 842 l 2
 1302 857 1304 870 1304 884 c 0
 1304 1008 1182 1056 1127 1056 c 0
 948 1056 767 856 767 639 c 0
 767 540 810 429 983 429 c 0xbf
1516 1074 m 1
 1458 967 1324 533 1324 475 c 0
 1324 418 1358 417 1380 417 c 0
 1531 417 1697 737 1697 945 c 0
 1697 1173 1525 1353 1212 1353 c 0
 783 1353 439 973 439 600 c 0
 439 360 582 244 651 200 c 0
 730 146 843 119 991 119 c 0
 1041 119 1168 129 1277 164 c 1
 1304 153 1319 135 1319 115 c 0
 1319 26 1064 4 966 4 c 0
 541 4 308 251 308 569 c 0
 308 1037 738 1472 1245 1472 c 0
 1599 1472 1817 1247 1817 964 c 0
 1817 720 1628 302 1371 302 c 0xdf
 1303 302 1319 311 1296 311 c 0
 1276 311 1236 313 1208 394 c 1
 1128 335 1025 319 956 319 c 0
 815 319 656 378 656 613 c 0
 656 899 874 1158 1138 1158 c 0
 1280 1158 1342 1090 1374 1042 c 1
 1387 1079 l 1
 1405 1111 1428 1127 1456 1127 c 0
 1484 1127 1516 1115 1516 1074 c 1
EndSplineSet
EndChar
StartChar: A
Encoding: 65 65 36
Width: 1358
VWidth: 3622
Flags: W
HStem: 414 120<529 972.62> 414 104<642.38 1086 1229 1273.65> 1482 20G<997 1069.5>
VStem: 1109 120<303.873 414> 1125 126<76 186.127>
Fore
200 14 m 0x70
 176 14 157 28 157 48 c 0
 157 54 158 61 161 69 c 2
 389 509 l 1
 752 1170 l 2
 895 1423 970 1502 1024 1502 c 0
 1115 1502 1133 1330 1176 939 c 2
 1194 794 l 1
 1208 660 l 2
 1213 616 1219 569 1226 518 c 1
 1259 518 l 1
 1267 516 1292 509 1292 475 c 0
 1292 455 1280 414 1229 414 c 1x70
 1251 76 l 1
 1236 31 1206 19 1173 19 c 0
 1147 19 1131 30 1125 53 c 1x68
 1109 414 l 1
 462 414 l 1
 276 57 l 1
 246 19 213 14 200 14 c 0x70
1089 544 m 0
 1089 545 1079 607 1068 698 c 2
 1010 1196 l 2
 1006 1230 992 1350 992 1367 c 1
 990 1365 981 1350 966 1322 c 2
 637 731 l 1
 576 616 l 2
 557 581 542 554 529 534 c 1xa0
 1086 525 l 1
 1088 532 1089 538 1089 544 c 0
EndSplineSet
EndChar
StartChar: B
Encoding: 66 66 37
Width: 1216
VWidth: 3622
Flags: W
HStem: 53 124<74.6514 110 110 152> 53 106<295.162 394.838 394.838 428.5 411.669 873.112> 693 114<545.553 899.222> 1385 104<651.896 1065.16>
VStem: 180 115<192.437 664.135> 1062 113<355.777 580.426> 1229 111<994.176 1254.62>
Fore
440 1282 m 1xbe
 395 1282 362 1286 362 1317 c 0
 362 1354 422 1399 471 1413 c 0
 546 1439 734 1489 870 1489 c 0
 1087 1489 1340 1415 1340 1170 c 0
 1340 915 1092 781 1003 745 c 1
 1056 719 1175 640 1175 482 c 0
 1175 402 1133 246 1010 157 c 0
 928 83 799 50 534 50 c 0
 450 50 407 54 323 54 c 0
 302 54 282 53 264 53 c 1x7e
 230 16 210 14 196 14 c 0
 167 14 152 27 152 53 c 1
 110 53 l 1
 81 59 66 74 66 98 c 0
 66 119 77 162 136 177 c 1
 180 177 l 1
 317 639 405 1058 440 1282 c 1xbe
1229 1137 m 0
 1229 1286 1064 1385 822 1385 c 0
 724 1385 640 1366 577 1343 c 1
 492 913 l 2
 392 457 319 233 295 159 c 1
 393 159 452 157 492 157 c 0
 893 157 950 232 1008 299 c 0
 1049 347 1062 416 1062 461 c 0
 1062 600 941 689 600 693 c 0
 560 693 541 707 541 734 c 0
 541 741 543 807 599 807 c 2
 640 807 l 2
 1147 813 1229 1005 1229 1137 c 0
EndSplineSet
EndChar
StartChar: C
Encoding: 67 67 38
Width: 1430
VWidth: 3622
Flags: W
HStem: -4 121<565.495 1031.06> 1381 121<950.054 1243.4>
VStem: 210 123<336.976 770.628>
Fore
1463 1321 m 1
 1473 1365 1476 1483 1555 1491 c 0
 1577 1493 1604 1486 1604 1459 c 0
 1604 1446 1593 1396 1581 1332 c 2
 1563 1244 l 2
 1547 1160 1527 1107 1473 1107 c 0
 1375 1107 1359 1381 1077 1381 c 0
 683 1381 333 954 333 534 c 0
 333 201 607 117 792 117 c 0
 1042 117 1250 232 1358 515 c 0
 1371 542 1390 570 1438 570 c 0
 1469 570 1484 556 1484 529 c 0
 1484 501 1352 -4 766 -4 c 0
 552 -4 210 98 210 504 c 0
 210 743 354 1253 838 1446 c 0
 931 1483 1024 1502 1116 1502 c 0
 1198 1502 1313 1484 1463 1321 c 1
EndSplineSet
EndChar
StartChar: D
Encoding: 68 68 39
Width: 1399
VWidth: 3622
Flags: W
HStem: 11 118<184.464 287.5 287.5 331 446 710.108> 1348 124<520 534.76 534.76 550 686 966.995> 1482 20G<625.5 650.5>
VStem: 1341 138<656.33 1065.5>
Fore
313 11 m 2
 209 11 180 32 180 64 c 0
 180 112 201 138 244 142 c 1
 331 129 l 1
 550 1348 l 1
 475 1348 460 1381 460 1403 c 0
 460 1434 520 1473 520 1473 c 1
 531 1473 531 1472 577 1472 c 1
 591 1492 612 1502 639 1502 c 0
 662 1502 678 1492 686 1472 c 1
 1165 1472 1479 1241 1479 895 c 0
 1479 477 1085 11 379 11 c 2
 313 11 l 2
446 131 m 1
 881 139 1341 426 1341 868 c 0
 1341 1254 958 1344 669 1351 c 1
 446 131 l 1
EndSplineSet
EndChar
StartChar: E
Encoding: 69 69 40
Width: 1112
VWidth: 3622
Flags: W
HStem: 38 97<590.625 693.138 641.882 966.106> 45 103<94.6914 157.592 157.592 169.153 169.153 179> 720 115<306.654 340 485.086 544.769 544.769 774.608 774.608 931.586 931.586 1033.68> 1355 113<592.291 1080.08 966.661 1193.5>
Fore
136 148 m 0x70
 152 148 167 148 179 150 c 1
 208 235 236 325 261 420 c 2
 340 720 l 1
 326 721 286 719 286 770 c 0
 286 808 309 833 366 833 c 1
 426 1091 l 2
 446 1178 462 1266 474 1355 c 1
 447 1356 433 1368 433 1390 c 0
 433 1452 469 1468 865 1468 c 0
 1052 1468 1346 1471 1346 1413 c 0
 1346 1375 1311 1340 1270 1337 c 0
 1253 1338 1230 1340 1200 1342 c 2
 1098 1347 l 2
 1016 1351 924 1353 835 1353 c 0
 690 1353 641 1350 593 1346 c 1
 498 892 l 2
 494 872 490 854 485 837 c 1
 520 836 560 835 605 835 c 2
 744 835 l 2
 831 835 930 833 1006 826 c 1
 1025 821 1035 803 1035 771 c 0
 1035 736 1012 716 982 716 c 0
 818 718 653 720 571 720 c 2
 497 720 l 2
 483 720 471 719 462 718 c 1
 453 678 441 634 426 584 c 2
 342 293 l 2
 328 246 318 205 311 168 c 1
 554 142 666 135 754 135 c 0
 825 135 897 140 991 154 c 1
 1032 154 1056 130 1056 106 c 0
 1056 59 980 28 768 28 c 0
 721 28 671 29 618 32 c 2
 465 38 l 2xb0
 314 46 289 50 214 50 c 0
 191 50 173 45 154 45 c 0
 108 45 94 60 94 83 c 0
 94 131 102 148 136 148 c 0x70
EndSplineSet
EndChar
StartChar: F
Encoding: 70 70 41
Width: 1075
VWidth: 3622
Flags: W
HStem: 692 109<499 525.339 525.339 538.698 538.698 709.438 624.068 897.588> 1341 113<378.417 429.146 429.146 467 610 824.948> 1355 115<614.026 1193.77>
VStem: 485 125<1468 1561.98>
Fore
239 640 m 0xb0
 206 640 198 654 198 676 c 0
 198 725 225 747 249 757 c 1
 371 780 l 1
 467 1344 l 1
 408 1341 415 1341 393 1341 c 0
 358 1341 341 1355 341 1383 c 0
 341 1440 381 1454 416 1454 c 2xd0
 483 1457 l 1
 485 1505 l 1
 495 1550 527 1567 554 1567 c 0
 588 1567 610 1539 610 1498 c 2
 610 1468 l 1
 691 1470 763 1470 828 1470 c 0
 1244 1470 1318 1442 1318 1399 c 256
 1318 1363 1280 1336 1252 1325 c 1
 1126 1351 1001 1355 853 1355 c 0
 801 1355 749 1355 593 1351 c 1
 586 1296 565 1128 499 799 c 1
 513 799 531 800 552 801 c 2
 623 806 l 2
 724 812 775 812 792 812 c 0
 922 812 1052 798 1052 741 c 0
 1052 689 1009 676 982 676 c 0
 801 693 709 692 679 692 c 0
 616 692 547 688 472 681 c 1
 368 133 301 14 258 14 c 0
 230 14 193 26 193 51 c 0
 193 54 195 56 195 58 c 1
 299 387 345 669 345 669 c 1
 330 662 271 640 239 640 c 0xb0
EndSplineSet
EndChar
StartChar: G
Encoding: 71 71 42
Width: 1517
VWidth: 3622
Flags: W
HStem: 7 120<584.227 1016.31> 612 120<1182.95 1320.47 1447 1536.66> 1330 120<829.112 1266.54>
VStem: 223 133<350.597 822.671> 1323 124<363.069 612> 1500 113<1263.27 1379.19>
Fore
1323 612 m 1
 1217 614 1177 623 1177 668 c 0
 1177 701 1206 738 1254 738 c 0
 1377 728 1393 732 1408 732 c 0
 1514 732 1545 729 1545 692 c 0
 1545 637 1504 623 1447 623 c 1
 1388 323 1184 7 775 7 c 0
 416 7 223 243 223 561 c 0
 223 983 578 1450 1073 1450 c 0
 1289 1450 1404 1381 1500 1259 c 1
 1514 1315 1494 1383 1569 1383 c 0
 1599 1383 1613 1372 1613 1350 c 0
 1613 1287 1602 1135 1511 1135 c 0
 1386 1135 1380 1330 1029 1330 c 0
 693 1330 356 981 356 566 c 0
 356 283 530 127 801 127 c 0
 1119 127 1255 332 1323 612 c 1
EndSplineSet
EndChar
StartChar: H
Encoding: 72 72 43
Width: 1383
VWidth: 3622
Flags: W
HStem: 601 121<842.29 1194 1332 1400.73> 619 115<280.594 347 501 809.71>
Fore
239 660 m 0x40
 239 713 283 734 307 734 c 2x40
 384 731 l 1
 600 1461 l 2
 612 1509 650 1518 674 1518 c 256
 706 1518 727 1500 727 1472 c 0
 727 1462 726 1455 723 1450 c 1
 723 1454 l 1
 501 731 l 1
 1210 722 l 1
 1335 1457 l 2
 1345 1515 1395 1518 1410 1518 c 0
 1438 1518 1463 1503 1463 1477 c 0
 1463 1469 1462 1462 1459 1457 c 1
 1332 722 l 1
 1425 722 1438 704 1438 676 c 0
 1438 616 1398 601 1369 601 c 2
 1307 601 l 1
 1206 90 l 2
 1199 53 1147 37 1116 37 c 0
 1102 37 1079 41 1079 62 c 0
 1079 65 1081 63 1081 69 c 1
 1194 601 l 1x80
 458 616 l 1
 302 46 l 1
 283 20 249 7 221 7 c 0
 205 7 182 13 182 35 c 0
 182 42 184 51 189 60 c 1
 347 619 l 1
 256 619 239 635 239 660 c 0x40
EndSplineSet
EndChar
StartChar: I
Encoding: 73 73 44
Width: 804
VWidth: 3622
Flags: MW
HStem: 21 113<94 380 475.521 726.133 706.023 746.243> 1371 120<358.356 521.933 440.144 856.998 645.785 685 801 820.731 820.731 944.659 944.659 1067.12>
Fore
57 60 m 0
 57 105 98 134 120 134 c 2
 380 134 l 1
 387 159 396 194 407 236 c 2
 486 560 l 2
 501 622 518 687 536 752 c 0
 561 843 685 1367 685 1367 c 1
 639 1371 623 1371 608 1371 c 0
 535 1371 526 1360 391 1360 c 0
 345 1360 331 1386 331 1404 c 0
 331 1456 395 1491 805 1491 c 0
 1011 1491 1077 1481 1077 1443 c 0
 1077 1404 1034 1366 1005 1366 c 0
 925 1371 899 1374 872 1374 c 258
 840 1374 l 2
 832 1374 819 1373 801 1371 c 1
 783 1282 645 704 588 483 c 2
 533 269 l 2
 517 206 505 161 497 134 c 1
 585 124 639 122 674 122 c 0
 696 122 717 122 738 124 c 0
 769 123 785 110 785 85 c 0
 785 26 739 11 715 11 c 2
 94 21 l 1
 69 30 57 43 57 60 c 0
EndSplineSet
EndChar
StartChar: J
Encoding: 74 74 45
Width: 1017
VWidth: 3622
Flags: W
HStem: 4 113<319.352 588.113> 1364 116<875.944 984.946 984.946 1052 1176 1206.58 1206.58 1278.32 1278.32 1293.54>
VStem: 120 119<197.691 497.956>
Fore
1098 1480 m 0
 1285 1480 1376 1471 1376 1436 c 256
 1376 1423 1361 1375 1318 1368 c 0
 1298 1366 1272 1364 1238 1364 c 0
 1195 1364 1201 1364 1176 1362 c 1
 1012 632 l 2
 988 524 941 292 770 134 c 0
 635 8 504 4 471 4 c 0
 296 4 120 71 120 338 c 0
 120 426 137 600 207 600 c 0
 242 600 260 586 260 557 c 0
 260 464 239 445 239 370 c 0
 239 168 347 117 488 117 c 0
 642 117 792 247 874 550 c 0
 894 625 910 694 924 759 c 2
 960 952 l 2
 991 1118 1020 1242 1052 1364 c 1
 1011 1364 998 1358 916 1358 c 0
 874 1358 868 1395 868 1404 c 0
 868 1465 929 1480 1098 1480 c 0
EndSplineSet
EndChar
StartChar: K
Encoding: 75 75 46
Width: 1216
VWidth: 3622
Flags: W
Fore
226 30 m 0
 199 30 180 55 180 87 c 0
 180 110 304 626 376 964 c 0
 484 1469 464 1453 496 1466 c 0
 507 1471 520 1473 534 1473 c 0
 572 1473 598 1459 598 1438 c 1
 529 1116 517 1062 488 900 c 1
 881 1127 l 2
 1117 1262 1325 1429 1407 1429 c 0
 1429 1429 1440 1413 1440 1383 c 0
 1440 1345 1413 1332 1413 1332 c 1
 1327 1260 966 1039 941 1024 c 2
 557 799 l 1
 582 693 890 359 1166 142 c 0
 1246 80 1190 29 1124 29 c 0
 1105 29 1099 9 864 224 c 0
 705 370 586 499 448 711 c 1
 310 97 l 1
 292 55 260 30 226 30 c 0
EndSplineSet
EndChar
StartChar: L
Encoding: 76 76 47
Width: 1047
VWidth: 3622
Flags: MW
HStem: 25 118<315.098 738.419> 74 128<899.733 1007.26>
VStem: 168 117<177.099 402.708>
Fore
577 1505 m 0
 604 1505 627 1489 627 1460 c 0
 627 1426 576 1339 472 992 c 0
 395 738 302 373 302 373 c 2
 291 337 285 297 285 271 c 0
 285 179 354 143 448 143 c 0
 579 143 919 202 955 202 c 0
 990 202 1015 171 1015 146 c 0
 1015 137 1006 81 939 74 c 2
 822 57 l 2
 706 36 615 25 478 25 c 0
 244 25 168 39 168 210 c 0
 168 400 360 1035 402 1162 c 0
 514 1497 511 1481 534 1494 c 0
 547 1501 562 1505 577 1505 c 0
EndSplineSet
EndChar
StartChar: M
Encoding: 77 77 48
Width: 1690
VWidth: 3622
Flags: W
HStem: 1385 124<656.283 753.663>
VStem: 886 117<851 1093> 1578 109<1238.44 1369.28>
Fore
1627 1509 m 0
 1663 1509 1687 1478 1687 1364 c 0
 1687 1248 1662 1074 1624 848 c 2
 1560 486 l 2
 1481 34 1500 48 1466 16 c 0
 1452 2 1438 -4 1424 -4 c 0
 1406 -4 1371 9 1371 76 c 1
 1504 812 1578 1243 1578 1371 c 1
 1399 1330 1095 860 999 568 c 0
 986 529 965 509 934 509 c 0
 906 509 884 520 884 547 c 0
 884 558 886 589 886 652 c 0
 886 996 806 1385 686 1385 c 0
 656 1385 582 1148 536 984 c 0
 507 878 400 477 310 48 c 1
 293 23 249 13 229 13 c 0
 210 13 186 20 186 48 c 1
 468 1339 601 1509 704 1509 c 0
 888 1509 986 1195 1003 851 c 1
 1178 1241 1465 1509 1627 1509 c 0
EndSplineSet
EndChar
StartChar: N
Encoding: 78 78 49
Width: 1551
VWidth: 3622
Flags: W
HStem: 28 131<1169.57 1261.17> 1482 20G<565 610.5 1602.5 1629>
Fore
582 1281 m 1
 486 923 404 432 325 69 c 0
 320 52 269 31 234 31 c 0
 205 31 195 51 195 69 c 1
 316 658 l 1
 384 969 l 2
 484 1409 545 1502 585 1502 c 0
 636 1502 762 1243 840 1076 c 2
 954 828 l 1
 1220 214 l 2
 1236 177 1245 159 1247 159 c 0
 1257 159 1345 545 1346 548 c 0
 1360 606 1451 1016 1542 1447 c 1
 1561 1486 1590 1500 1615 1500 c 0
 1643 1500 1667 1481 1667 1460 c 0
 1667 1441 1486 610 1474 558 c 2
 1385 179 l 2
 1349 72 1289 28 1226 28 c 0
 1097 28 847 807 582 1281 c 1
EndSplineSet
EndChar
StartChar: O
Encoding: 79 79 50
Width: 1630
VWidth: 3622
Flags: W
HStem: 21 124<596.756 1068.37> 1358 128<828.727 1280.98>
VStem: 226 134<364.264 789.963> 1550 130<644.345 1102.93>
Fore
1086 1486 m 0
 1459 1486 1680 1245 1680 910 c 0
 1680 476 1358 21 771 21 c 0
 483 21 226 191 226 521 c 0
 226 867 494 1486 1086 1486 c 0
360 549 m 0
 360 281 579 145 805 145 c 0
 1317 145 1550 515 1550 876 c 0
 1550 1188 1354 1356 1060 1358 c 0
 552 1358 360 802 360 549 c 0
EndSplineSet
EndChar
StartChar: P
Encoding: 80 80 51
Width: 1199
VWidth: 3622
Flags: W
HStem: 566 124<622.946 975.834> 1366 109<608.033 1076.93> 1478 20G<489 531.5>
VStem: 1256 117<922.312 1216.37>
Fore
1256 1083 m 0
 1256 1253 1072 1366 854 1366 c 0
 757 1366 654 1343 545 1298 c 1
 456 738 l 1
 546 706 638 690 731 690 c 0
 1011 690 1256 846 1256 1083 c 0
516 1498 m 1
 547 1494 561 1465 561 1440 c 0
 561 1431 560 1422 557 1413 c 1
 660 1454 766 1475 877 1475 c 0
 1092 1475 1373 1381 1373 1127 c 0
 1373 755 1040 566 729 566 c 0
 647 566 543 578 430 619 c 1
 302 41 l 2
 292 11 250 -12 216 -12 c 0
 185 -12 167 5 167 30 c 0
 167 60 212 135 375 1004 c 2
 421 1242 l 1
 413 1234 403 1230 392 1230 c 0
 373 1230 354 1244 354 1274 c 0
 354 1315 441 1366 444 1366 c 1
 466 1459 462 1492 516 1498 c 1
EndSplineSet
EndChar
StartChar: Q
Encoding: 81 81 52
Width: 1593
VWidth: 3622
Flags: W
HStem: 32 122<577.942 955.263> 1366 129<877.527 1258.23>
VStem: 231 131<372.318 821.238> 1518 138<701.13 1081.24>
Fore
1656 927 m 0
 1656 799 1621 558 1469 376 c 0
 1441 342 1409 307 1373 271 c 1
 1480 138 l 1
 1483 130 1485 122 1485 115 c 0
 1485 76 1441 44 1409 44 c 0
 1388 44 1380 51 1358 78 c 2
 1321 122 l 2
 1306 141 1287 166 1265 198 c 1
 1140 110 963 32 762 32 c 0
 337 32 231 305 231 543 c 0
 231 1123 703 1495 1106 1495 c 0
 1410 1495 1656 1268 1656 927 c 0
792 154 m 0
 876 154 1034 170 1197 292 c 1
 1093 429 1067 434 1067 475 c 0
 1067 507 1087 543 1125 543 c 0
 1198 543 1231 461 1305 361 c 1
 1517 565 1518 780 1518 846 c 0
 1518 1137 1343 1366 1081 1366 c 0
 759 1366 362 1033 362 578 c 0
 362 392 451 154 792 154 c 0
EndSplineSet
EndChar
StartChar: R
Encoding: 82 82 53
Width: 1292
VWidth: 3622
Flags: W
HStem: 599 138<567.494 977.67> 1355 118<624.892 1099.6>
VStem: 1256 127<939.873 1222.34>
Fore
1256 1087 m 0
 1256 1251 1097 1355 886 1355 c 0
 756 1355 637 1322 538 1282 c 1
 497 1076 l 2
 467 921 453 827 448 764 c 1
 519 746 599 737 686 737 c 0
 1024 737 1256 868 1256 1087 c 0
385 1225 m 0
 366 1225 346 1249 346 1268 c 0
 346 1306 432 1359 439 1362 c 1
 452 1438 447 1479 508 1479 c 0
 536 1479 556 1469 568 1450 c 1
 561 1408 l 1
 647 1438 779 1473 925 1473 c 0
 1272 1473 1383 1289 1383 1134 c 0
 1383 813 1073 599 690 599 c 0
 641 599 594 602 548 610 c 1
 1125 138 l 1
 1132 129 1136 119 1136 109 c 0
 1136 74 1089 24 1049 24 c 0
 1040 24 1033 27 1026 32 c 2
 409 557 l 1
 360 326 l 2
 302 50 293 -7 218 -7 c 0
 198 -7 169 1 169 33 c 0
 169 71 214 147 306 650 c 2
 360 952 l 2
 378 1052 397 1147 416 1238 c 1
 405 1229 395 1225 385 1225 c 0
EndSplineSet
EndChar
StartChar: S
Encoding: 83 83 54
Width: 1098
VWidth: 3622
Flags: W
HStem: 4 120<431.978 792.112> 1369 120<661.266 1005.58>
VStem: 201 139<219.825 417.749 417.551 417.946 417.946 507.865> 336 127<913.318 1180.02> 949 126<270.044 544.026> 1079 130<1039.12 1104.55 1071.84 1290.46>
Fore
854 1369 m 0xdc
 582 1378 463 1158 463 1031 c 0xdc
 463 934 520 857 750 789 c 0
 1052 708 1075 534 1075 466 c 0
 1075 196 853 4 568 4 c 0
 340 4 201 140 201 348 c 0
 201 381 205 414 212 449 c 0
 215 499 258 521 287 521 c 0
 308 521 340 510 340 459 c 0xec
 340 450 333 425 333 375 c 0
 333 174 477 124 614 124 c 0
 862 124 949 308 949 418 c 0
 949 573 800 639 665 676 c 0
 341 754 336 946 336 1004 c 0
 336 1263 564 1489 879 1489 c 0
 1094 1485 1209 1357 1209 1180 c 0
 1209 1064 1177 1027 1119 1027 c 0
 1092 1027 1079 1042 1079 1071 c 0
 1079 1085 1083 1098 1083 1138 c 0
 1083 1284 1006 1369 854 1369 c 0xdc
EndSplineSet
EndChar
StartChar: T
Encoding: 84 84 55
Width: 1137
VWidth: 3622
Flags: MW
HStem: 1334 123<398.285 511.945> 1337 131<641.993 787 1180 1346.71> 1355 127<945 1204.51>
Fore
1289 1337 m 0
 1216 1337 1186 1350 945 1355 c 1
 877 1169 773 757 688 394 c 2
 640 188 l 2
 614 82 618 18 527 18 c 0
 477 18 463 39 463 68 c 0
 463 94 475 125 481 152 c 2
 560 476 l 2
 791 1350 755 1243 787 1351 c 1
 613 1351 588 1345 538 1343 c 2
 410 1334 l 2
 399 1334 393 1352 393 1374 c 0
 393 1409 407 1455 432 1457 c 0
 575 1474 734 1482 893 1482 c 256
 977 1482 1146 1481 1314 1468 c 0
 1345 1466 1358 1446 1358 1422 c 0
 1358 1386 1329 1342 1289 1337 c 0
EndSplineSet
EndChar
StartChar: U
Encoding: 85 85 56
Width: 1365
VWidth: 3622
Flags: W
HStem: 7 126<481.594 882.599>
VStem: 246 133<227.647 525.837>
Fore
379 356 m 0
 379 178 549 133 679 133 c 0
 1042 133 1146 469 1187 663 c 2
 1350 1431 l 2
 1360 1474 1399 1489 1429 1489 c 256
 1456 1489 1489 1479 1489 1438 c 1
 1212 62 l 2
 1203 24 1158 -4 1120 -4 c 0
 1091 -4 1067 13 1067 53 c 0
 1067 95 1079 109 1098 195 c 1
 1003 80 852 7 637 7 c 0
 347 7 246 199 246 405 c 1
 394 1116 l 2
 458 1440 481 1477 539 1477 c 0
 582 1477 603 1458 603 1420 c 1
 504 998 l 2
 420 641 379 461 379 356 c 0
EndSplineSet
EndChar
StartChar: V
Encoding: 86 86 57
Width: 1379
VWidth: 3622
Flags: W
HStem: -4 139<654.898 728.859> 1470 20G<489 523.5>
Fore
681 177 m 2
 685 147 696 135 708 135 c 0
 722 135 737 149 746 170 c 2
 1383 1431 l 2
 1399 1462 1432 1478 1462 1478 c 0
 1493 1478 1520 1461 1520 1429 c 0
 1520 1424 1519 1419 1518 1413 c 1
 1172 703 l 1
 936 242 l 2
 830 43 829 46 788 24 c 0
 754 6 714 -4 678 -4 c 0
 616 -4 563 23 554 81 c 0
 551 104 496 617 480 781 c 2
 458 1008 l 2
 452 1072 447 1129 443 1178 c 2
 432 1312 l 2
 430 1351 427 1390 425 1429 c 1
 432 1469 471 1490 507 1490 c 0
 540 1490 572 1473 577 1440 c 2
 681 177 l 2
EndSplineSet
EndChar
StartChar: W
Encoding: 87 87 58
Width: 1862
VWidth: 3622
Flags: W
HStem: 12 21G<1285 1333>
Fore
1318 12 m 256
 1252 12 1238 76 1238 76 c 1
 1074 646 l 1
 750 176 l 2
 674 65 656 9 582 9 c 0
 543 9 520 29 513 69 c 1
 510 252 505 424 498 586 c 2
 478 1008 l 2
 463 1183 459 1276 444 1404 c 1
 450 1458 483 1484 517 1484 c 0
 545 1484 573 1465 584 1427 c 1
 653 228 l 1
 1028 794 l 2
 1057 836 1075 842 1109 842 c 0
 1155 842 1176 838 1224 659 c 2
 1335 230 l 1
 1586 810 l 1
 1870 1436 l 2
 1876 1450 1893 1456 1914 1456 c 0
 1952 1456 2002 1435 2002 1413 c 1
 1980 1361 1970 1354 1970 1348 c 1
 1763 897 1692 747 1560 440 c 2
 1412 78 l 2
 1388 24 1348 12 1318 12 c 256
EndSplineSet
EndChar
StartChar: X
Encoding: 88 88 59
Width: 1386
VWidth: 3622
Flags: W
HStem: 1482 20G<502.5 535.5>
Fore
1461 1488 m 0
 1499 1488 1536 1448 1536 1422 c 0
 1536 1416 1534 1410 1530 1404 c 1
 923 766 l 1
 1270 96 l 2
 1272 92 1273 87 1273 83 c 0
 1273 51 1213 24 1168 24 c 0
 1151 24 1136 28 1127 37 c 1
 808 653 l 1
 249 48 l 2
 242 41 233 39 222 39 c 0
 187 39 137 70 137 99 c 0
 137 105 140 111 145 117 c 2
 741 766 l 1
 582 1093 l 2
 571 1117 429 1416 429 1437 c 0
 429 1473 479 1502 526 1502 c 0
 545 1502 559 1496 568 1484 c 1
 613 1385 661 1284 714 1180 c 2
 861 883 l 1
 1433 1477 l 2
 1440 1484 1450 1488 1461 1488 c 0
EndSplineSet
EndChar
StartChar: Y
Encoding: 89 89 60
Width: 1361
VWidth: 3622
Flags: W
HStem: 11 788<667 886.5> 1476 20G<503.5 563.5 1442.5 1473.5>
VStem: 439 187<1201.73 1474>
Fore
439 1445 m 0
 439 1486 489 1496 518 1496 c 0
 609 1496 590 1388 626 1266 c 2
 676 1099 l 2
 709 983 774 799 842 799 c 0
 931 799 1247 1264 1288 1322 c 2
 1378 1454 l 2
 1394 1479 1429 1491 1456 1491 c 0
 1491 1491 1516 1471 1516 1443 c 0
 1516 1433 1514 1423 1507 1412 c 2
 1357 1194 l 2
 1265 1062 1023 731 884 677 c 1
 768 76 l 2
 755 25 708 11 679 11 c 0
 655 11 617 20 617 57 c 1
 741 681 l 1
 623 745 475 1156 439 1445 c 0
EndSplineSet
EndChar
StartChar: Z
Encoding: 90 90 61
Width: 1358
VWidth: 3622
Flags: W
HStem: 32 141<553.72 1231.77> 41 117<226 253.362 176.837 446.344 354.207 538.481> 1320 124<545.353 1283.96>
Fore
983 1320 m 2x60
 645 1320 458 1340 458 1419 c 0
 458 1465 511 1473 539 1473 c 0
 675 1473 780 1444 1050 1444 c 0
 1167 1444 1314 1449 1509 1465 c 0
 1524 1465 1595 1458 1595 1401 c 0
 1595 1344 1383 1148 1294 1068 c 2
 559 426 l 1
 404 294 l 2
 320 223 245 165 226 159 c 1
 241 158 260 158 281 158 c 0x60
 416 158 662 173 871 173 c 0
 1077 173 1249 158 1249 101 c 0
 1249 46 1208 32 1173 32 c 0xa0
 856 48 669 53 548 53 c 0
 359 53 329 41 218 41 c 0
 172 41 97 45 97 99 c 0
 97 221 822 796 1134 1079 c 2
 1280 1215 l 1
 1410 1341 l 1
 1266 1321 1182 1320 1054 1320 c 2
 983 1320 l 2x60
EndSplineSet
EndChar
StartChar: bracketleft
Encoding: 91 91 62
Width: 590
VWidth: 3622
Flags: MW
HStem: -320 119<193.707 400.751> 1427 125<529 572.223 546.815 661.812 627.539 696.085 696.085 780.984>
Fore
861 1493 m 0
 861 1471 848 1424 780 1424 c 0
 665 1428 648 1429 616 1429 c 0
 573 1429 560 1427 529 1427 c 1
 505 1302 411 805 364 576 c 2
 274 155 l 2
 245 21 218 -96 193 -195 c 1
 216 -200 239 -201 260 -201 c 0
 282 -201 302 -199 314 -198 c 2
 382 -188 l 2
 415 -184 444 -182 467 -182 c 0
 492 -182 509 -203 509 -230 c 0
 509 -302 408 -320 230 -320 c 0
 93 -320 27 -304 27 -276 c 1
 116 50 l 2
 267 629 356 1148 412 1518 c 0
 416 1547 506 1552 576 1552 c 0
 618 1552 618 1551 680 1551 c 0
 737 1551 861 1546 861 1493 c 0
EndSplineSet
EndChar
StartChar: backslash
Encoding: 92 92 63
Width: 1009
VWidth: 3622
Flags: W
VStem: 526 123<1806.54 1843.12 1843.12 1870> 725 123<16.0545 116.626>
Fore
525 1848 m 0
 525 1900 565 1924 598 1924 c 0
 616 1924 644 1917 649 1870 c 2
 847 117 l 2
 848 109 848 102 848 95 c 0
 848 37 818 13 788 13 c 0
 758 13 728 36 725 74 c 0
 724 89 585 1318 584 1320 c 1
 526 1838 l 2
 525 1844 525 1847 525 1848 c 0
EndSplineSet
EndChar
StartChar: bracketright
Encoding: 93 93 64
Width: 590
VWidth: 3622
Flags: MW
HStem: -313 116<131.941 286.016> 1427 124<340.882 427.093 427.093 636.249>
Fore
19 -179 m 0
 90 -179 141 -197 223 -197 c 0
 245 -197 266 -195 287 -191 c 1
 372 298 489 846 639 1427 c 1
 464 1427 l 2
 416 1427 400 1426 384 1424 c 0
 336 1424 327 1450 327 1468 c 0
 327 1534 410 1551 585 1551 c 2
 632 1551 l 2
 723 1551 792 1547 792 1518 c 1
 570 683 473 174 416 -272 c 0
 412 -307 306 -313 268 -313 c 2
 135 -313 l 2
 46 -313 -46 -302 -46 -258 c 0
 -46 -190 2 -179 19 -179 c 0
EndSplineSet
EndChar
StartChar: asciicircum
Encoding: 94 94 65
Width: 1268
VWidth: 3622
Flags: W
HStem: 1325 143<882.707 964.161>
VStem: 1024 170<546.868 978.413>
Fore
1194 532 m 0
 1194 447 1148 428 1127 428 c 0
 1051 428 1083 532 1024 1002 c 0
 1000 1185 967 1325 930 1325 c 0
 881 1325 627 900 484 642 c 2
 424 536 l 2
 395 483 380 436 321 436 c 0
 292 436 272 454 272 482 c 0
 272 495 276 510 285 527 c 2
 541 974 l 2
 714 1264 859 1468 939 1468 c 0
 1117 1460 1194 744 1194 532 c 0
EndSplineSet
EndChar
StartChar: underscore
Encoding: 95 95 66
Width: 1814
VWidth: 3622
Flags: W
HStem: -34 121<24.0513 250.655 250.655 297.985 274.32 932.027 867.807 996.246 932.027 1414.82 1243.85 1576.12 1576.12 1585.8 1585.8 1771.59>
Fore
83 93 m 0
 131 93 322 80 561 80 c 0
 835 80 1147 87 1432 87 c 0
 1541 87 1643 86 1739 85 c 0
 1769 85 1782 67 1782 46 c 0
 1782 11 1750 -33 1709 -35 c 0
 1602 -35 1576 -34 1442 -34 c 0
 1282 -34 1282 -32 1042 -32 c 0
 902 -32 867 -34 692 -34 c 0
 489 -34 244 -29 67 -25 c 0
 33 -25 18 -4 18 21 c 0
 18 54 45 93 83 93 c 0
EndSplineSet
EndChar
StartChar: grave
Encoding: 96 96 67
Width: 652
VWidth: 3622
Flags: W
HStem: 979 477
VStem: 373 411
Fore
373 1389 m 0
 373 1423 406 1456 446 1456 c 0
 485 1456 489 1436 604 1293 c 2
 773 1083 l 2
 781 1072 784 1060 784 1049 c 0
 784 1013 750 979 712 979 c 0
 695 979 679 988 663 1006 c 2
 384 1357 l 2
 377 1367 373 1378 373 1389 c 0
EndSplineSet
EndChar
StartChar: a
Encoding: 97 97 68
Width: 1202
VWidth: 3622
Flags: W
HStem: -14 125<417.191 776.567> 927 115<602.447 902.898>
VStem: 183 133<213.141 598.509>
Fore
316 378 m 0
 316 257 369 111 580 111 c 0
 728 111 858 176 916 287 c 1
 1008 665 l 1
 1008 839 882 927 766 927 c 0
 531 927 316 674 316 378 c 0
1049 2 m 0
 994 2 919 27 911 101 c 1
 871 66 770 -14 559 -14 c 0
 250 -14 183 189 183 337 c 0
 183 728 456 1042 787 1042 c 0
 938 1042 1011 996 1072 906 c 1
 1111 1016 1140 1028 1176 1028 c 0
 1209 1028 1245 1008 1245 980 c 0
 1245 949 1212 907 1187 812 c 0
 1176 771 1108 480 1088 397 c 2
 1063 289 l 2
 1049 225 1044 203 1044 182 c 0
 1044 111 1155 132 1155 74 c 0
 1155 17 1090 2 1049 2 c 0
EndSplineSet
Substitution2: "Single Substitution lookup 22 subtable" uni0E38
Substitution2: "Single Substitution lookup 22 subtable" uni0E38
EndChar
StartChar: b
Encoding: 98 98 69
Width: 1202
VWidth: 3622
Flags: W
HStem: -15 120<434.654 838.242> 935 128<558.128 969.505>
VStem: 1104 131<400.142 811.712>
Fore
1104 653 m 0
 1104 846 963 935 782 935 c 0
 627 935 474 873 387 784 c 1
 281 256 l 1
 381 153 515 105 641 105 c 0
 896 105 1104 290 1104 653 c 0
219 154 m 1
 148 39 84 18 50 18 c 0
 17 18 0 31 0 57 c 0
 0 112 90 136 111 198 c 0
 203 510 312 994 426 1802 c 1
 443 1831 474 1851 506 1851 c 0
 528 1851 554 1840 554 1797 c 1
 439 1080 l 1
 439 1080 416 948 414 941 c 1
 505 1008 642 1063 794 1063 c 0
 1023 1063 1235 940 1235 683 c 0
 1235 187 903 -15 619 -15 c 0
 474 -15 320 36 219 154 c 1
EndSplineSet
Substitution2: "Single Substitution lookup 22 subtable" uni0E39
Substitution2: "Single Substitution lookup 22 subtable" uni0E39
EndChar
StartChar: c
Encoding: 99 99 70
Width: 1086
VWidth: 3622
Flags: W
HStem: 4 129<401.328 737.66> 953 130<583.416 950.991>
VStem: 145 133<249.292 606.366>
Fore
1190 787 m 0
 1190 758 1160 723 1119 723 c 0
 1076 723 1057 753 1047 769 c 1
 1010 911 894 953 782 953 c 0
 448 953 278 632 278 409 c 0
 278 267 351 133 596 133 c 0
 620 133 765 127 896 249 c 0
 935 284 956 308 1008 400 c 1
 1023 444 1066 464 1094 464 c 0
 1113 464 1139 455 1139 416 c 0
 1139 334 961 4 566 4 c 0
 311 4 145 124 145 380 c 0
 145 645 357 1083 810 1083 c 0
 983 1083 1190 986 1190 787 c 0
EndSplineSet
Substitution2: "Single Substitution lookup 22 subtable" uni0E3A
Substitution2: "Single Substitution lookup 22 subtable" uni0E3A
EndChar
StartChar: d
Encoding: 100 100 71
Width: 1202
VWidth: 3622
Flags: W
HStem: -11 130<451.492 754.499> 927 133<600.59 981.809>
VStem: 168 133<260.69 624.65>
Fore
301 417 m 0
 301 179 522 119 619 119 c 0
 791 119 999 233 1024 292 c 1
 1118 746 l 1
 1068 859 934 927 798 927 c 0
 618 927 301 797 301 417 c 0
807 1060 m 0
 1029 1060 1112 992 1155 945 c 1
 1177 1036 l 2
 1192 1099 1281 1439 1298 1500 c 2
 1342 1660 l 2
 1382 1811 1384 1821 1412 1839 c 0
 1428 1849 1443 1854 1457 1854 c 256
 1483 1854 1511 1844 1511 1802 c 1
 1192 688 1149 185 1149 185 c 1
 1149 151 1199 113 1199 80 c 0
 1199 30 1154 18 1127 18 c 0
 1094 18 1008 51 1005 131 c 1
 916 12 672 -11 575 -11 c 0
 438 -11 168 68 168 386 c 0
 168 798 516 1060 807 1060 c 0
EndSplineSet
EndChar
StartChar: e
Encoding: 101 101 72
Width: 1195
VWidth: 3622
Flags: W
HStem: 0 133<429.756 809.502> 532 114<345.164 1056.87> 953 130<602.222 980.314>
VStem: 166 135<249.479 514.677> 1107 131<635.516 826.121>
Fore
1238 738 m 0
 1238 576 1165 532 1116 532 c 2
 313 529 l 1
 305 498 301 454 301 405 c 0
 301 213 437 133 628 133 c 0
 751 133 913 202 1014 340 c 1
 1029 349 1044 354 1058 354 c 0
 1089 354 1108 331 1108 298 c 0
 1108 272 1095 248 1095 248 c 1
 994 114 799 -0 601 0 c 0
 253 0 166 235 166 407 c 0
 166 714 429 1083 828 1083 c 0
 1113 1083 1238 886 1238 738 c 0
1107 671 m 0
 1107 785 1045 953 796 953 c 0
 547 953 404 758 345 640 c 1
 347 642 446 646 544 646 c 2
 726 646 l 2
 877 646 1104 641 1104 633 c 1
 1106 645 1107 658 1107 671 c 0
EndSplineSet
EndChar
StartChar: f
Encoding: 102 102 73
Width: 652
VWidth: 3622
Flags: MW
HStem: 734 131<258.428 294.484 294.484 347 511 543.265 543.265 670.5> 1417 129<692.403 872.233>
VStem: 879 145<1173.04 1240.44 1206.74 1404.15>
Fore
938 1159 m 0
 905 1159 879 1183 879 1213 c 1
 885 1241 889 1269 889 1295 c 0
 889 1363 864 1417 791 1417 c 0
 654 1417 590 1235 511 868 c 1
 653 868 708 855 708 805 c 0
 708 752 666 739 630 739 c 2
 576 739 l 2
 558 739 526 740 483 741 c 1
 357 60 l 1
 340 20 312 0 274 0 c 256
 237 0 218 15 218 44 c 1
 347 734 l 1
 326 733 283 731 241 731 c 0
 194 731 174 757 174 785 c 0
 174 815 197 847 237 854 c 256
 278 862 303 865 320 865 c 0
 371 865 l 1
 454 1266 551 1546 817 1546 c 0
 957 1546 1024 1463 1024 1366 c 0
 1024 1190 985 1159 938 1159 c 0
EndSplineSet
EndChar
StartChar: g
Encoding: 103 103 74
Width: 1116
VWidth: 3622
Flags: W
HStem: -495 110<301.334 645.21> 81 122<388.417 752.485> 1001 136<563.891 867.364>
VStem: 111 117<-311.477 -111.453> 155 129<312.716 699.371>
Fore
284 483 m 0xe8
 284 367 335 203 538 203 c 0
 689 203 907 289 934 400 c 2
 999 879 l 1
 946 1000 753 1001 727 1001 c 0
 499 1001 284 771 284 483 c 0xe8
228 -170 m 0xf0
 228 -271 275 -385 462 -385 c 0
 643 -385 849 -265 915 40 c 0
 930 109 937 171 937 228 c 1
 806 116 647 81 495 81 c 0
 267 81 155 288 155 493 c 0xe8
 155 817 433 1137 755 1137 c 0
 848 1137 948 1114 1017 1042 c 1
 1056 1104 1075 1197 1148 1197 c 0
 1175 1197 1203 1178 1203 1146 c 0
 1203 1130 1196 1117 1189 1107 c 2
 1130 994 l 1
 1111 890 1112 870 1051 156 c 0
 984 -445 572 -495 472 -495 c 0
 201 -495 111 -321 111 -205 c 0
 111 -124 157 -106 178 -106 c 0
 195 -106 225 -116 228 -170 c 0xf0
EndSplineSet
EndChar
StartChar: h
Encoding: 104 104 75
Width: 1147
VWidth: 3622
Flags: W
HStem: 957 123<701.518 1006.81>
VStem: 209 125<35 391.174> 1070 126<512.508 894.189>
Fore
663 1673 m 0
 684 1673 722 1664 722 1628 c 0
 722 1622 715 1601 714 1598 c 2
 531 913 l 1
 599 991 733 1080 868 1080 c 0
 1055 1080 1196 969 1196 768 c 0
 1196 614 1118 227 1081 46 c 0
 1076 28 1050 17 1022 17 c 0
 997 17 959 25 959 62 c 1
 1035 429 l 2
 1053 519 1070 629 1070 724 c 0
 1070 877 1016 957 868 957 c 0
 461 957 388 288 334 39 c 0
 329 5 289 3 279 3 c 0
 257 3 218 14 209 35 c 1
 327 682 462 1204 594 1636 c 0
 602 1659 631 1673 663 1673 c 0
EndSplineSet
EndChar
StartChar: i
Encoding: 105 105 76
Width: 590
VWidth: 3622
Flags: W
HStem: 12 21G<297.5 325.5> 1047 20G<542.5 566.5> 1187 342<552.621 715.819>
VStem: 459 358<1294.53 1438.28>
Fore
683 1529 m 0
 755 1529 817 1473 817 1402 c 0
 817 1343 730 1187 597 1187 c 0
 520 1187 459 1239 459 1323 c 0
 459 1437 578 1529 683 1529 c 0
555 1067 m 0
 578 1067 609 1053 609 1019 c 0
 609 1013 608 1007 607 1001 c 2
 393 78 l 2
 376 27 336 12 315 12 c 0
 280 12 260 37 260 76 c 1
 478 1001 l 2
 489 1053 530 1067 555 1067 c 0
EndSplineSet
EndChar
StartChar: j
Encoding: 106 106 77
Width: 590
VWidth: 3622
Flags: W
HStem: -479 138<-100.555 79.7388> 1187 350<581.47 740.65>
VStem: -253 145<-334.302 -125.387> 481 354<1281.19 1438.95> 501 132<960.117 1026.5>
Fore
-108 -246 m 2xe8
 -108 -319 -83 -341 -30 -341 c 0
 79 -341 237 -191 287 69 c 2
 501 991 l 2
 509 1036 551 1056 578 1056 c 0
 622 1056 633 1022 633 991 c 1
 419 69 l 2
 340 -357 82 -479 -46 -479 c 0
 -126 -479 -253 -436 -253 -239 c 0
 -253 -138 -204 -115 -172 -115 c 0
 -129 -115 -108 -136 -108 -177 c 2
 -108 -246 l 2xe8
700 1537 m 0
 785 1537 835 1464 835 1399 c 0
 835 1302 735 1187 623 1187 c 0
 535 1187 481 1262 481 1328 c 0xf0
 481 1430 598 1537 700 1537 c 0
EndSplineSet
EndChar
StartChar: k
Encoding: 107 107 78
Width: 1093
VWidth: 3622
Flags: MW
Fore
486 587 m 1
 1015 92 l 1
 1024 76 1027 63 1027 52 c 0
 1027 17 991 2 959 2 c 0
 953 2 947 3 941 4 c 1
 766 166 l 1
 530 395 l 2
 499 425 465 454 430 483 c 1
 340 46 l 1
 331 22 293 1 263 1 c 0
 239 1 219 13 219 46 c 1
 548 1567 l 1
 565 1606 588 1626 617 1626 c 0
 648 1626 665 1605 665 1569 c 0
 665 1561 664 1552 662 1542 c 2
 490 729 l 1
 808 906 914 965 1018 1028 c 2
 1141 1104 l 2
 1150 1109 1160 1112 1170 1112 c 0
 1202 1112 1233 1087 1233 1055 c 0
 1233 1040 1227 1024 1212 1008 c 1
 486 587 l 1
EndSplineSet
EndChar
StartChar: l
Encoding: 108 108 79
Width: 497
VWidth: 3622
Flags: MW
HStem: 1766 20G<590.5 617.5>
Fore
603 1786 m 0
 632 1786 654 1769 654 1736 c 0
 654 1731 654 1726 653 1721 c 2
 313 80 l 2
 297 34 265 18 233 18 c 256
 213 18 182 27 182 64 c 0
 182 69 183 76 184 83 c 2
 522 1725 l 1
 540 1770 578 1786 603 1786 c 0
EndSplineSet
EndChar
StartChar: m
Encoding: 109 109 80
Width: 1662
VWidth: 3622
Flags: W
HStem: 971 96<392.5 818.859> 971 115<672.258 865.207 1238.03 1438.54>
VStem: 203 131<21.4649 84.2614> 923 105<822 910.233> 1489 121<676.988 927.466>
Fore
801 42 m 0x78
 801 119 923 468 923 716 c 0
 923 831 893 971 771 971 c 0
 577 971 371 429 334 60 c 1
 325 24 279 7 254 7 c 0
 232 7 203 16 203 51 c 1
 204 58 204 58 210 85 c 2
 224 158 l 2
 230 192 239 239 252 299 c 2
 368 874 l 1
 368 923 329 950 329 996 c 0
 329 1031 371 1067 414 1067 c 0xb8
 482 1067 492 915 499 876 c 1
 552 974 632 1086 789 1086 c 0
 904 1086 1022 994 1028 822 c 1
 1118 1021 1222 1093 1351 1093 c 0
 1528 1093 1610 963 1610 798 c 0
 1610 734 1582 545 1550 398 c 2
 1477 53 l 2
 1470 21 1435 -1 1406 -1 c 0
 1379 -1 1364 15 1358 39 c 1
 1361 70 1369 113 1382 169 c 2
 1426 354 l 2
 1479 580 1489 674 1489 754 c 0
 1489 950 1394 982 1330 982 c 0
 1091 982 934 80 929 48 c 0
 923 20 887 3 855 3 c 0
 835 3 801 11 801 42 c 0x78
EndSplineSet
EndChar
StartChar: n
Encoding: 110 110 81
Width: 1123
VWidth: 3622
Flags: W
HStem: 957 106<685.143 938.649>
VStem: 986 129<702.354 909.332>
Fore
394 1063 m 0
 468 1063 482 944 490 883 c 1
 577 1026 685 1074 835 1074 c 0
 979 1074 1115 1018 1115 794 c 0
 1115 736 1103 648 1086 573 c 2
 978 60 l 1
 964 31 929 9 896 9 c 0
 877 9 854 17 854 48 c 0
 854 51 867 119 868 120 c 1
 962 577 l 1
 981 703 l 2
 984 725 986 746 986 767 c 0
 986 928 894 957 801 957 c 0
 509 957 383 246 338 64 c 0
 327 24 285 6 257 6 c 0
 237 6 205 14 205 57 c 1
 366 840 l 1
 366 882 311 948 311 992 c 0
 311 1028 353 1063 394 1063 c 0
EndSplineSet
EndChar
StartChar: o
Encoding: 111 111 82
Width: 1202
VWidth: 3622
Flags: W
HStem: 0 133<408.659 845.234> 968 122<589.856 973.784>
VStem: 146 134<252.085 611.349> 1117 135<428.476 825.193>
Fore
1252 676 m 0
 1252 442 1125 -0 580 0 c 0
 357 0 146 113 146 369 c 0
 146 574 281 1090 824 1090 c 0
 1088 1090 1252 925 1252 676 c 0
607 133 m 0
 1015 133 1117 424 1117 642 c 0
 1117 836 1001 968 799 968 c 0
 342 968 280 497 280 401 c 0
 280 211 435 133 607 133 c 0
EndSplineSet
EndChar
StartChar: p
Encoding: 112 112 83
Width: 1247
VWidth: 3622
Flags: W
HStem: -453 21G<46 69> 4 132<447.866 817.973> 957 126<698.739 974.453>
VStem: 1132 136<450.689 805.09>
Fore
1132 647 m 0
 1132 833 983 957 803 957 c 0
 636 957 459 868 398 734 c 1
 320 442 327 395 311 310 c 1
 358 204 492 142 635 136 c 0
 1004 161 1132 470 1132 647 c 0
1268 697 m 0
 1268 240 928 7 610 4 c 0
 460 4 355 26 271 119 c 1
 134 -400 l 2
 126 -441 81 -453 57 -453 c 0
 35 -453 4 -444 4 -403 c 1
 135 102 l 2
 245 547 274 732 274 854 c 0
 274 906 245 933 218 955 c 1
 214 965 212 974 212 983 c 0
 212 1011 241 1045 287 1045 c 0
 374 1045 401 935 403 911 c 1
 621 1076 797 1083 845 1083 c 0
 999 1083 1268 1006 1268 697 c 0
EndSplineSet
EndChar
StartChar: q
Encoding: 113 113 84
Width: 1278
VWidth: 3622
Flags: W
HStem: 2 132<418.9 838.332> 955 128<590.408 947.439>
VStem: 154 131<257.757 644.238>
Fore
285 416 m 0
 285 190 464 134 626 134 c 0
 756 134 895 182 996 288 c 1
 1098 699 l 1
 1098 840 942 955 769 955 c 0
 575 955 285 784 285 416 c 0
819 1083 m 0
 993 1083 1109 979 1187 890 c 1
 1223 938 1309 1015 1353 1015 c 0
 1393 1015 1410 1000 1410 979 c 0
 1410 953 1383 917 1343 890 c 0
 1302 856 1281 800 1213 591 c 0
 1147 391 1075 80 960 -435 c 1
 945 -473 908 -481 890 -481 c 0
 872 -481 833 -471 833 -432 c 0
 833 -429 846 -364 847 -359 c 2
 868 -268 l 2
 876 -229 887 -179 900 -120 c 2
 946 101 l 1
 868 47 781 2 612 2 c 0
 369 2 154 118 154 382 c 0
 154 870 487 1083 819 1083 c 0
EndSplineSet
EndChar
StartChar: r
Encoding: 114 114 85
Width: 850
VWidth: 3622
Flags: MW
HStem: 950 129<582.307 810.471>
VStem: 833 127<716.641 925.556>
Fore
347 1107 m 0
 381 1107 405 1088 405 1051 c 1
 402 1035 402 1030 396 998 c 2
 373 861 l 1
 448 980 583 1079 722 1079 c 0
 884 1074 960 1013 960 858 c 0
 960 710 865 561 708 561 c 0
 651 561 631 578 631 603 c 0
 631 731 833 624 833 833 c 0
 833 880 815 950 695 950 c 0
 538 950 408 730 302 311 c 2
 265 159 l 1
 235 48 l 2
 221 1 179 -14 156 -14 c 256
 130 -14 99 -4 99 34 c 0
 99 97 178 246 274 1045 c 0
 284 1092 321 1107 347 1107 c 0
EndSplineSet
EndChar
StartChar: s
Encoding: 115 115 86
Width: 840
VWidth: 3622
Flags: MW
HStem: -4 130<306.177 619.782> 964 130<437.946 746.473>
VStem: 214 134<693.674 874.897> 704 133<203.811 404.026> 796 134<741.045 914.912>
Fore
857 733 m 0
 837 733 796 747 796 801 c 0
 796 807 l 0
 796 870 767 964 585 964 c 0
 395 964 348 811 348 768 c 0
 348 584 837 642 837 343 c 0
 837 211 717 -4 421 -4 c 0
 203 -4 87 150 87 287 c 0
 92 366 140 379 161 379 c 0
 186 379 209 368 229 312 c 2
 250 250 l 2
 287 146 373 126 449 126 c 0
 652 126 704 252 704 310 c 0
 704 531 214 459 214 732 c 0
 214 949 387 1094 597 1094 c 0
 810 1094 930 961 930 844 c 0
 930 752 881 733 857 733 c 0
EndSplineSet
EndChar
StartChar: t
Encoding: 116 116 87
Width: 742
VWidth: 3622
Flags: MW
HStem: 27 136<453.052 575.287> 812 129<557.328 593.246 593.246 770.922>
VStem: 297 140<175.935 590.45>
Fore
215 916 m 0
 215 953 235 978 295 978 c 0
 337 978 402 966 426 957 c 1
 447 1022 466 1085 483 1148 c 2
 529 1317 l 2
 559 1423 584 1492 614 1511 c 0
 627 1522 651 1524 660 1524 c 0
 683 1524 719 1515 719 1488 c 0
 719 1467 688 1351 654 1250 c 2
 611 1120 l 2
 595 1071 577 1012 557 941 c 1
 723 941 777 915 777 877 c 0
 777 837 746 811 622 811 c 0
 588 811 588 812 565 812 c 0
 548 812 535 811 527 808 c 1
 481 594 437 386 437 287 c 0
 437 204 467 163 527 163 c 0
 625 163 632 357 718 357 c 0
 746 357 783 332 783 302 c 0
 783 290 721 78 568 38 c 0
 542 30 514 27 485 27 c 0
 372 27 297 89 297 278 c 0
 297 462 363 713 394 821 c 1
 325 839 215 836 215 916 c 0
EndSplineSet
EndChar
StartChar: u
Encoding: 117 117 88
Width: 1101
VWidth: 3622
Flags: W
HStem: 4 115<366.49 657.627> 1054 20G<1048 1082.5>
VStem: 203 128<155.421 338.705> 837 150<33.3687 185.259> 980 133<568.903 1048.9>
Fore
929 16 m 0xf0
 877 16 844 54 837 187 c 1xf0
 762 70 659 4 483 4 c 0
 289 -1 203 81 203 276 c 1
 341 1015 l 2
 347 1046 387 1061 416 1061 c 0
 437 1061 462 1055 462 1028 c 1
 410 770 l 2
 396 698 384 636 375 586 c 2
 352 460 l 2
 339 390 331 339 331 297 c 0
 331 188 346 119 528 119 c 0
 709 119 918 341 980 1012 c 0
 985 1059 1036 1074 1060 1074 c 0
 1105 1074 1113 1033 1113 1008 c 1xe8
 959 201 957 197 957 195 c 0
 957 141 987 121 987 76 c 0
 987 36 968 16 929 16 c 0xf0
EndSplineSet
EndChar
StartChar: v
Encoding: 118 118 89
Width: 1050
VWidth: 3622
Flags: W
HStem: 21 129<451.859 601.986> 1066 20G<1110.5 1159.5>
VStem: 315 133<909.84 932.523 932.523 1010>
Fore
314 947 m 0
 314 1015 342 1066 383 1066 c 0
 411 1066 434 1045 448 1010 c 1
 456 954 482 150 561 150 c 0
 588 150 681 315 708 363 c 1
 709 363 790 508 924 766 c 2
 1008 930 l 2
 1061 1040 1087 1086 1134 1086 c 0
 1185 1086 1191 1029 1187 1012 c 1
 1111 858 l 2
 1036 712 692 21 532 21 c 0
 373 21 374 456 315 918 c 0
 314 928 314 938 314 947 c 0
EndSplineSet
EndChar
StartChar: w
Encoding: 119 119 90
Width: 1623
VWidth: 3622
Flags: W
HStem: 5 140<465.692 601.637> 6 191<1134.89 1247.31> 1076 20G<426.5 445 1611 1631>
VStem: 334 126<177.315 878.851> 1569 120<360.664 1064.12>
Fore
460 518 m 0xb8
 460 284 487 145 547 145 c 0xb8
 624 145 775 409 929 842 c 0
 941 879 973 888 998 888 c 0
 1029 888 1044 874 1045 845 c 0
 1072 322 1130 197 1187 197 c 0
 1263 197 1377 426 1569 1063 c 0
 1575 1080 1598 1096 1624 1096 c 0
 1638 1096 1680 1089 1689 1028 c 1
 1420 214 1282 6 1180 6 c 0x78
 1082 6 1005 212 934 589 c 1
 775 150 587 5 500 5 c 0
 433 5 334 72 334 476 c 0
 334 705 369 964 380 1049 c 0
 384 1083 421 1086 432 1086 c 0
 458 1086 487 1073 499 1051 c 1
 467 786 460 625 460 518 c 0xb8
EndSplineSet
EndChar
StartChar: x
Encoding: 120 120 91
Width: 1036
VWidth: 3622
Flags: MW
HStem: 1078 20G<371.5 427>
Fore
983 70 m 0
 983 36 948 -2 907 -2 c 0
 888 -2 869 4 853 34 c 0
 847 45 755 196 692 313 c 2
 612 467 l 1
 469 324 l 2
 422 276 334 186 270 114 c 2
 198 30 l 2
 187 16 170 9 147 9 c 0
 128 9 94 17 94 50 c 0
 94 102 213 235 284 310 c 2
 480 515 l 2
 510 546 533 571 550 591 c 1
 440 767 455 777 340 976 c 0
 328 997 322 1015 322 1031 c 0
 322 1062 348 1098 395 1098 c 0
 459 1098 461 1054 506 971 c 2
 594 804 l 2
 620 755 640 716 653 686 c 1
 985 1049 l 1
 999 1058 1013 1063 1027 1063 c 0
 1059 1063 1085 1040 1085 1007 c 0
 1085 979 1043 928 917 788 c 2
 711 571 l 1
 787 414 982 83 982 83 c 1
 983 78 983 74 983 70 c 0
EndSplineSet
EndChar
StartChar: y
Encoding: 121 121 92
Width: 1057
VWidth: 3622
Flags: W
HStem: 1059 20G<330 349 1105 1130.5>
VStem: 225 937 278 125<582.42 1074.47>
Fore
273 -519 m 0xc0
 248 -519 225 -502 225 -477 c 0xc0
 225 -450 237 -441 269 -385 c 2
 541 87 l 1
 379 157 292 535 278 1014 c 0
 280 1054 316 1079 344 1079 c 0
 354 1079 391 1075 403 1022 c 1xa0
 427 527 501 271 603 209 c 1
 677 275 826 585 862 662 c 2
 1029 1022 l 2
 1054 1072 1095 1083 1115 1083 c 0
 1146 1083 1162 1065 1162 1037 c 0
 1162 1031 1161 1024 1159 1017 c 0
 1044 741 907 425 341 -483 c 0
 323 -505 300 -519 273 -519 c 0xc0
EndSplineSet
EndChar
StartChar: z
Encoding: 122 122 93
Width: 1144
VWidth: 3622
Flags: W
HStem: 7 117<423.533 803.139> 7 81<230 278.972 590.991 596.923 609.641 936> 932 105<405.743 1001.86>
Fore
1183 1060 m 1x60
 1223 1055 1254 1039 1254 1008 c 0
 1254 994 1247 964 1215 937 c 0
 1202 926 815 574 714 484 c 2
 484 288 l 2
 407 223 322 157 230 88 c 1x60
 241 88 258 90 280 94 c 2
 362 106 l 2
 471 122 538 124 582 124 c 0xa0
 775 124 892 111 968 99 c 1
 992 87 996 68 996 57 c 0
 996 34 975 3 936 0 c 1
 804 14 704 19 605 19 c 0
 431 19 366 7 170 7 c 0
 144 7 96 28 96 65 c 0
 96 84 107 103 129 120 c 2
 702 602 l 1
 1081 941 l 1
 1031 936 955 932 830 932 c 0
 465 932 366 949 366 1019 c 0
 366 1047 390 1069 423 1069 c 0
 449 1069 606 1037 771 1037 c 0
 838 1037 954 1044 1030 1050 c 2
 1183 1060 l 1x60
EndSplineSet
EndChar
StartChar: braceleft
Encoding: 123 123 94
Width: 753
VWidth: 3622
Flags: W
HStem: -354 113<433.829 578.866> 1482 108<745.669 977.733>
VStem: 253 117<-167.012 343.978> 306 112<127.73 537.406>
Fore
306 428 m 256xd0
 306 540 218 547 218 608 c 0
 218 649 246 691 301 713 c 0
 399 747 444 1040 469 1146 c 0
 559 1559 833 1590 912 1590 c 0
 965 1590 979 1554 979 1536 c 0
 979 1517 963 1482 906 1482 c 0
 606 1482 582 1144 540 976 c 0
 533 951 477 734 377 628 c 1
 408 579 418 538 418 473 c 0xd0
 418 328 370 221 370 30 c 0
 370 -138 434 -241 529 -241 c 0
 577 -241 610 -244 610 -285 c 0
 610 -318 578 -354 524 -354 c 0
 307 -354 253 -136 253 -4 c 0xe0
 253 178 306 327 306 428 c 256xd0
EndSplineSet
EndChar
StartChar: bar
Encoding: 124 124 95
Width: 504
VWidth: 3622
Flags: W
Fore
222 -67 m 0
 191 -67 183 -35 183 -9 c 0
 183 15 353 750 438 1160 c 2
 642 2138 l 2
 650 2196 693 2202 708 2202 c 0
 726 2202 761 2192 761 2154 c 0
 761 2047 678 1745 607 1412 c 2
 439 626 l 2
 306 41 304 -67 222 -67 c 0
EndSplineSet
EndChar
StartChar: braceright
Encoding: 125 125 96
Width: 753
VWidth: 3622
Flags: MW
HStem: -354 115<29.7582 154.627> 1481 109<462.002 469.339 465.67 631.354>
VStem: 621 108<706.449 1101.11> 686 117<1029.82 1427.49>
Fore
405 1512 m 0
 405 1588 479 1590 538 1590 c 0
 717 1590 803 1456 803 1291 c 0
 803 1183 729 965 729 792 c 0
 729 663 814 710 814 642 c 0
 814 602 779 562 739 543 c 1
 565 491 631 51 373 -222 c 0
 251 -352 122 -354 80 -354 c 0
 32 -354 25 -320 25 -306 c 0
 25 -281 45 -239 113 -239 c 0
 335 -239 442 69 483 265 c 0
 541 462 546 553 654 626 c 1
 629 665 621 722 621 785 c 0
 621 987 686 1151 686 1270 c 0
 686 1399 653 1474 488 1482 c 0
 473 1482 459 1481 451 1481 c 0
 408 1481 405 1498 405 1512 c 0
EndSplineSet
EndChar
StartChar: asciitilde
Encoding: 126 126 97
Width: 981
VWidth: 3622
Flags: MW
HStem: 801 112<649.51 931.912> 869 110<408.167 673.987>
Fore
298 842 m 0
 298 864 372 979 520 979 c 0
 644 979 726 913 819 913 c 0
 895 913 907 962 958 962 c 0
 994 962 1002 928 1002 913 c 0
 1002 845 858 801 803 801 c 0
 704 801 565 869 506 869 c 0
 427 869 401 795 347 795 c 0
 318 795 298 823 298 842 c 0
EndSplineSet
EndChar
StartChar: Euro
Encoding: 8364 8364 98
Width: 1749
VWidth: 3622
Flags: W
HStem: -4 126<896.573 1482.74> 559 133<158.605 355.104 513 949 949 1385 1417 1460.86> 1042 136<262.287 384.5 384.5 449 656 1572.23> 1638 138<1159.21 1679.69>
VStem: 382 131<391.616 548.446>
Fore
1143 -4 m 0
 757 -4 422 174 382 559 c 1
 218 559 l 2
 156 559 147 593 147 610 c 0
 147 632 161 684 244 692 c 2
 368 700 l 1
 372 751 404 932 449 1042 c 1
 397 1042 372 1045 320 1045 c 0
 258 1045 250 1084 250 1101 c 0
 250 1128 277 1182 348 1182 c 2
 520 1178 l 1
 655 1474 980 1776 1454 1776 c 0
 1606 1776 1794 1741 1972 1636 c 0
 1994 1619 2009 1596 2009 1570 c 0
 2009 1534 1968 1490 1924 1490 c 0
 1874 1490 1702 1638 1420 1638 c 0
 1253 1638 889 1584 656 1178 c 1
 1512 1171 l 2
 1573 1171 1583 1131 1583 1115 c 0
 1583 1084 1554 1035 1484 1035 c 2
 585 1042 l 1
 542 929 504 763 501 699 c 1
 1417 706 l 1
 1477 696 1480 660 1480 649 c 0
 1480 623 1457 573 1385 573 c 2
 513 562 l 1
 579 230 902 122 1194 122 c 0
 1491 122 1612 221 1643 221 c 0
 1670 221 1693 191 1693 154 c 0
 1693 115 1668 106 1668 106 c 1
 1524 41 1342 -4 1143 -4 c 0
EndSplineSet
EndChar
StartChar: quotesinglbase
Encoding: 8218 8218 99
Width: 456
VWidth: 3622
Flags: MW
HStem: -48 95<192.326 247.471> 159 101<212.616 311.804>
VStem: 86 104<55.9126 153.429> 312 107<79.6875 147.905>
Fore
419 123 m 0
 419 -25 138 -343 53 -343 c 0
 15 -343 8 -320 8 -304 c 0
 8 -265 89 -221 196 -104 c 2
 248 -46 l 1
 242 -47 237 -48 232 -48 c 2
 216 -48 l 2
 153 -48 86 -10 86 68 c 0
 86 160 183 260 288 260 c 0
 362 260 419 203 419 123 c 0
262 159 m 0
 239 159 190 145 190 91 c 0
 190 75 198 47 228 47 c 0
 276 47 312 99 312 118 c 0
 312 132 296 159 262 159 c 0
EndSplineSet
EndChar
StartChar: florin
Encoding: 402 402 100
Width: 1383
VWidth: 3622
Flags: W
HStem: -173 120<96.7829 305.472> 911 108<478.863 768 929 1254.14> 1580 120<1262.05 1543.9>
VStem: 768 132<379.608 911>
Fore
-2 -98 m 0
 -2 -57 67 -26 80 -26 c 0
 95 -26 127 -53 179 -53 c 0
 303 -53 408 -18 530 196 c 0
 620 356 699 594 768 911 c 1
 516 911 l 2
 489 911 476 926 476 957 c 0
 479 997 502 1018 543 1019 c 2
 803 1019 l 1
 869 1253 1037 1700 1436 1700 c 0
 1524 1700 1611 1687 1611 1637 c 0
 1611 1619 1597 1561 1544 1561 c 0
 1522 1561 1475 1580 1419 1580 c 0
 1126 1580 985 1197 929 1019 c 1
 1205 1019 l 2
 1240 1019 1257 1005 1257 977 c 0
 1257 948 1242 911 1182 911 c 2
 900 911 l 1
 810 532 636 -66 308 -154 c 0
 269 -165 231 -171 195 -173 c 0
 122 -173 -2 -173 -2 -98 c 0
EndSplineSet
EndChar
StartChar: quotedblbase
Encoding: 8222 8222 101
Width: 971
VWidth: 3622
Flags: W
HStem: -48 94<195.088 250.048 656.169 713.631> 160 100<197.09 300.478 675.294 764.449>
VStem: 87 106<56.7728 157.223> 313 110<76.1808 157.996> 551 104<56.7873 155.333> 777 107<74.3054 158.674>
Fore
291 260 m 0
 360 260 423 208 423 123 c 0
 423 50 354 -92 196 -240 c 2
 108 -322 l 2
 87 -345 68 -347 58 -347 c 0
 31 -347 14 -331 14 -309 c 0
 14 -280 38 -254 69 -228 c 2
 159 -144 l 2
 193 -110 224 -78 251 -46 c 1
 245 -47 240 -48 235 -48 c 2
 219 -48 l 2
 144 -48 87 -0 87 71 c 0
 87 149 176 260 291 260 c 0
255 160 m 0
 219 160 193 126 193 92 c 0
 193 72 203 46 240 46 c 0
 296 46 313 111 313 121 c 0
 313 153 276 160 255 160 c 0
753 260 m 0
 827 260 884 203 884 123 c 0
 884 6 750 -152 668 -229 c 2
 591 -302 l 2
 547 -338 528 -345 513 -345 c 0
 484 -345 469 -314 469 -300 c 0
 469 -267 591 -190 715 -44 c 1
 705 -46 695 -48 681 -48 c 0
 618 -48 551 -10 551 68 c 0
 551 171 665 260 753 260 c 0
718 160 m 0
 692 160 655 136 655 92 c 0
 655 67 671 46 703 46 c 0
 757 46 777 107 777 118 c 0
 777 152 737 160 718 160 c 0
EndSplineSet
EndChar
StartChar: ellipsis
Encoding: 8230 8230 102
Width: 2608
VWidth: 3622
Flags: W
HStem: -4 218<397.871 541.439 1226.02 1368.53 2059.02 2202.21>
VStem: 359 225<38.1622 174.875> 1187 223<36.75 174.875> 2020 225<39.3201 174.875>
Fore
359 84 m 0
 359 153 430 214 495 214 c 0
 543 214 584 172 584 126 c 0
 584 62 509 -4 449 -4 c 0
 391 -4 359 39 359 84 c 0
1187 84 m 0
 1187 153 1259 214 1321 214 c 0
 1371 214 1410 172 1410 127 c 0
 1410 61 1338 -4 1275 -4 c 0
 1218 -4 1187 42 1187 84 c 0
2020 84 m 0
 2020 153 2092 214 2154 214 c 0
 2205 214 2245 172 2245 126 c 0
 2245 62 2170 -4 2108 -4 c 0
 2051 -4 2020 42 2020 84 c 0
EndSplineSet
EndChar
StartChar: dagger
Encoding: 8224 8224 103
Width: 1383
VWidth: 3622
Flags: W
HStem: 1038 144<377.871 554.585 554.585 584.399 584.399 815> 1060 127<989 1212.7>
Fore
421 1038 m 0x80
 378 1038 368 1070 368 1090 c 0
 368 1117 388 1164 440 1171 c 0
 593 1176 677 1182 789 1182 c 2
 845 1182 l 1x80
 952 1677 l 2
 956 1724 1004 1748 1035 1748 c 0
 1066 1748 1096 1731 1096 1696 c 0
 1096 1690 1095 1683 1093 1675 c 2
 989 1187 l 1
 1102 1187 l 2
 1394 1187 1417 1158 1417 1114 c 0
 1417 1071 1375 1044 1348 1044 c 0
 1309 1044 1204 1060 959 1060 c 1x40
 741 -46 l 1
 724 -85 697 -105 661 -105 c 0
 640 -105 603 -96 603 -62 c 0
 603 -58 604 -53 605 -48 c 2
 815 1051 l 1
 647 1044 553 1038 421 1038 c 0x80
EndSplineSet
EndChar
StartChar: daggerdbl
Encoding: 8225 8225 104
Width: 1383
VWidth: 3622
Flags: W
HStem: 435 106<324 559.196> 443 128<432.418 483.419 483.419 638.253 638.253 656.595 656.595 711.802 876 899.375 899.375 945.469 922.422 1146.8> 1060 145<403.78 494.2 494.2 686.494 686.494 785.685 785.685 835> 1083 125<1008.27 1068.16 1038.22 1307.95>
VStem: 971 142<1664.66 1758.95>
Fore
621 -41 m 0x58
 621 -24 712 438 713 444 c 1
 667 446 682 446 560 446 c 0
 546 446 328 435 328 435 c 2
 296 435 287 466 287 486 c 0
 287 510 299 538 324 541 c 0
 461 557 544 559 599 559 c 0
 661 559 660 556 729 561 c 1
 781 816 l 2
 797 898 815 984 835 1074 c 1
 806 1073 773 1072 736 1072 c 0
 647 1072 498 1071 440 1060 c 1
 398 1060 387 1091 387 1111 c 0
 387 1135 403 1186 458 1194 c 0
 646 1200 697 1205 808 1205 c 2
 865 1205 l 1xa8
 971 1698 l 2
 977 1746 1023 1769 1052 1769 c 0
 1089 1769 1113 1751 1113 1698 c 1
 1008 1208 l 1
 1053 1208 1090 1210 1128 1210 c 0
 1310 1210 1433 1196 1438 1150 c 0
 1438 1120 1421 1065 1369 1065 c 0
 1278 1065 1153 1083 1036 1083 c 0
 1014 1083 994 1082 976 1081 c 1
 876 571 l 1
 945 571 986 572 1013 572 c 0
 1145 572 1279 558 1279 501 c 0
 1279 471 1251 426 1194 426 c 0
 1059 426 1015 443 923 443 c 0
 899 443 875 442 851 440 c 1
 759 -27 l 1
 744 -58 704 -84 667 -84 c 0
 647 -84 621 -76 621 -41 c 0x58
EndSplineSet
EndChar
StartChar: circumflex
Encoding: 710 710 105
Width: 1162
VWidth: 3622
Flags: MW
HStem: 1637 337 1861 113<875.572 977.732>
Fore
1233 1681 m 0
 1233 1654 1204 1637 1172 1637 c 0
 1147 1637 1126 1646 1114 1661 c 2
 1022 1781 l 2
 972 1853 959 1861 936 1861 c 0
 904 1861 869 1840 778 1767 c 2
 660 1672 l 2
 643 1660 624 1649 599 1649 c 0
 574 1649 559 1662 559 1686 c 0
 559 1700 567 1715 584 1732 c 2
 735 1850 l 2
 863 1946 918 1974 963 1974 c 0
 1026 1974 1074 1921 1133 1837 c 2
 1228 1702 l 1
 1231 1694 1233 1687 1233 1681 c 0
EndSplineSet
EndChar
StartChar: perthousand
Encoding: 8240 8240 106
Width: 2228
VWidth: 3622
Flags: W
HStem: 103 118<1135 1343.32 1749.99 1959.9> 529 124<1179.12 1392.78 1791.33 2004.75> 923 119<635.292 852.8> 1350 122<678.575 893.477>
VStem: 485 123<1068.89 1279.25> 922 111<1112.34 1322.87> 980 126<247.772 458.744> 1417 116<294.607 505.133> 1595 126<248.086 461.402> 2033 112<296.18 502.292>
Fore
1452 1561 m 0xf9c0
 1480 1561 1507 1542 1507 1514 c 0
 1507 1506 1505 1497 1500 1488 c 2
 603 35 l 2
 585 6 550 -11 519 -11 c 0
 483 -11 470 13 470 29 c 0
 470 42 477 60 492 81 c 2
 1390 1528 l 2
 1411 1558 1439 1561 1452 1561 c 0xf9c0
1033 1251 m 0xfdc0
 1033 1096 894 923 711 923 c 0
 565 923 485 1021 485 1146 c 0
 485 1286 619 1472 828 1472 c 0
 964 1472 1033 1375 1033 1251 c 0xfdc0
741 1042 m 0
 849 1042 922 1151 922 1217 c 0
 922 1282 883 1350 807 1350 c 0
 693 1350 608 1264 608 1167 c 0
 608 1106 645 1042 741 1042 c 0
1533 436 m 0
 1533 279 1403 103 1208 103 c 256
 1041 103 980 223 980 325 c 0xfbc0
 980 464 1111 653 1325 653 c 0
 1457 653 1533 554 1533 436 c 0
1236 221 m 0
 1339 221 1417 326 1417 400 c 0
 1417 450 1394 529 1302 529 c 0
 1194 529 1106 445 1106 347 c 0
 1106 285 1144 221 1236 221 c 0
2145 429 m 0
 2145 274 2010 103 1822 103 c 0
 1640 103 1595 239 1595 325 c 0
 1595 460 1725 653 1939 653 c 0
 2075 653 2145 552 2145 429 c 0
1850 221 m 0
 1954 221 2033 328 2033 400 c 0
 2033 467 1991 529 1916 529 c 0
 1798 529 1721 438 1721 345 c 0
 1721 287 1757 221 1850 221 c 0
EndSplineSet
EndChar
StartChar: guilsinglleft
Encoding: 8249 8249 108
Width: 677
VWidth: 3622
Flags: MW
HStem: 978 119<553.844 856.141>
VStem: 248 131<562.532 718.062> 248 628
Fore
876 1061 m 0
 876 1041 856 998 798 978 c 0
 550 906 379 675 379 653 c 0
 379 580 475 400 640 352 c 0
 676 340 688 316 688 293 c 0
 688 260 659 229 620 229 c 0
 550 229 357 333 274 538 c 0
 256 580 248 615 248 642 c 0
 248 716 491 1012 805 1097 c 1
 841 1097 876 1097 876 1061 c 0
EndSplineSet
EndChar
StartChar: OE
Encoding: 338 338 109
Width: 2509
VWidth: 3622
Flags: W
HStem: 7 135<687.458 1402.15> 34 118<1846.62 2312.35> 55 122<1576 1672.56> 874 128<1767 1791.08 1791.08 1808.09 1808.09 1924.51 1924.51 2147.32 2147.32 2435.27> 1641 130<1921.2 2600.69 2400.41 2621.2> 1657 137<1050.7 1526.77>
VStem: 258 134<422.523 843.941>
Fore
2324 865 m 0x1a
 2172 865 2163 874 1903 874 c 2
 1816 874 l 2
 1793 874 1768 873 1742 870 c 1
 1576 177 l 1x3a
 1805 160 l 2
 1875 155 1945 152 2015 152 c 0
 2127 152 2240 159 2388 180 c 0
 2451 180 2457 140 2457 126 c 0
 2457 53 2295 34 2107 34 c 0x52
 1943 34 1667 55 1473 55 c 0x32
 1339 55 1087 7 867 7 c 0
 489 7 258 257 258 615 c 0
 258 930 403 1318 692 1558 c 0
 939 1763 1200 1794 1332 1794 c 0x96
 1609 1794 1685 1719 1723 1687 c 1
 1722 1689 1722 1691 1722 1693 c 0
 1722 1696 1723 1698 1723 1705 c 1
 1738 1765 1796 1771 2226 1771 c 0
 2784 1771 2810 1743 2810 1703 c 0
 2810 1669 2786 1633 2731 1618 c 1
 2506 1632 l 2
 2405 1638 2286 1641 2176 1641 c 0
 2082 1641 1987 1638 1900 1631 c 1
 1818 1231 l 2
 1804 1163 1790 1095 1767 1005 c 1
 1799 1003 1821 1002 1849 1002 c 0
 1883 1002 1925 1003 2002 1003 c 0
 2377 1003 2453 1002 2453 946 c 0
 2453 913 2406 865 2324 865 c 0x1a
392 655 m 0
 392 314 604 142 944 142 c 0
 1189 142 1248 143 1436 191 c 1
 1692 1285 l 2
 1705 1340 1714 1385 1718 1417 c 1
 1652 1608 1448 1657 1291 1657 c 0x96
 941 1657 535 1409 417 868 c 256
 400 790 392 719 392 655 c 0
EndSplineSet
EndChar
StartChar: quoteleft
Encoding: 8216 8216 110
Width: 626
VWidth: 3622
Flags: W
HStem: 992 101<492.939 604.594> 1480 20G<644 664>
VStem: 380 112<1102.22 1180.47> 610 105<1097.44 1204.95>
Fore
509 992 m 0
 426 992 380 1044 380 1121 c 0
 380 1281 507 1367 605 1482 c 1
 622 1494 637 1500 651 1500 c 0
 677 1500 695 1475 695 1457 c 0
 695 1414 613 1377 554 1298 c 1
 559 1299 565 1300 570 1300 c 0
 612 1300 715 1298 715 1185 c 0
 715 1108 634 992 509 992 c 0
543 1093 m 256
 585 1093 610 1126 610 1160 c 0
 610 1205 580 1205 562 1205 c 0
 513 1205 492 1160 492 1134 c 0
 492 1121 498 1093 543 1093 c 256
EndSplineSet
EndChar
StartChar: quoteright
Encoding: 8217 8217 111
Width: 626
VWidth: 3622
Flags: W
HStem: 1192 94<558.341 610.264> 1400 101<565.035 676.232>
VStem: 452 106<1295.39 1394.33> 678 112<1292.95 1398.87>
Back
633 1450 m 0
 642.333 1434.67 652.667 1416.5 664 1395.5 c 128
 675.333 1374.5 685.167 1350.67 693.5 1324 c 128
 701.833 1297.33 706.5 1268.33 707.5 1237 c 128
 708.5 1205.67 703.333 1173 692 1139 c 1
 693 1141 l 1
 677.667 1095 651.5 1057.83 614.5 1029.5 c 128
 577.5 1001.17 535.333 988.667 488 992 c 0
 466 994.667 446.667 1001 430 1011 c 128
 413.333 1021 399.667 1033 389 1047 c 128
 378.333 1061 371 1076.33 367 1093 c 128
 363 1109.67 362 1126.67 364 1144 c 0
 378.667 1196 406.833 1237.33 448.5 1268 c 128
 490.167 1298.67 537 1308.67 589 1298 c 1
 579.667 1320.67 569 1340.17 557 1356.5 c 128
 545 1372.83 534 1389.33 524 1406 c 1
 525 1406 l 1
 518.333 1420 517.667 1434.17 523 1448.5 c 128
 528.333 1462.83 537.167 1473.5 549.5 1480.5 c 128
 561.833 1487.5 576 1489.17 592 1485.5 c 128
 608 1481.83 621.667 1470 633 1450 c 0
467 1143 m 0
 463.667 1126.33 466.667 1113.33 476 1104 c 128
 485.333 1094.67 498.333 1091 515 1093 c 0
 537 1095.67 553.667 1102.83 565 1114.5 c 128
 576.333 1126.17 583 1138 585 1150 c 0
 587.667 1164 585.167 1177.17 577.5 1189.5 c 128
 569.833 1201.83 556.667 1207 538 1205 c 1
 520 1207 504.5 1201.83 491.5 1189.5 c 128
 478.5 1177.17 470.333 1161.67 467 1143 c 0
EndSplineSet
Fore
667 1501 m 0
 584 1501 452 1425 452 1300 c 0
 452 1213 528 1192 575 1192 c 0
 594 1192 596 1192 611 1194 c 1
 536 1102 463 1082 463 1032 c 0
 463 1010 476 991 505 991 c 0
 541 991 573 1031 585 1042 c 0
 598 1054 790 1215 790 1375 c 0
 790 1448 748 1501 667 1501 c 0
678 1356 m 0
 678 1326 649 1286 604 1286 c 0
 569 1286 558 1306 558 1328 c 0
 558 1371 592 1400 624 1400 c 0
 657 1400 678 1383 678 1356 c 0
EndSplineSet
EndChar
StartChar: quotedblleft
Encoding: 8220 8220 112
Width: 937
VWidth: 3622
Flags: W
HStem: 982 101<491.191 591.388 838.231 952.572> 1194 95<553.201 606.205 903.189 958.473> 1470 20G<981 1002.5>
VStem: 379 111<1094.34 1189.39> 609 106<1086.9 1192.73> 729 109<1103.84 1195.28> 959 102<1116.04 1193.59>
Fore
856 992 m 0
 779 992 729 1036 729 1106 c 0
 729 1267 849 1389 930 1463 c 0
 957 1487 975 1490 987 1490 c 0
 1018 1490 1026 1468 1026 1453 c 0
 1026 1396 946 1365 902 1298 c 1
 912 1300 923 1301 933 1301 c 0
 991 1301 1061 1266 1061 1183 c 0
 1061 1100 974 992 856 992 c 0
890 1093 m 0
 937 1093 959 1136 959 1161 c 0
 959 1175 950 1205 916 1205 c 0
 872 1205 838 1174 838 1136 c 0
 838 1123 843 1093 890 1093 c 0
691 1451 m 0
 691 1402 625 1372 552 1289 c 1
 647 1289 715 1265 715 1171 c 0
 715 1091 627 982 508 982 c 0
 422 982 379 1038 379 1111 c 256
 379 1224 462 1332 522 1392 c 2
 582 1450 l 2
 619 1480 642 1483 657 1483 c 0
 684 1483 691 1465 691 1451 c 0
545 1083 m 0
 571 1083 609 1101 609 1143 c 0
 609 1177 591 1194 557 1194 c 0
 516 1194 490 1156 490 1128 c 0
 490 1117 495 1083 545 1083 c 0
EndSplineSet
EndChar
StartChar: quotedblright
Encoding: 8221 8221 113
Width: 937
VWidth: 3622
Flags: W
HStem: 1210 94<532.002 569.565 869.125 917.02> 1418 101<521.928 623.843 873.182 977.044>
VStem: 411 103<1305.39 1411.22> 634 114<1310.25 1417.17> 763 104<1323.42 1404.24> 989 110<1326.25 1426.93>
Fore
625 1519 m 0
 723 1519 748 1447 748 1397 c 0
 748 1338 729 1244 587 1102 c 2
 511 1029 l 1
 492 1016 476 1009 462 1009 c 0
 437 1009 420 1026 420 1050 c 0
 420 1072 431 1083 433 1086 c 1
 508 1152 l 2
 529 1169 549 1189 570 1212 c 1
 564 1211 560 1210 556 1210 c 2
 534 1210 l 2
 472 1210 411 1242 411 1317 c 0
 411 1439 539 1519 625 1519 c 0
583 1418 m 0
 544 1418 514 1383 514 1345 c 0
 514 1318 533 1304 561 1304 c 0
 608 1304 634 1340 634 1373 c 0
 634 1409 607 1418 583 1418 c 0
978 1529 m 0
 1075 1529 1099 1457 1099 1407 c 0
 1099 1225 883 1023 811 1023 c 0
 780 1023 772 1058 772 1068 c 0
 772 1077 775 1086 782 1093 c 2
 862 1164 l 2
 882 1183 901 1201 918 1220 c 1
 886 1220 l 2
 812 1220 763 1265 763 1333 c 0
 763 1426 864 1529 978 1529 c 0
931 1428 m 0
 878 1428 867 1368 867 1352 c 0
 867 1339 872 1315 910 1315 c 0
 961 1315 989 1357 989 1385 c 0
 989 1421 956 1428 931 1428 c 0
EndSplineSet
EndChar
StartChar: bullet
Encoding: 8226 8226 114
Width: 1174
VWidth: 3622
Flags: W
HStem: 150 98<662.36 838.82> 195 99<312.651 459.799> 441 64<608.295 695.011> 590 62<603.003 688.886> 828 104<889.853 1032.17> 874 101<506.106 671.628>
VStem: 195 101<307.979 482.962> 359 96<654.413 823.545> 537 63<512.379 555.346> 696 64<520.197 582.337> 892 110<300.977 471.568> 1053 110<622.63 808.109>
Fore
1002 399 m 0x3bf0
 1002 262 834 150 709 150 c 0xbbf0
 682 150 577 154 552 276 c 1
 487 222 426 195 368 195 c 0
 254 195 195 292 195 385 c 0
 195 445 226 575 386 616 c 1
 371 645 359 681 359 724 c 0
 359 867 511 975 642 975 c 0x77f0
 768 975 796 904 799 837 c 1
 849 884 917 932 996 932 c 0
 1096 932 1163 847 1163 745 c 0
 1163 647 1093 549 973 499 c 1
 987 475 1002 441 1002 399 c 0x3bf0
701 707 m 0
 701 720 708 740 708 773 c 0
 708 862 639 874 608 874 c 0
 532 874 455 799 455 736 c 0
 455 666 508 641 508 612 c 0
 508 579 489 534 446 529 c 0
 371 514 296 474 296 394 c 0
 296 349 326 294 391 294 c 0x77f0
 420 294 471 306 534 384 c 1
 539 394 556 419 589 419 c 0
 606 419 636 413 636 388 c 0
 636 322 669 248 732 248 c 0
 812 248 892 323 892 394 c 0
 892 471 844 464 844 516 c 0
 844 534 847 553 902 561 c 1
 1003 594 1053 655 1053 718 c 0
 1053 772 1011 828 952 828 c 0
 923 828 865 813 808 715 c 0
 790 686 770 671 746 671 c 0
 728 671 701 678 701 707 c 0
537 513 m 0
 537 545 562 652 664 652 c 0
 726 652 760 608 760 564 c 0
 760 530 727 441 614 441 c 0
 570 441 537 470 537 513 c 0
658 590 m 0
 624 590 600 555 600 536 c 0
 600 524 616 505 634 505 c 0
 682 505 696 540 696 556 c 0
 696 576 680 590 658 590 c 0
EndSplineSet
EndChar
StartChar: endash
Encoding: 8211 8211 115
Width: 1561
VWidth: 3622
Flags: W
HStem: 718 117<204.31 965.935> 734 117<1069.54 1586.13 1586.13 1673.98>
Fore
1634 732 m 0x40
 1624 732 1595 734 1536 734 c 2
 1436 734 l 2x40
 1000 734 913 718 564 718 c 256
 175 718 171 739 171 784 c 0
 171 817 197 856 235 856 c 0
 240 856 378 835 642 835 c 0x80
 927 835 1130 851 1456 851 c 2
 1558 851 l 2
 1667 851 1713 847 1713 801 c 0
 1713 768 1679 732 1634 732 c 0x40
EndSplineSet
EndChar
StartChar: emdash
Encoding: 8212 8212 116
Width: 3125
VWidth: 3622
Flags: W
HStem: 729 115<3027.28 3154> 729 120<213.75 328.372 328.372 333.226 330.799 1519.82 1277.54 1762.1 1762.1 2364.94 2063.52 3063.09>
Fore
256 861 m 0x40
 276 861 303 849 918 849 c 0x40
 1437 849 2147 858 2506 858 c 0
 2775 858 3045 853 3179 844 c 1
 3196 828 3204 812 3204 797 c 0
 3204 771 3177 743 3154 729 c 1x80
 2992 735 2773 738 2572 738 c 0
 2443 738 2305 737 2157 736 c 2
 1705 732 l 2
 1280 732 1194 729 854 729 c 0
 540 729 351 731 226 741 c 0
 214 743 180 748 180 786 c 0
 180 825 222 861 256 861 c 0x40
EndSplineSet
EndChar
StartChar: tilde
Encoding: 732 732 117
Width: 781
VWidth: 3622
Flags: MW
HStem: 1493 113<720.46 1037.75> 1564 109<434.652 715.989>
Fore
322 1534 m 0
 322 1572 422 1673 582 1673 c 0
 747 1673 753 1606 899 1606 c 0
 1001 1606 981 1649 1051 1649 c 0
 1079 1649 1103 1639 1103 1614 c 0
 1103 1581 1023 1493 872 1493 c 256
 721 1493 652 1564 545 1564 c 0
 441 1564 434 1489 373 1489 c 0
 345 1489 322 1511 322 1534 c 0
EndSplineSet
EndChar
StartChar: trademark
Encoding: 8482 8482 118
Width: 1862
VWidth: 3622
Flags: W
HStem: 1358 121<511.241 644 757 789.362 789.362 817.038 803.2 941.165 899.893 982.438 1198.7 1248.11>
Fore
980 1357 m 0
 869 1359 885 1362 822 1362 c 0
 799 1362 774 1360 757 1358 c 1
 726 1249 648 917 623 806 c 2
 580 617 l 2
 573 585 535 559 506 559 c 0
 473 559 456 573 456 600 c 0
 456 603 524 892 545 975 c 2
 644 1358 l 1
 541 1358 515 1346 386 1346 c 0
 356 1346 341 1362 341 1394 c 0
 341 1445 367 1479 759 1479 c 0
 827 1479 850 1480 873 1480 c 0
 973 1480 1033 1471 1033 1438 c 0
 1033 1368 990 1357 980 1357 c 0
1783 1484 m 256
 1826 1484 1831 1410 1831 1374 c 0
 1831 1293 1818 1260 1746 766 c 2
 1730 663 l 2
 1720 601 1728 536 1650 536 c 0
 1618 536 1592 548 1592 566 c 0
 1592 577 1721 1310 1721 1348 c 1
 1631 1294 1467 1034 1424 904 c 0
 1408 843 1373 835 1360 835 c 0
 1327 835 1311 857 1311 902 c 0
 1311 1060 1271 1358 1210 1358 c 0
 1209 1358 1194 1344 1140 1126 c 2
 1080 878 l 2
 1058 785 1036 686 1014 582 c 1
 1010 575 996 543 945 543 c 0
 903 543 896 566 893 584 c 1
 1071 1392 1165 1484 1233 1484 c 0
 1307 1484 1397 1349 1426 1150 c 1
 1541 1338 1725 1484 1783 1484 c 256
EndSplineSet
EndChar
StartChar: guilsinglright
Encoding: 8250 8250 120
Width: 677
VWidth: 3622
Flags: MW
HStem: 265 121<122.064 413.719>
VStem: 136 602 606 132<627.161 809.831>
Fore
136 317 m 0
 136 332 151 370 212 386 c 0
 424 442 606 654 606 705 c 0
 606 756 505 949 318 1015 c 0
 283 1030 268 1055 268 1082 c 0
 268 1116 298 1139 332 1139 c 0
 462 1139 738 894 738 715 c 0
 738 604 434 317 196 265 c 1
 141 265 136 307 136 317 c 0
EndSplineSet
EndChar
StartChar: oe
Encoding: 339 339 121
Width: 2492
VWidth: 3622
Flags: W
HStem: -4 151<508.11 997.661 1675.26 2107.86> 608 160<1560.29 1953 2138 2306.6> 640 117<1958.43 2223.78 2223.78 2481.97> 1159 136<733.962 1168.56 1899.42 2296.75>
VStem: 189 152<304.369 696.878> 1354 154<502.808 605.938> 2486 148<770.471 966.116>
Fore
2140 1291 m 0xde
 2477 1291 2634 1062 2634 875 c 0
 2634 796 2602 713 2572 679 c 0
 2548 653 2517 640 2480 640 c 0xbe
 2348 640 1904 642 1523 608 c 1
 1513 564 1508 521 1508 479 c 0
 1508 247 1673 150 1905 150 c 0
 1991 150 2226 193 2370 405 c 1
 2387 420 2405 428 2425 428 c 0
 2466 428 2495 403 2495 362 c 0
 2495 342 2485 319 2464 294 c 1
 2464 295 l 1
 2320 106 2069 0 1873 0 c 0
 1566 0 1428 152 1373 329 c 1
 1240 126 1014 -4 702 -4 c 0
 503 -4 189 85 189 439 c 0
 189 654 335 1295 998 1295 c 0
 1280 1295 1448 1133 1491 923 c 1
 1726 1254 1986 1291 2140 1291 c 0xde
341 469 m 0
 341 340 416 147 734 147 c 0
 1256 147 1354 530 1354 759 c 0
 1354 1005 1198 1159 969 1159 c 0
 419 1159 341 588 341 469 c 0
2486 811 m 0
 2486 932 2394 1136 2105 1146 c 0
 1822 1136 1638 941 1557 757 c 1xbe
 1624 761 1902 768 1953 768 c 2
 2138 770 l 2
 2201 771 2258 771 2309 771 c 0
 2447 771 2482 769 2482 768 c 1xde
 2484 780 2486 795 2486 811 c 0
EndSplineSet
EndChar
StartChar: exclamdown
Encoding: 161 161 125
Width: 560
VWidth: 3622
Flags: MW
HStem: 860 233<402.591 558.137>
VStem: 356 241<899.881 1045.33> 370 122<673.116 805.516>
Fore
187 -391 m 0
 152 -391 95 -376 95 -315 c 0
 95 -308 95 -300 97 -292 c 2
 370 752 l 1
 385 783 407 799 438 799 c 0
 457 799 486 795 492 752 c 1
 318 -292 l 2
 297 -367 233 -391 187 -391 c 0
508 1093 m 0
 579 1093 597 1036 597 999 c 0
 597 940 548 860 458 860 c 0
 376 860 356 910 356 945 c 0
 356 1008 413 1093 508 1093 c 0
EndSplineSet
EndChar
StartChar: cent
Encoding: 162 162 126
Width: 1383
VWidth: 3622
Flags: MW
HStem: -9 349<727.85 960.817> 1094 21G<1399.5 1423> 1373 336<926.162 1102.85>
VStem: 324 129<520.212 928.536> 1314 126<665 731.638>
Fore
1468 1156 m 0
 1468 1106 1432 1094 1414 1094 c 0
 1385 1094 1358 1117 1343 1160 c 0
 1272 1332 1143 1373 1044 1373 c 0
 785 1373 453 1072 453 727 c 0
 453 554 527 340 821 340 c 0
 1117 340 1258 540 1314 665 c 1
 1314 662 1352 755 1401 755 c 0
 1427 755 1440 737 1440 702 c 0
 1440 604 1245 276 856 232 c 1
 836 142 824 -9 741 -9 c 0
 722 -9 693 2 693 46 c 1
 723 226 l 1
 471 251 324 402 324 667 c 0
 324 1004 564 1417 991 1486 c 1
 1021 1627 l 2
 1035 1701 1080 1709 1095 1709 c 0
 1112 1709 1137 1697 1137 1654 c 0
 1137 1646 1107 1501 1104 1488 c 1
 1112 1488 1322 1472 1427 1283 c 0
 1431 1275 1468 1208 1468 1156 c 0
EndSplineSet
EndChar
StartChar: sterling
Encoding: 163 163 127
Width: 1372
VWidth: 3622
Flags: W
HStem: 2 231<235 504> 14 97<763.169 1051.63> 584 104<347.468 578 739 977.023 977.023 1029.13> 1367 108<827.501 1137.68>
VStem: 506 117<925.478 1165.33> 623 116<479.337 551.046 551.046 584> 1224 103<1042.33 1278.52>
Fore
925 111 m 0x7e
 1085 111 1120 272 1180 272 c 0
 1204 272 1220 260 1220 228 c 0
 1220 214 1212 196 1212 196 c 1
 1135 69 1039 14 883 14 c 0x7e
 752 14 637 120 479 120 c 0
 330 120 293 2 235 2 c 0
 208 2 195 13 195 35 c 0
 195 118 389 219 504 233 c 1xbe
 581 322 623 404 623 518 c 0
 623 540 622 564 619 584 c 1
 400 584 l 1
 349 592 346 624 346 633 c 0
 346 655 365 688 423 688 c 2
 578 688 l 1
 512 883 506 936 506 998 c 0
 506 1259 766 1475 1014 1475 c 0
 1264 1475 1327 1317 1327 1169 c 0
 1327 1088 1313 1038 1259 1038 c 0
 1236 1038 1224 1055 1224 1088 c 0
 1224 1297 1131 1367 991 1367 c 0
 809 1367 623 1199 623 1012 c 0
 623 938 635 891 713 688 c 1
 989 681 l 2
 1020 680 1056 672 1056 637 c 0
 1056 610 1024 575 985 575 c 0
 980 575 975 576 969 577 c 2
 739 584 l 1
 739 515 740 394 621 221 c 1
 772 167 801 111 925 111 c 0x7e
EndSplineSet
EndChar
StartChar: currency
Encoding: 164 164 128
Width: 1759
VWidth: 3622
Flags: W
HStem: 187 133<742.257 1142.5> 1353 135<948.796 1344.76>
VStem: 380 140<541.31 867.975> 1569 141<814.331 1127.96>
Fore
357 203 m 0
 321 203 281 234 281 267 c 0
 281 280 286 292 297 301 c 2
 455 435 l 1
 405 521 380 613 380 711 c 0
 380 778 391 1014 626 1245 c 1
 527 1374 l 2
 520 1382 517 1391 517 1401 c 0
 517 1434 560 1487 604 1487 c 0
 617 1487 629 1481 639 1468 c 2
 739 1335 l 1
 892 1441 1050 1488 1182 1488 c 0
 1323 1488 1451 1440 1565 1343 c 1
 1720 1463 1728 1486 1768 1486 c 0
 1817 1486 1825 1441 1825 1425 c 0
 1825 1402 1816 1386 1801 1376 c 2
 1641 1245 l 1
 1694 1156 1710 1069 1710 985 c 0
 1710 938 1708 671 1470 433 c 1
 1559 308 l 2
 1573 288 1578 281 1578 262 c 0
 1578 227 1535 189 1496 189 c 0
 1467 189 1434 225 1350 340 c 1
 1237 258 1084 187 906 187 c 0
 683 187 589 278 534 343 c 1
 434 254 l 2
 414 237 372 203 357 203 c 0
1569 937 m 0
 1569 1167 1403 1353 1153 1353 c 0
 841 1353 520 1060 520 731 c 0
 520 484 705 320 934 320 c 0
 1253 320 1569 627 1569 937 c 0
EndSplineSet
EndChar
StartChar: yen
Encoding: 165 165 129
Width: 1361
VWidth: 3622
Flags: W
HStem: 11 21G<664.5 686> 522 111<302 499.5 499.5 720 858 1297> 865 97<308.359 464.901 464.901 575 773 848.156 848.156 922 1174 1369>
VStem: 446 131<1222.26 1415.05>
Fore
1443 1472 m 0
 1471 1472 1499 1456 1499 1430 c 0
 1499 1409 1504 1424 1342 1194 c 0
 1287 1116 1231 1042 1174 971 c 1
 1394 975 l 1
 1423 965 1439 951 1439 929 c 0
 1439 906 1413 877 1369 870 c 1
 1068 868 l 1
 986 744 915 692 867 677 c 1
 858 633 l 1
 1318 640 l 1
 1351 629 1371 609 1371 589 c 0
 1371 556 1329 534 1297 529 c 2
 837 522 l 1
 757 76 l 2
 746 21 696 11 676 11 c 0
 653 11 623 20 623 55 c 0
 623 61 632 106 635 118 c 2
 720 522 l 1
 544 522 455 520 279 520 c 1
 235 527 230 557 230 566 c 0
 230 598 254 619 302 630 c 1
 745 633 l 1
 754 679 l 1
 685 718 654 783 630 865 c 1
 519 865 463 861 352 861 c 1
 327 867 303 879 303 907 c 0
 303 933 334 962 367 962 c 2
 575 962 l 1
 532 1092 l 2
 484 1244 455 1366 446 1436 c 0
 446 1462 480 1475 507 1475 c 0
 534 1475 561 1465 577 1440 c 1
 583 1415 659 1063 696 993 c 2
 709 968 l 1
 836 968 899 971 1026 971 c 1
 1090 1035 1188 1149 1306 1328 c 2
 1378 1436 l 2
 1395 1469 1430 1472 1443 1472 c 0
773 865 m 1
 789 818 810 792 840 792 c 0
 859 792 886 816 922 865 c 1
 773 865 l 1
EndSplineSet
EndChar
StartChar: brokenbar
Encoding: 166 166 130
Width: 573
VWidth: 3622
Flags: MW
VStem: 164 41<-352 473.172> 354 39<344.48 468.447>
Fore
552 1679 m 1
 571 1728 612 1740 635 1740 c 0
 665 1740 683 1726 683 1695 c 0
 683 1689 683 1682 681 1675 c 2
 527 868 l 1
 509 819 471 805 444 805 c 256
 415 805 396 820 396 851 c 0
 396 857 397 863 398 870 c 2
 552 1679 l 1
164 -352 m 1
 167 -369 173 -377 184 -377 c 0
 188 -377 200 -373 205 -356 c 2
 393 449 l 1
 393 462 386 469 373 469 c 0
 362 469 356 463 354 451 c 2
 164 -352 l 1
EndSplineSet
EndChar
StartChar: section
Encoding: 167 167 131
Width: 1383
VWidth: 3622
Flags: W
HStem: -127 118<499.763 858.201> 1679 111<881.386 1226.71>
VStem: 271 131<88.0362 296.07 285.5 306.641> 403 128<774.511 992.807> 582 124<1275.9 1514.42> 1014 120<143.345 416.577> 1192 120<678.227 930.063> 1302 122<1376.23 1432.5 1404.36 1599.86>
Fore
403 872 m 0xfe
 403 922 421 1102 603 1238 c 1
 581 1299 582 1335 582 1346 c 0
 582 1574 803 1790 1104 1790 c 0
 1297 1785 1424 1681 1424 1496 c 0
 1424 1409 1396 1366 1339 1366 c 0
 1314 1366 1302 1379 1302 1406 c 0xfd
 1302 1427 1305 1438 1305 1459 c 0
 1305 1605 1214 1679 1070 1679 c 0
 847 1679 706 1528 706 1367 c 0
 706 1168 1007 1163 1140 1094 c 0
 1205 1062 1312 994 1312 844 c 0
 1312 765 1274 596 1079 499 c 1
 1102 468 1134 414 1134 329 c 0
 1134 190 1040 -127 637 -127 c 0
 360 -127 271 59 271 221 c 0
 271 305 279 375 357 375 c 0
 376 375 409 368 409 329 c 0
 409 294 402 277 402 242 c 0
 402 122 457 -9 679 -9 c 0
 922 -9 1014 172 1014 292 c 0
 1014 445 862 507 731 539 c 0
 436 611 403 766 403 872 c 0xfe
998 571 m 1
 1131 621 1192 716 1192 812 c 0xfe
 1192 1056 818 1012 669 1150 c 1
 582 1106 531 1002 531 888 c 0
 531 689 829 676 998 571 c 1
EndSplineSet
EndChar
StartChar: dieresis
Encoding: 168 168 132
Width: 781
VWidth: 3622
Flags: W
HStem: 1376 218<421.465 562.848 859.465 1002.32>
VStem: 381 225<1418.77 1554.27> 819 226<1418.78 1551.96>
Fore
381 1462 m 0
 381 1538 462 1594 515 1594 c 256
 557 1594 606 1555 606 1502 c 0
 606 1442 530 1376 469 1376 c 0
 412 1376 381 1420 381 1462 c 0
819 1463 m 0
 819 1536 901 1594 953 1594 c 0
 999 1594 1045 1550 1045 1501 c 0
 1045 1445 971 1376 907 1376 c 0
 850 1376 819 1421 819 1463 c 0
EndSplineSet
EndChar
StartChar: copyright
Encoding: 169 169 133
Width: 1828
VWidth: 3622
Flags: W
HStem: -11 133<712.526 1155.66> 304 136<849.761 1147.1> 1010 140<973.022 1233.15> 1353 138<947.478 1413.53>
VStem: 292 141<401.615 838.555> 642 140<505.68 815.647> 1662 133<647.419 1090.52>
Fore
1795 906 m 0
 1795 462 1429 -11 907 -11 c 0
 497 -11 292 270 292 591 c 0
 292 978 644 1491 1228 1491 c 0
 1682 1491 1795 1155 1795 906 c 0
433 623 m 0
 433 335 617 122 936 122 c 0
 1332 122 1662 523 1662 868 c 0
 1662 1141 1505 1353 1197 1353 c 0
 762 1353 433 982 433 623 c 0
1384 1117 m 0
 1412 1117 1436 1098 1436 1069 c 0
 1436 1041 1410 930 1410 930 c 1
 1395 892 1368 868 1341 868 c 0
 1239 868 1277 1010 1125 1010 c 0
 983 1010 782 882 782 637 c 0
 782 479 911 440 991 440 c 0
 1143 440 1209 520 1245 619 c 0
 1259 658 1290 683 1320 683 c 0
 1361 683 1381 663 1381 624 c 0
 1381 487 1195 304 962 304 c 0
 833 304 642 362 642 594 c 0
 642 977 947 1150 1159 1150 c 0
 1226 1150 1283 1129 1332 1088 c 1
 1349 1115 1374 1117 1384 1117 c 0
EndSplineSet
EndChar
StartChar: ordfeminine
Encoding: 170 170 134
Width: 912
VWidth: 3622
Flags: W
HStem: 662 111<464.155 783.643> 1424 101<596.666 893.433>
VStem: 287 111<841.925 1190.81>
Fore
610 773 m 0
 793 773 875 833 953 1217 c 1
 953 1353 887 1424 753 1424 c 0
 479 1424 398 1114 398 991 c 0
 398 817 503 773 610 773 c 0
990 826 m 0
 990 776 1072 775 1072 727 c 0
 1072 692 1063 673 966 673 c 0
 884 673 875 728 872 750 c 1
 787 681 683 662 591 662 c 0
 348 662 287 808 287 959 c 0
 287 1132 391 1525 778 1525 c 0
 881 1525 956 1483 1003 1399 c 1
 1019 1472 l 2
 1026 1505 1060 1516 1084 1516 c 0
 1103 1516 1141 1508 1141 1475 c 0
 1141 1464 1085 1259 1036 1050 c 2
 1006 922 l 2
 1004 913 990 846 990 826 c 0
EndSplineSet
EndChar
StartChar: guillemotleft
Encoding: 171 171 135
Width: 1220
VWidth: 3622
Flags: MW
HStem: 407 120<662.462 800.43 1093 1123>
VStem: 359 131<675.899 813.577> 716 131<666.226 807.094>
Fore
919 1135 m 0
 946 1135 961 1117 961 1094 c 0
 961 994 825 1026 601 870 c 0
 546 831 490 781 490 762 c 0
 490 712 592 579 766 527 c 0
 788 520 810 507 810 478 c 0
 810 444 774 407 734 407 c 1
 503 479 359 654 359 748 c 0
 359 910 855 1135 919 1135 c 0
1282 1124 m 0
 1322 1124 1330 1104 1330 1090 c 0
 1330 1072 1308 1024 1252 1005 c 0
 1028 933 847 790 847 752 c 0
 847 696 953 570 1123 518 c 1
 1140 510 1165 495 1165 460 c 0
 1165 438 1148 394 1093 394 c 1
 864 472 716 639 716 739 c 0
 716 885 1186 1124 1282 1124 c 0
EndSplineSet
EndChar
StartChar: logicalnot
Encoding: 172 172 136
Width: 1554
VWidth: 3622
Flags: MW
HStem: 853 134<795.711 1321.39 1321.39 1457> 870 140<273.723 1176.06>
VStem: 1457 150<765.59 853>
Fore
1432 393 m 0
 1414 393 1381 402 1381 437 c 0
 1381 459 1401 572 1420 660 c 2
 1442 764 l 2
 1448 798 1454 827 1457 853 c 1
 1160 853 881 858 596 864 c 2
 324 870 l 2
 271 870 264 911 264 927 c 0
 264 963 292 1010 343 1010 c 0
 513 1002 852 987 1192 987 c 0
 1288 987 1371 989 1450 994 c 2
 1526 998 l 2
 1545 998 1561 999 1572 999 c 0
 1598 999 1607 991 1607 980 c 0
 1607 915 1534 617 1505 453 c 0
 1493 413 1463 393 1432 393 c 0
EndSplineSet
EndChar
StartChar: registered
Encoding: 174 174 137
Width: 1828
VWidth: 3622
Flags: W
HStem: -11 133<712.526 1147.76> 1021 123<998 1253.52> 1353 138<947.478 1407.02>
VStem: 292 141<401.615 838.555> 1307 138<808.949 972.965> 1662 133<638.998 1088.52>
Fore
1795 894 m 0
 1795 487 1447 -11 907 -11 c 0
 497 -11 292 270 292 591 c 0
 292 978 644 1491 1228 1491 c 0
 1599 1491 1795 1225 1795 894 c 0
433 623 m 0
 433 335 617 122 936 122 c 0
 1332 122 1662 523 1662 868 c 0
 1662 1141 1505 1353 1197 1353 c 0
 762 1353 433 982 433 623 c 0
792 294 m 256
 773 294 735 301 735 329 c 0
 735 374 785 680 844 930 c 2
 877 1075 l 2
 884 1104 902 1144 987 1144 c 2
 1042 1144 l 2
 1349 1144 1445 1054 1445 918 c 0
 1445 772 1278 661 1086 626 c 1
 1309 440 l 1
 1315 432 1318 424 1318 415 c 0
 1318 372 1258 327 1215 327 c 0
 1206 327 1197 329 1189 333 c 1
 922 575 l 1
 872 347 l 2
 859 304 819 294 792 294 c 256
1015 734 m 0
 1116 734 1307 768 1307 904 c 0
 1307 951 1264 1021 998 1021 c 1
 984 977 953 757 953 736 c 1
 978 734 961 734 1015 734 c 0
EndSplineSet
EndChar
StartChar: macron
Encoding: 175 175 138
Width: 781
VWidth: 3622
Flags: MW
HStem: 1518 119<364.987 468.876 416.932 692.185 628.523 755.847 755.847 839.577 797.712 987.688 925.454 1049.92>
Fore
423 1637 m 0
 441 1637 459 1628 578 1628 c 0
 612 1628 646 1629 679 1630 c 2
 802 1636 l 2
 839 1637 864 1638 876 1638 c 0
 999 1638 1054 1626 1054 1579 c 0
 1054 1558 1035 1526 971 1526 c 0
 940 1528 909 1529 880 1529 c 0
 781 1529 747 1518 589 1518 c 0
 387 1518 362 1529 362 1574 c 0
 362 1605 387 1637 423 1637 c 0
EndSplineSet
EndChar
StartChar: degree
Encoding: 176 176 139
Width: 781
VWidth: 3622
Flags: W
HStem: 1146 103<529.248 790.262> 1664 108<605.405 858.666>
VStem: 369 121<1289.22 1540.17> 899 126<1371.94 1622.8>
Fore
1025 1545 m 0
 1025 1312 810 1146 624 1146 c 0
 430 1146 369 1277 369 1377 c 0
 369 1576 559 1772 764 1772 c 0
 953 1772 1025 1657 1025 1545 c 0
647 1249 m 0
 813 1249 899 1390 899 1506 c 0
 899 1607 840 1664 736 1664 c 0
 578 1664 490 1506 490 1398 c 0
 490 1321 538 1249 647 1249 c 0
EndSplineSet
EndChar
StartChar: plusminus
Encoding: 177 177 140
Width: 1123
VWidth: 3622
Flags: MW
HStem: 142 95<370.101 655.154 655.154 972.173> 697 104<391.99 449 449 644 768 794.555 794.555 962.546 962.546 1004.37>
Fore
389 742 m 0
 389 765 401 807 449 807 c 2
 662 801 l 1
 690 979 728 1052 771 1052 c 0
 806 1052 819 1039 819 1018 c 0
 819 1014 818 1008 817 1003 c 2
 768 801 l 1
 955 808 l 2
 961 809 966 809 970 809 c 0
 996 809 1015 793 1015 766 c 0
 1015 738 985 697 822 697 c 0
 797 697 773 698 752 699 c 1
 727 598 l 2
 696 471 696 444 647 444 c 0
 624 444 599 451 599 483 c 0
 599 488 600 493 601 499 c 2
 644 695 l 1
 412 703 389 698 389 742 c 0
337 179 m 0
 337 185 340 235 396 235 c 2
 902 237 l 2
 964 237 973 200 973 183 c 0
 973 163 960 142 945 142 c 2
 856 142 l 2
 736 142 498 137 458 137 c 0
 422 137 337 132 337 179 c 0
EndSplineSet
EndChar
StartChar: twosuperior
Encoding: 178 178 141
Width: 937
VWidth: 3622
Flags: W
HStem: 711 94<478 542.569 542.569 602.815 602.815 758.161 758.161 887.828> 1583 91<713.553 934.354>
VStem: 966 101<1345.5 1548.96>
Fore
811 1674 m 0
 917 1674 1067 1630 1067 1457 c 0
 1067 1366 1001 1181 785 1060 c 0
 578 940 500 848 478 805 c 1
 649 812 673 812 722 812 c 0
 751 812 772 813 794 813 c 0
 858 813 939 806 939 775 c 0
 939 716 892 704 876 704 c 2
 591 711 l 2
 560 711 528 711 494 710 c 2
 389 708 l 2
 359 708 340 707 340 725 c 0
 340 751 373 836 467 936 c 0
 659 1138 867 1133 950 1360 c 0
 961 1388 966 1416 966 1442 c 0
 966 1555 890 1583 808 1583 c 0
 767 1583 642 1581 585 1390 c 0
 576 1361 539 1355 528 1355 c 0
 512 1355 493 1361 493 1389 c 0
 493 1532 661 1674 811 1674 c 0
EndSplineSet
EndChar
StartChar: threesuperior
Encoding: 179 179 142
Width: 887
VWidth: 3622
Flags: W
HStem: 670 96<398.824 756.803> 1169 96<676 820.997> 1622 97<634.282 916.606>
VStem: 216 103<843.591 1027.23> 424 101<1343.82 1517.05> 871 103<874.88 1105.54> 957 96<1413.4 1581.5>
Fore
782 1622 m 0xfa
 677 1622 525 1551 525 1380 c 0
 521 1347 498 1326 468 1326 c 0
 424 1326 424 1361 424 1380 c 0
 424 1532 565 1719 803 1719 c 0
 964 1719 1053 1603 1053 1495 c 0xfa
 1053 1408 994 1273 886 1224 c 1
 972 1179 974 1068 974 1045 c 0
 974 844 815 670 571 670 c 0
 314 670 216 775 216 933 c 0
 216 968 220 1007 230 1051 c 0
 238 1091 258 1111 290 1111 c 0
 317 1111 331 1100 331 1077 c 0
 331 1062 319 1026 319 976 c 0
 319 892 357 766 578 766 c 0
 739 766 871 848 871 1015 c 0xfc
 871 1138 765 1169 670 1169 c 0
 647 1169 630 1191 630 1215 c 0
 630 1243 646 1261 676 1265 c 0
 933 1301 957 1448 957 1494 c 0
 957 1571 880 1622 782 1622 c 0xfa
EndSplineSet
EndChar
StartChar: acute
Encoding: 180 180 143
Width: 781
VWidth: 3622
Flags: W
HStem: 1341 476
VStem: 572 504
Fore
693 1374 m 2
 668 1352 639 1341 616 1341 c 0
 591 1341 572 1354 572 1382 c 0
 572 1397 577 1417 612 1456 c 2
 914 1772 l 2
 961 1810 996 1817 1017 1817 c 0
 1055 1817 1076 1793 1076 1761 c 0
 1076 1732 1059 1696 1022 1666 c 2
 693 1374 l 2
EndSplineSet
EndChar
StartChar: mu
Encoding: 181 181 144
Width: 1528
VWidth: 3622
Flags: W
HStem: 4 132<566.513 927.892>
Fore
1176 -5 m 0
 1152 -5 1122 6 1122 50 c 0
 1122 78 1138 119 1151 189 c 1
 1057 75 907 4 692 4 c 0
 500 4 409 99 373 152 c 1
 246 -448 l 2
 233 -500 192 -516 164 -516 c 256
 147 -516 114 -507 114 -471 c 0
 114 -456 292 386 292 386 c 1
 382 801 l 2
 413 939 446 1078 481 1219 c 0
 489 1248 522 1274 559 1274 c 0
 593 1274 624 1255 624 1227 c 0
 624 1224 624 1220 623 1217 c 2
 483 635 l 2
 473 596 457 516 457 436 c 0
 457 287 513 136 737 136 c 0
 1096 136 1199 463 1240 656 c 2
 1362 1226 l 2
 1372 1271 1414 1286 1443 1286 c 0
 1459 1286 1500 1279 1500 1229 c 1
 1265 57 l 2
 1258 26 1218 -5 1176 -5 c 0
EndSplineSet
EndChar
StartChar: paragraph
Encoding: 182 182 145
Width: 1383
VWidth: 3622
Flags: W
HStem: 1631 129<1149.38 1255.84>
VStem: 922 138<-71.1275 26.8593>
Fore
976 -83 m 0
 954 -83 922 -66 922 -19 c 0
 922 -6 927 21 946 110 c 2
 1225 1440 l 2
 1240 1508 1253 1566 1265 1615 c 1
 1256 1626 1236 1631 1203 1631 c 0
 1170 1631 1142 1617 1121 1603 c 1
 1109 1504 994 962 916 619 c 2
 769 -2 l 2
 758 -46 720 -73 688 -73 c 256
 660 -73 635 -54 635 -21 c 0
 635 5 649 32 698 245 c 2
 743 444 l 2
 776 610 782 630 785 651 c 1
 445 657 309 863 309 1052 c 0
 309 1225 415 1760 1171 1760 c 0
 1350 1760 1406 1752 1406 1692 c 1
 1406 1692 1140 574 1060 2 c 0
 1054 -62 1002 -83 976 -83 c 0
EndSplineSet
EndChar
StartChar: periodcentered
Encoding: 183 183 146
Width: 833
VWidth: 3622
Flags: W
HStem: 607 501<498.09 690.294>
VStem: 334 516<765.804 946.499>
Fore
850 915 m 0
 850 762 712 607 537 607 c 0
 434 607 334 677 334 806 c 0
 334 965 491 1108 645 1108 c 0
 755 1108 850 1034 850 915 c 0
EndSplineSet
EndChar
StartChar: cedilla
Encoding: 184 184 147
Width: 781
VWidth: 3622
Flags: W
HStem: -488 106<44.4045 340.292>
VStem: 366 112<-351.235 -224.076>
Fore
478 -252 m 0
 478 -349 364 -488 172 -488 c 0
 93 -488 5 -458 5 -412 c 0
 5 -383 33 -356 67 -356 c 0
 106 -356 140 -382 205 -382 c 0
 271 -382 366 -357 366 -276 c 256
 366 -197 175 -207 175 -154 c 0
 175 -147 178 -138 184 -129 c 2
 338 44 l 2
 353 60 371 68 392 68 c 0
 421 68 444 51 444 28 c 0
 444 18 438 7 426 -5 c 2
 338 -104 l 1
 401 -123 478 -164 478 -252 c 0
EndSplineSet
EndChar
StartChar: onesuperior
Encoding: 185 185 148
Width: 781
VWidth: 3622
Flags: W
HStem: 696 1017
Fore
553 696 m 0
 533 696 508 703 508 731 c 0
 508 734 508 739 509 743 c 2
 587 1079 l 1
 670 1503 l 1
 658 1491 611 1447 581 1422 c 2
 511 1364 l 1
 497 1357 486 1353 476 1353 c 0
 452 1353 429 1376 429 1402 c 0
 429 1455 540 1466 704 1695 c 0
 714 1707 725 1713 737 1713 c 0
 767 1713 810 1671 810 1640 c 1
 628 743 l 2
 619 705 571 696 553 696 c 0
EndSplineSet
EndChar
StartChar: ordmasculine
Encoding: 186 186 149
Width: 912
VWidth: 3622
Flags: W
HStem: 681 129<483.656 790.526> 1399 129<587.367 898.026>
VStem: 244 148<899.062 1193.24> 980 146<1007.35 1313.77>
Fore
1126 1206 m 0
 1126 912 858 681 591 681 c 0
 373 681 244 813 244 998 c 0
 244 1287 509 1528 771 1528 c 0
 984 1528 1126 1410 1126 1206 c 0
623 810 m 0
 839 810 980 999 980 1169 c 0
 980 1308 898 1399 748 1399 c 0
 513 1399 392 1176 392 1030 c 0
 392 898 496 810 623 810 c 0
EndSplineSet
EndChar
StartChar: guillemotright
Encoding: 187 187 150
Width: 1220
VWidth: 3622
Flags: MW
HStem: 394 122<248.735 408.137 676 774.911>
VStem: 688 133<702.814 838.218> 1051 131<712.762 848.741>
Fore
653 407 m 1
 601 418 597 447 597 457 c 0
 597 486 630 516 676 529 c 0
 880 582 1051 732 1051 773 c 0
 1051 821 928 955 748 1015 c 0
 726 1023 701 1038 701 1073 c 0
 701 1101 723 1135 773 1135 c 0
 842 1135 1182 948 1182 785 c 0
 1182 695 953 495 653 407 c 1
290 394 m 1
 240 403 235 434 235 448 c 0
 235 483 268 512 311 516 c 1
 530 575 688 726 688 762 c 0
 688 817 552 948 386 1006 c 0
 372 1013 334 1034 334 1076 c 0
 334 1110 366 1127 397 1127 c 0
 480 1127 821 933 821 777 c 0
 821 700 622 495 290 394 c 1
EndSplineSet
EndChar
StartChar: onequarter
Encoding: 188 188 151
Width: 1981
VWidth: 3622
Flags: W
HStem: 12 21G<1582.5 1611.5> 327 99<1276.43 1551.28 1551.28 1617.45> 373 93<1822.48 1873> 1049 20G<1702 1719.5>
VStem: 1113 121<388.417 467.493>
Fore
464 1336 m 0x98
 446 1336 416 1349 416 1380 c 0
 416 1442 532 1457 690 1676 c 0
 701 1689 713 1695 726 1695 c 0
 759 1695 796 1645 796 1624 c 1
 616 726 l 2
 609 695 581 680 534 680 c 0
 507 680 494 691 494 712 c 0
 494 718 495 723 496 726 c 2
 573 1062 l 1
 658 1488 l 1
 637 1464 611 1440 586 1419 c 2
 497 1347 l 1
 484 1340 473 1336 464 1336 c 0x98
1708 1069 m 0
 1731 1069 1746 1048 1746 1028 c 0
 1746 1018 1743 1007 1737 994 c 1
 1737 994 1377 645 1235 442 c 0
 1234 441 1234 441 1234 440 c 0
 1234 429 1471 426 1532 426 c 2
 1599 426 l 2xd8
 1614 426 1628 427 1641 428 c 1
 1735 785 l 2
 1745 825 1770 837 1789 837 c 0
 1804 837 1832 825 1832 788 c 0
 1832 785 1831 781 1831 778 c 1
 1748 451 l 1
 1770 455 1875 466 1885 466 c 0xb8
 1931 466 1947 442 1947 426 c 0xd8
 1947 415 1937 383 1873 373 c 2xb8
 1725 352 l 1
 1650 57 l 2
 1644 27 1626 12 1597 12 c 0
 1568 12 1551 25 1551 50 c 0
 1551 55 1552 60 1553 65 c 2
 1618 333 l 1
 1579 329 1535 327 1484 327 c 0xd8
 1307 327 1113 344 1113 412 c 0
 1113 433 1146 481 1220 573 c 2
 1346 723 l 2
 1395 778 1448 834 1506 892 c 2
 1679 1060 l 1
 1686 1065 1696 1069 1708 1069 c 0
421 -7 m 0
 393 -7 371 13 371 44 c 0
 371 53 372 65 387 88 c 2
 1666 1663 l 2
 1693 1704 1725 1712 1740 1712 c 0
 1779 1712 1789 1683 1789 1668 c 0
 1789 1655 1784 1639 1774 1622 c 1
 486 37 l 2
 475 22 451 -7 421 -7 c 0
EndSplineSet
LCarets2: 2 0 0 
Ligature2: "'frac' Diagonal Fractions in Latin lookup 0 subtable" one fraction four
Ligature2: "'frac' Diagonal Fractions in Latin lookup 0 subtable" one slash four
EndChar
StartChar: onehalf
Encoding: 189 189 152
Width: 1981
VWidth: 3622
GlyphClass: 2
Flags: W
HStem: 39 97<1291 1327.57 1327.57 1346.98 1346.98 1560.49 1560.49 1613.19 1613.19 1718.01> 911 92<1526.39 1742.8> 1478 20G<606.5 613.009>
VStem: 1779 101<632.875 873.933>
Fore
423 1346 m 0
 405 1346 375 1359 375 1390 c 0
 375 1452 491 1467 649 1686 c 0
 660 1699 672 1705 685 1705 c 0
 718 1705 755 1655 755 1634 c 1
 575 736 l 2
 568 705 540 690 493 690 c 0
 466 690 453 701 453 722 c 0
 453 728 454 733 455 736 c 2
 532 1072 l 1
 617 1498 l 1
 596 1474 570 1450 545 1429 c 2
 456 1357 l 1
 443 1350 432 1346 423 1346 c 0
333 51 m 0
 333 62 335 83 352 104 c 2
 1626 1673 l 2
 1652 1716 1685 1725 1700 1725 c 0
 1717 1725 1748 1715 1748 1677 c 0
 1748 1664 1744 1649 1735 1634 c 1
 446 50 l 2
 427 19 404 4 379 4 c 0
 361 4 333 13 333 51 c 0
1640 1003 m 0
 1779 1003 1880 934 1880 791 c 0
 1880 629 1741 467 1599 387 c 0
 1391 273 1311 176 1291 134 c 1
 1317 135 1341 136 1364 136 c 2
 1427 136 l 2
 1542 136 1570 126 1714 126 c 1
 1739 122 1751 111 1751 94 c 0
 1751 44 1709 32 1686 32 c 0
 1657 36 1598 39 1539 39 c 2
 1404 39 l 2
 1331 39 1256 37 1182 35 c 0
 1161 35 1151 42 1151 55 c 1
 1151 55 1178 263 1557 462 c 0
 1670 522 1779 653 1779 769 c 0
 1779 832 1745 911 1620 911 c 0
 1568 911 1459 903 1396 715 c 0
 1385 685 1356 677 1343 677 c 256
 1328 677 1305 685 1305 718 c 0
 1305 867 1496 1003 1640 1003 c 0
EndSplineSet
LCarets2: 2 0 0 
Ligature2: "'frac' Diagonal Fractions in Latin lookup 0 subtable" one fraction two
Ligature2: "'frac' Diagonal Fractions in Latin lookup 0 subtable" one slash two
EndChar
StartChar: threequarters
Encoding: 190 190 153
Width: 1981
VWidth: 3622
Flags: W
HStem: 336 94<1381.95 1639.47 1639.47 1694.02 1694.02 1725> 670 96<400.733 759.33> 1058 20G<1808 1824> 1169 96<661.529 834.312> 1622 97<638.817 925.699>
VStem: 223 102<837.097 1013.48> 433 101<1329.4 1516.29> 880 102<878.647 1128.81> 964 96<1372.5 1582.86>
Fore
1813 1078 m 0xfe
 1835 1078 1858 1061 1858 1035 c 0
 1858 995 1795 976 1510 656 c 2
 1413 546 l 2
 1382 510 1356 477 1335 448 c 1
 1373 432 1467 430 1552 430 c 0
 1613 430 1721 432 1746 435 c 1
 1840 794 l 2
 1846 826 1871 840 1892 840 c 0
 1915 840 1938 824 1938 793 c 0
 1938 790 1937 787 1937 784 c 1
 1852 456 l 1
 1993 476 1994 477 1997 477 c 0
 2019 477 2051 472 2051 443 c 0
 2051 418 2024 386 1978 380 c 2
 1825 359 l 1
 1753 65 l 2
 1744 31 1710 20 1692 20 c 0
 1676 20 1656 27 1656 55 c 0
 1656 68 1709 277 1725 340 c 1
 1705 337 1684 336 1663 336 c 2
 1587 336 l 2
 1363 336 1217 365 1217 416 c 0
 1217 482 1507 796 1609 898 c 2
 1783 1067 l 1
 1793 1074 1803 1078 1813 1078 c 0xfe
525 0 m 0
 509 0 478 10 478 48 c 0
 478 65 484 83 497 101 c 2
 1771 1670 l 2
 1792 1704 1816 1721 1843 1721 c 0
 1868 1721 1891 1706 1891 1673 c 0
 1891 1660 1886 1646 1877 1629 c 1
 591 44 l 2
 580 29 555 0 525 0 c 0
964 1488 m 0xfe80
 964 1542 926 1622 791 1622 c 0
 652 1622 534 1532 534 1376 c 0
 534 1349 498 1326 470 1326 c 0
 440 1326 434 1344 433 1358 c 0
 438 1580 618 1719 812 1719 c 0
 939 1719 1060 1630 1060 1498 c 0xfe80
 1060 1425 1013 1276 893 1224 c 1
 950 1194 982 1137 982 1044 c 0
 982 972 929 670 578 670 c 0
 316 670 223 776 223 934 c 0
 223 987 227 1111 297 1111 c 0
 323 1111 341 1099 341 1060 c 0
 341 1021 325 997 325 946 c 0
 325 874 368 766 585 766 c 0
 844 766 880 952 880 1029 c 0xff
 880 1141 786 1169 677 1169 c 0
 655 1169 639 1190 639 1217 c 0
 639 1255 670 1263 683 1265 c 0
 825 1284 964 1354 964 1488 c 0xfe80
EndSplineSet
LCarets2: 2 0 0 
Ligature2: "'frac' Diagonal Fractions in Latin lookup 0 subtable" three fraction four
Ligature2: "'frac' Diagonal Fractions in Latin lookup 0 subtable" three slash four
EndChar
StartChar: questiondown
Encoding: 191 191 154
Width: 1068
VWidth: 3622
Flags: W
HStem: -516 132<308.457 671.991> 745 210<668.04 811.836>
VStem: 101 132<-307.153 -14.2895> 633 215<781.193 920.764> 826 127<-248.327 -29.8377>
Fore
848 872 m 0xf0
 848 811 790 745 715 745 c 0
 668 745 633 780 633 830 c 0
 633 894 696 955 759 955 c 0
 815 955 848 912 848 872 c 0xf0
730 142 m 0
 818 142 953 52 953 -76 c 0
 953 -366 693 -516 439 -516 c 0
 169 -516 101 -326 101 -195 c 0
 101 -13 208 124 371 260 c 2
 457 335 l 2
 645 505 590 584 642 624 c 0
 654 634 672 644 692 644 c 0
 714 644 741 633 741 589 c 0
 741 391 472 199 382 116 c 0
 335 73 233 -33 233 -164 c 0
 233 -263 279 -384 463 -384 c 0
 680 -384 826 -270 826 -111 c 0xe8
 826 -58 793 -27 698 21 c 0
 684 28 664 43 664 75 c 0
 664 100 684 142 730 142 c 0
EndSplineSet
EndChar
StartChar: AE
Encoding: 198 198 161
Width: 2104
VWidth: 3622
Flags: W
HStem: 10 21G<38 56> 32 102<1338.22 1993.83> 743 99<723 1256> 883 99<1397 2099.61> 1643 97<1441.34 1834.76 1834.76 2294.57>
VStem: 1213 119<86.5 205.287>
Fore
1213 107 m 0
 1213 114 1213 121 1215 129 c 1
 1256 743 l 1
 646 743 l 1
 134 50 l 2
 114 23 67 10 45 10 c 0
 31 10 9 15 9 36 c 0
 9 42 11 49 14 57 c 1
 1229 1682 l 1
 1230 1685 1246 1740 1329 1740 c 0
 2174 1740 1745 1742 2253 1742 c 0
 2284 1742 2299 1731 2299 1710 c 0
 2299 1692 2286 1643 2232 1643 c 2
 1463 1643 l 1
 1451 1647 1441 1642 1436 1624 c 1
 1413 1328 l 1
 1383 1014 l 2
 1383 988 1396 977 1406 982 c 1
 2048 982 l 2
 2085 982 2103 971 2103 949 c 0
 2103 922 2088 883 2027 883 c 2
 1397 883 l 1
 1385 876 1375 873 1380 868 c 1
 1351 456 l 1
 1332 147 l 2
 1332 139 1363 134 1374 134 c 2
 1951 134 l 2
 1983 132 1999 120 1999 99 c 0
 1999 86 1986 32 1935 32 c 2
 1298 32 l 2
 1258 32 1213 66 1213 107 c 0
1318 1588 m 2
 1318 1602 1317 1629 1311 1640 c 1
 1311 1640 1309 1641 1131 1401 c 2
 723 842 l 1
 1261 842 l 1
 1318 1588 l 2
EndSplineSet
EndChar
StartChar: Eth
Encoding: 208 208 171
Width: 1890
VWidth: 3622
Flags: W
HStem: -7 117<452.571 475.231 475.231 915.16> 837 116<197.355 486 628 1189.72> 1714 113<631.634 665 817 1085.6>
VStem: 1704 124<823.498 1272.2>
Fore
159 64 m 0
 159 105 198 154 249 154 c 1
 329 129 l 1
 486 833 l 1
 260 837 l 2
 203 837 191 865 191 883 c 0
 191 911 216 953 285 953 c 2
 511 950 l 1
 665 1714 l 1
 619 1718 585 1737 585 1770 c 0
 585 1816 638 1827 699 1827 c 1
 703 1848 712 1905 761 1905 c 0
 774 1905 824 1902 824 1863 c 0
 824 1850 822 1836 817 1822 c 1
 1312 1792 1828 1643 1828 1083 c 0
 1828 715 1530 -7 536 -7 c 2
 474 -7 l 2
 457 -7 404 -8 301 4 c 0
 213 14 159 16 159 64 c 0
1195 891 m 0
 1195 864 1172 824 1104 824 c 2
 603 830 l 1
 451 113 l 1
 472 111 488 110 499 110 c 2
 578 110 l 2
 1415 110 1704 730 1704 1045 c 0
 1704 1450 1356 1681 792 1719 c 1
 628 946 l 1
 1127 939 l 2
 1187 939 1195 905 1195 891 c 0
EndSplineSet
EndChar
StartChar: multiply
Encoding: 215 215 178
Width: 1123
VWidth: 3622
Flags: MW
Fore
971 892 m 0
 985 892 1018 882 1018 844 c 0
 1018 836 1017 821 999 807 c 1
 984 788 966 767 945 746 c 2
 755 552 l 1
 774 514 809 443 839 391 c 2
 937 225 l 1
 939 218 941 212 941 206 c 0
 941 180 912 153 878 153 c 0
 836 153 835 172 754 321 c 2
 720 386 l 2
 708 408 695 434 681 463 c 1
 527 320 l 2
 478 275 435 229 398 180 c 1
 381 165 364 157 347 157 c 0
 314 157 306 186 306 203 c 0
 306 223 307 238 446 380 c 2
 619 552 l 1
 524 711 l 1
 458 814 l 2
 453 822 451 829 451 837 c 0
 451 858 473 894 514 894 c 0
 523 894 540 894 557 874 c 1
 577 837 600 798 627 756 c 2
 706 637 l 1
 934 876 l 2
 947 887 959 892 971 892 c 0
EndSplineSet
EndChar
StartChar: Oslash
Encoding: 216 216 179
Width: 1963
VWidth: 3622
Flags: W
HStem: 25 122<707.658 1244.59> 1636 131<1017.9 1537.58>
VStem: 255 138<431.267 916.073> 1900 138<787.197 1285.9>
Fore
1304 1767 m 0
 1517 1767 1696 1686 1820 1588 c 1
 2016 1772 l 2
 2033 1788 2058 1806 2089 1806 c 0
 2116 1806 2135 1787 2135 1762 c 0
 2135 1741 2123 1719 2100 1696 c 2
 1901 1505 l 1
 1980 1400 2038 1257 2038 1075 c 0
 2038 638 1721 25 900 25 c 0
 729 25 591 72 485 149 c 1
 308 -14 l 1
 308 -12 l 1
 281 -37 256 -50 235 -50 c 0
 206 -50 187 -27 187 -2 c 0
 187 58 339 173 394 228 c 1
 314 325 255 463 255 642 c 0
 255 1012 555 1767 1304 1767 c 0
1295 1636 m 0
 573 1636 393 893 393 651 c 0
 393 509 436 405 504 331 c 1
 1712 1489 l 1
 1624 1565 1476 1636 1295 1636 c 0
589 248 m 1
 618 230 736 154 962 147 c 0
 1479 147 1900 523 1900 1029 c 0
 1900 1151 1879 1282 1795 1403 c 1
 589 248 l 1
EndSplineSet
EndChar
StartChar: Thorn
Encoding: 222 222 185
Width: 1430
VWidth: 3622
Flags: W
HStem: 449 135<522.796 1057.1> 1334 125<685.271 1169.48>
VStem: 1376 123<846.89 1160.58>
Fore
1376 1021 m 0
 1376 1209 1183 1334 939 1334 c 0
 804 1334 687 1296 601 1259 c 1
 596 1222 588 1178 578 1128 c 2
 546 970 l 2
 527 865 506 747 492 639 c 1
 582 606 688 584 803 584 c 0
 1055 584 1376 717 1376 1021 c 0
646 1779 m 0
 669 1779 694 1763 694 1741 c 0
 694 1740 646 1466 630 1394 c 1
 725 1432 835 1459 971 1459 c 0
 1199 1459 1499 1327 1499 1031 c 0
 1499 643 1111 449 798 449 c 0
 664 449 549 480 463 513 c 1
 370 87 l 2
 356 30 309 17 284 17 c 0
 254 17 225 36 225 69 c 0
 225 75 226 82 228 90 c 2
 312 445 l 1
 374 735 l 1
 422 980 l 2
 437 1055 452 1130 469 1203 c 1
 459 1193 439 1192 432 1192 c 0
 393 1192 384 1223 384 1240 c 0
 384 1288 493 1332 493 1332 c 1
 566 1703 l 2
 582 1774 632 1779 646 1779 c 0
EndSplineSet
EndChar
StartChar: uni00DF
Encoding: 223 223 186
Width: 1455
VWidth: 3622
Flags: W
HStem: 0 104<723.688 1065.93> 1756 105<933.79 1269.05>
VStem: 1008 108<847.373 1111.92> 1259 112<280.317 602.153> 1374 114<1402.47 1649.61>
Fore
629 170 m 0
 657 170 736 104 883 104 c 0
 1106 104 1259 243 1259 451 c 0
 1259 673 1008 742 1008 975 c 0
 1008 1188 1268 1307 1321 1330 c 1
 1356 1390 1374 1449 1374 1507 c 0
 1374 1640 1279 1756 1118 1756 c 0
 1015 1756 738 1727 603 1206 c 2
 603 1206 456 517 456 516 c 2
 308 -173 l 2
 274 -337 193 -518 129 -518 c 0
 85 -518 76 -486 76 -478 c 256
 76 -468 81 -457 90 -444 c 1
 88 -446 l 1
 106 -419 168 -317 200 -173 c 2
 488 1206 l 2
 590 1637 811 1861 1150 1861 c 0
 1342 1861 1488 1733 1488 1542 c 0
 1488 1424 1435 1324 1369 1247 c 1
 1200 1188 1116 1099 1116 980 c 0
 1116 800 1371 666 1371 460 c 0
 1371 184 1101 -0 858 0 c 0
 762 0 573 19 573 96 c 0
 573 129 595 170 629 170 c 0
EndSplineSet
EndChar
StartChar: ae
Encoding: 230 230 193
Width: 2177
VWidth: 3622
Flags: W
HStem: -7 103<376.833 752.75 1405.99 1713.45> 630 106<1776.09 2146> 652 110<672.723 1064 1062.02 1065.97 1065.97 1090 1226 1618.91> 1166 109<613.395 1012.97 1602.21 1995>
VStem: 199 111<166.104 413.414> 1090 106<553.582 651> 2150 97<736.636 1010.68>
Fore
426 1110 m 0xbe
 426 1188 704 1275 870 1275 c 0
 1162 1275 1223 1072 1235 964 c 1
 1372 1121 1589 1275 1825 1275 c 0
 2038 1275 2247 1188 2247 842 c 0
 2247 767 2235 690 2227 653 c 0
 2222 638 2213 630 2199 630 c 2xde
 1196 647 l 1
 1188 600 1184 555 1184 514 c 0
 1184 307 1284 119 1636 110 c 0
 1730 107 1754 66 1754 44 c 0
 1754 0 1693 -2 1645 -2 c 0
 1376 -2 1156 55 1084 320 c 1
 982 123 743 -7 508 -7 c 0
 330 -7 199 66 199 241 c 0
 199 449 397 762 1041 762 c 0
 1064 762 1088 762 1113 761 c 1
 1115 772 1123 827 1123 871 c 0
 1123 1009 1068 1166 847 1166 c 0
 613 1166 509 1068 467 1068 c 0
 434 1068 426 1097 426 1110 c 0xbe
1226 755 m 1
 1594 750 1778 741 2146 736 c 1
 2148 755 2150 776 2150 799 c 0
 2150 926 2121 1046 2000 1126 c 0
 1952 1158 1887 1175 1804 1176 c 0
 1517 1176 1303 950 1226 755 c 1
310 280 m 0
 310 169 407 96 539 96 c 0
 789 96 1006 263 1051 467 c 2
 1090 651 l 1
 1072 651 1053 652 1034 652 c 0xbe
 429 652 310 429 310 280 c 0
EndSplineSet
EndChar
StartChar: eth
Encoding: 240 240 203
Width: 1507
VWidth: 3622
Flags: W
HStem: -32 161<567.923 957.457> 1137 161<791.705 1174.15>
VStem: 207 180<308.31 707.971> 1350 199<604.401 970.089>
Fore
1549 911 m 0
 1549 332 1150 -32 720 -32 c 0
 403 -32 207 170 207 462 c 0
 207 964 663 1298 1014 1298 c 0
 1188 1298 1262 1251 1304 1222 c 1
 1271 1287 1210 1389 1077 1516 c 1
 999 1487 926 1457 857 1426 c 2
 649 1334 l 2
 616 1320 598 1423 598 1450 c 0
 598 1462 604 1471 616 1477 c 2
 945 1618 l 1
 933 1625 913 1636 886 1650 c 2
 804 1691 l 2
 801 1692 699 1744 699 1753 c 0
 699 1783 801 1907 814 1894 c 1
 930 1842 1048 1778 1139 1703 c 1
 1496 1859 l 2
 1509 1865 1521 1856 1523 1847 c 2
 1549 1737 l 1
 1549 1732 l 2
 1549 1722 1541 1711 1534 1707 c 2
 1259 1595 l 1
 1416 1445 1549 1208 1549 911 c 0
387 495 m 0
 387 266 547 129 750 129 c 0
 1163 129 1350 532 1350 808 c 0
 1350 1027 1169 1137 978 1137 c 0
 582 1137 387 737 387 495 c 0
EndSplineSet
EndChar
StartChar: divide
Encoding: 247 247 210
Width: 1123
VWidth: 3622
Flags: MW
HStem: 357 246<573.622 723.625> 663 117<677.083 1005.11> 738 111<413.01 694.71> 883 247<686.25 834>
VStem: 516 255<404.335 546.598> 628 255<930.688 1073.52>
Fore
343 663 m 0
 309 663 301 682 301 704 c 0
 301 761 406 849 557 849 c 0
 681 849 717 780 868 780 c 0
 959 780 987 828 1026 828 c 0
 1062 828 1070 804 1070 787 c 0
 1070 735 963 663 844 663 c 0
 715 663 633 738 520 738 c 0
 448 738 390 663 343 663 c 0
628 980 m 0
 628 1065 721 1130 815 1130 c 0
 856 1130 883 1076 883 1029 c 0
 883 948 803 883 731 883 c 0
 668 883 628 927 628 980 c 0
694 603 m 0
 717 603 771 597 771 502 c 0
 771 424 696 357 617 357 c 0
 557 357 516 398 516 453 c 0
 516 534 606 603 694 603 c 0
EndSplineSet
EndChar
StartChar: oslash
Encoding: 248 248 211
Width: 1542
VWidth: 3622
Flags: W
HStem: -7 122<597.379 957.9> 1172 118<790.777 1179.91>
VStem: 226 129<279.313 680.075> 1414 126<535.629 894.015>
Fore
985 1290 m 0
 1135 1290 1258 1239 1360 1171 c 1
 1452 1263 l 2
 1462 1273 1472 1277 1484 1277 c 0
 1517 1277 1554 1244 1554 1209 c 0
 1554 1198 1550 1187 1541 1178 c 2
 1442 1083 l 1
 1540 922 1540 799 1540 750 c 0
 1540 327 1098 -7 722 -7 c 0
 531 -7 434 62 403 85 c 1
 311 -5 l 2
 301 -13 291 -17 280 -17 c 0
 247 -17 211 14 211 47 c 0
 211 58 215 69 225 80 c 2
 318 170 l 1
 270 234 226 338 226 449 c 0
 226 762 498 1290 985 1290 c 0
976 1172 m 0
 627 1172 355 772 355 449 c 0
 355 376 375 312 412 260 c 1
 1266 1081 l 1
 1197 1125 1101 1172 976 1172 c 0
754 115 m 0
 1033 115 1414 376 1414 736 c 0
 1414 834 1387 914 1346 992 c 1
 501 175 l 1
 587 125 691 115 754 115 c 0
EndSplineSet
EndChar
StartChar: thorn
Encoding: 254 254 217
Width: 1597
VWidth: 3622
Flags: W
HStem: 27 129<584.679 1050.17> 1103 134<741.16 1210.58>
VStem: 1452 134<524.537 878.958>
Fore
1452 703 m 0
 1452 933 1267 1103 986 1103 c 0
 838 1103 722 1062 621 1010 c 1
 526 502 l 2
 510 414 496 329 485 246 c 1
 603 179 722 156 824 156 c 0
 1198 156 1452 464 1452 703 c 0
706 1732 m 0
 733 1732 751 1713 751 1685 c 0
 751 1669 734 1588 719 1524 c 2
 682 1372 l 2
 658 1279 632 1186 617 1141 c 1
 740 1203 868 1237 1023 1237 c 0
 1324 1237 1586 1084 1586 766 c 0
 1586 420 1312 27 812 27 c 0
 668 27 557 51 453 103 c 1
 334 -419 l 2
 325 -459 275 -490 237 -490 c 0
 209 -490 191 -468 191 -436 c 0
 191 -429 191 -422 193 -414 c 2
 276 -72 l 2
 387 405 451 788 483 939 c 1
 468 933 455 930 445 930 c 0
 420 930 401 948 401 975 c 0
 401 1043 504 1084 506 1084 c 1
 510 1098 510 1098 522 1155 c 2
 619 1640 l 2
 634 1721 689 1732 706 1732 c 0
EndSplineSet
EndChar
StartChar: ampersand.001
Encoding: 65538 -1 219
Width: 1538
VWidth: 3622
Flags: W
HStem: -29 113<522.803 941.767> 1657 127<820.701 1114.41>
VStem: 225 131<242.252 609.435> 455 130<1161.38 1435.96> 1199 139<1258.23 1566.43> 1481 129<543.395 879.76>
Fore
356 417 m 0
 356 262 437 84 737 84 c 0
 873 84 1070 169 1166 249 c 1
 952 396 831 641 745 911 c 1
 510 848 356 629 356 417 c 0
585 1284 m 0
 585 1139 706 1083 845 1083 c 0
 1096 1083 1199 1282 1199 1420 c 0
 1199 1551 1114 1657 986 1657 c 0
 810 1657 585 1484 585 1284 c 0
1521 925 m 0
 1557 925 1610 894 1610 762 c 0
 1610 617 1537 424 1394 272 c 1
 1452 219 1502 184 1580 152 c 2
 1624 131 l 2
 1647 120 1660 107 1660 92 c 0
 1660 71 1631 27 1588 27 c 0
 1577 27 1567 29 1555 34 c 2
 1470 68 l 2
 1397 98 1341 126 1274 187 c 1
 974 -20 805 -29 684 -29 c 0
 391 -29 225 160 225 399 c 0
 225 559 335 880 626 992 c 1
 521 1036 455 1138 455 1273 c 0
 455 1526 675 1784 1004 1784 c 0
 1271 1784 1338 1582 1338 1454 c 0
 1338 1264 1205 1015 888 959 c 1
 962 673 1080 492 1281 347 c 1
 1383 380 1481 577 1481 731 c 0
 1481 811 1457 816 1457 853 c 0
 1457 887 1482 925 1521 925 c 0
EndSplineSet
EndChar
StartChar: uni0E33.alt1
Encoding: 65539 -1 220
Width: 999
VWidth: 3622
Flags: W
HStem: 1201 104<544.399 870.229> 1503 96<-438.237 -277.231> 1773 98<-415.438 -260.201>
VStem: -536 94<1604.32 1742.86> -256 98<1646.09 1769.82> 944 110<893.862 1121.49>
Back
-189 1882 m 256
 -158.333 1882 -131.333 1876.33 -108 1865 c 128
 -84.6667 1853.67 -65.3333 1838.67 -50 1820 c 128
 -34.6667 1801.33 -24 1778.67 -18 1752 c 128
 -12 1725.33 -12 1697.33 -18 1668 c 0
 -24.6667 1636 -36.3333 1607 -53 1581 c 128
 -69.6667 1555 -89.8333 1532.33 -113.5 1513 c 128
 -137.167 1493.67 -163.333 1478.67 -192 1468 c 128
 -220.667 1457.33 -250.333 1452 -281 1452 c 256
 -311.667 1452 -338.833 1457.33 -362.5 1468 c 128
 -386.167 1478.67 -405.667 1493.67 -421 1513 c 128
 -436.333 1532.33 -447 1555 -453 1581 c 128
 -459 1607 -458.333 1636 -451 1668 c 0
 -445 1697.33 -433.5 1725.33 -416.5 1752 c 128
 -399.5 1778.67 -379.167 1801.33 -355.5 1820 c 128
 -331.833 1838.67 -305.833 1853.67 -277.5 1865 c 128
 -249.167 1876.33 -219.667 1882 -189 1882 c 256
-214 1779 m 0
 -226.667 1779 -240.167 1776.17 -254.5 1770.5 c 128
 -268.833 1764.83 -282.167 1757 -294.5 1747 c 128
 -306.833 1737 -317.667 1725.17 -327 1711.5 c 128
 -336.333 1697.83 -343 1683.33 -347 1668 c 0
 -353.667 1634.67 -349.333 1607.17 -334 1585.5 c 128
 -318.667 1563.83 -294 1553 -260 1553 c 0
 -226.667 1553 -197.167 1563.83 -171.5 1585.5 c 128
 -145.833 1607.17 -129.333 1634.67 -122 1668 c 0
 -116 1698.67 -121.5 1724.33 -138.5 1745 c 128
 -155.5 1765.67 -180.667 1777 -214 1779 c 0
269 941 m 0
 298.333 1054.33 347.833 1143.33 417.5 1208 c 128
 487.167 1272.67 583.333 1305 706 1305 c 0
 802.667 1305 874.333 1288.33 921 1255 c 128
 967.667 1221.67 997.667 1176.67 1011 1120 c 128
 1024.33 1063.33 1025.67 997.167 1015 921.5 c 128
 1004.33 845.833 990.333 765.667 973 681 c 2
 955 594 l 1
 833 73 l 2
 829.667 56.3333 823.167 44.5 813.5 37.5 c 128
 803.833 30.5 790.333 25.6667 773 23 c 0
 739 19.6667 725.333 36.3333 732 73 c 0
 746.667 136.333 758 187.833 766 227.5 c 128
 774 267.167 782.333 302.667 791 334 c 0
 798 366 798 366 809.5 415.5 c 128
 817.167 448.5 824 479.333 830 508 c 0
 844 561 844 561 858 617.5 c 128
 872 674 872 674 886 736 c 0
 906 820.667 914.333 896.667 911 964 c 0
 909.667 997.333 905.5 1028.33 898.5 1057 c 128
 891.5 1085.67 879.667 1110.67 863 1132 c 128
 846.333 1153.33 824.167 1170.17 796.5 1182.5 c 128
 768.833 1194.83 734 1201 692 1201 c 0
 646 1199.67 605.833 1193.5 571.5 1182.5 c 128
 537.167 1171.5 507 1155 481 1133 c 128
 455 1111 432.667 1083.17 414 1049.5 c 128
 395.333 1015.83 378.333 976 363 930 c 1
 359 923.333 355 917.333 351 912 c 128
 347 906.667 342 902.667 336 900 c 0
 322 893.333 309.667 890 299 890 c 0
 296.333 890 293 890.5 289 891.5 c 128
 285 892.5 281 895.167 277 899.5 c 128
 273 903.833 270 909.167 268 915.5 c 128
 266 921.833 266.333 930.333 269 941 c 0
EndSplineSet
Refer: 282 3634 N 1 0 0 1 0 0 2
Refer: 305 3661 N 1 0 0 1 -469 0 2
EndChar
StartChar: Lslash
Encoding: 321 321 222
Width: 1278
VWidth: 3622
Flags: W
HStem: 69 113<577.496 857.777 857.777 1014.27>
Fore
389 156 m 1
 552 179 698 182 801 182 c 0
 858 182 869 180 914 180 c 0
 1262 177 1267 160 1267 129 c 0
 1267 120 1261 51 1192 50 c 0
 1044 64 839 69 820 69 c 2
 754 69 l 2
 478 69 339 43 294 35 c 1
 249 35 238 48 238 80 c 0
 238 83 238 87 239 90 c 2
 387 787 l 1
 186 662 l 2
 171 654 159 650 148 650 c 0
 127 650 113 668 113 692 c 0
 113 715 127 736 154 755 c 2
 416 918 l 1
 441 1067 497 1314 520 1412 c 2
 598 1725 l 2
 611 1775 645 1797 676 1797 c 256
 702 1797 726 1780 726 1749 c 0
 726 1720 691 1646 647 1450 c 2
 576 1130 l 2
 570 1102 558 1045 550 987 c 1
 918 1208 l 2
 936 1216 951 1220 963 1220 c 0
 996 1220 1004 1190 1004 1174 c 0
 1004 1138 963 1118 953 1114 c 1
 531 861 l 1
 389 156 l 1
EndSplineSet
EndChar
StartChar: lslash
Encoding: 322 322 223
Width: 587
VWidth: 3622
Flags: MW
HStem: 11 21G<280 307.5> 1090 21G<588.273 608.8>
Fore
245 717 m 0
 211 717 195 750 195 779 c 0
 195 810 211 853 248 870 c 2
 417 978 l 1
 594 1792 l 1
 597 1847 650 1864 677 1864 c 0
 698 1864 737 1854 737 1814 c 0
 737 1808 736 1800 734 1792 c 2
 584 1090 l 1
 708 1190 l 2
 729 1204 749 1211 766 1211 c 0
 785 1211 819 1201 819 1162 c 0
 819 1131 801 1103 768 1079 c 2
 550 904 l 1
 368 71 l 1
 350 31 324 11 291 11 c 0
 269 11 230 20 230 54 c 0
 230 59 231 64 232 69 c 2
 396 803 l 1
 285 732 l 2
 269 722 256 717 245 717 c 0
EndSplineSet
EndChar
StartChar: caron
Encoding: 711 711 226
Width: 1162
VWidth: 3622
Flags: MW
HStem: 1804 347
Fore
705 2077 m 0
 705 2100 724 2133 768 2133 c 0
 797 2133 811 2119 817 2112 c 2
 1008 1916 l 1
 1023 1916 1035 1924 1074 1956 c 2
 1282 2131 l 2
 1304 2148 1326 2151 1338 2151 c 0
 1373 2151 1386 2128 1386 2113 c 0
 1386 2087 1358 2074 1269 1983 c 0
 1111 1821 1049 1804 994 1804 c 0
 923 1804 868 1850 711 2048 c 1
 707 2059 705 2068 705 2077 c 0
EndSplineSet
EndChar
StartChar: breve
Encoding: 728 728 227
Width: 1086
VWidth: 3622
Flags: W
HStem: 1429 110<739.987 1041.35>
VStem: 548 114<1616.13 1791.57 1784.58 1798.56> 1199 112<1652.73 1820.9>
Fore
1311 1802 m 1
 1311 1802 1247 1429 854 1429 c 0
 666 1429 548 1573 548 1734 c 0
 548 1798 563 1857 621 1857 c 256
 636 1857 667 1846 667 1815 c 0
 667 1802 662 1791 662 1753 c 0
 662 1637 736 1539 877 1539 c 0
 1042 1539 1158 1651 1199 1799 c 1
 1217 1836 1248 1843 1264 1843 c 0
 1288 1843 1308 1831 1311 1802 c 1
EndSplineSet
EndChar
StartChar: dotaccent
Encoding: 729 729 228
Width: 573
VWidth: 3622
Flags: W
HStem: 1503 301<547.512 718.785>
VStem: 479 309<1574.39 1734.55>
Fore
479 1618 m 0
 479 1708 556 1804 665 1804 c 256
 754 1804 788 1740 788 1688 c 0
 788 1613 720 1503 601 1503 c 256
 503 1503 479 1576 479 1618 c 0
EndSplineSet
EndChar
StartChar: ring
Encoding: 730 730 229
Width: 1006
VWidth: 3622
Flags: W
HStem: 1454 120<751.048 931.598> 1797 117<779.291 957.068>
VStem: 613 126<1605.28 1756.05> 971 119<1614.08 1783.1>
Fore
613 1639 m 0
 613 1769 753 1914 902 1914 c 0
 1013 1914 1090 1822 1090 1731 c 0
 1090 1616 984 1454 805 1454 c 256
 673 1454 613 1554 613 1639 c 0
877 1797 m 0
 795 1797 739 1724 739 1662 c 0
 739 1627 757 1574 830 1574 c 256
 913 1574 971 1645 971 1705 c 0
 971 1749 941 1797 877 1797 c 0
EndSplineSet
EndChar
StartChar: uni0E01
Encoding: 3585 3585 233
Width: 1455
VWidth: 3622
Flags: W
HStem: 1222 108<715.039 1164.23>
VStem: 526 98<531.943 711.094> 1176 101<-80.8577 192.89> 1301 120<668.847 1083.8>
Fore
375 103 m 1
 375 117 526 548 526 681 c 0
 526 698 532 709 426 741 c 2
 337 780 l 2
 289 802 239 819 239 868 c 0
 239 989 548 1330 982 1330 c 0
 1327 1330 1421 1192 1421 930 c 0
 1421 838 1416 767 1365 472 c 2
 1318 195 l 2
 1308 150 1298 104 1277 -34 c 1
 1277 -35 l 1
 1270 -81 1224 -83 1212 -83 c 0
 1188 -83 1176 -70 1176 -44 c 0
 1176 24 1301 597 1301 845 c 0
 1301 1100 1214 1222 960 1222 c 0
 623 1222 377 1005 345 899 c 1
 345 899 388 877 444 865 c 1
 574 806 624 811 624 695 c 0
 624 631 610 538 562 374 c 2
 444 -16 l 2
 435 -48 413 -64 380 -64 c 256
 353 -64 339 -52 339 -28 c 0
 339 -2 356 53 375 103 c 1
EndSplineSet
EndChar
StartChar: uni0E02
Encoding: 3586 3586 234
Width: 1068
VWidth: 3622
Flags: W
HStem: 0 103<591.989 754.719> 778 90<354.889 548.146> 1249 94<555.099 754.369>
VStem: 253 89<884.991 1081.32> 446 105<119.043 460.67> 591 102<909.384 1101.94> 778 96<1099.11 1209.35>
Fore
478 1117 m 0
 367 1117 342 1013 342 963 c 0
 342 887 405 868 457 868 c 0
 543 868 591 953 591 1019 c 0
 591 1064 568 1117 478 1117 c 0
430 778 m 0
 326 782 253 837 253 947 c 0
 253 1061 360 1343 669 1343 c 0
 862 1343 874 1177 874 1154 c 0
 874 1115 854 1039 820 963 c 2
 722 750 l 2
 590 487 551 367 551 251 c 0
 551 111 619 103 649 103 c 0
 710 103 794 103 866 245 c 0
 911 329 904 415 928 522 c 2
 960 711 l 2
 987 881 1056 1275 1100 1298 c 0
 1118 1307 1133 1312 1146 1312 c 0
 1165 1312 1177 1301 1177 1276 c 0
 1177 1266 1172 1254 1150 1164 c 2
 1125 1061 l 2
 1110 990 1096 920 1085 850 c 2
 1026 481 l 2
 987 233 915 0 628 0 c 0
 483 0 446 122 446 228 c 0
 446 364 501 500 532 568 c 2
 714 950 l 2
 760 1045 778 1105 778 1145 c 0
 778 1220 697 1249 636 1249 c 0
 588 1249 539 1230 518 1215 c 1
 630 1208 693 1167 693 1054 c 0
 693 875 531 778 430 778 c 0
EndSplineSet
EndChar
StartChar: uni0E03
Encoding: 3587 3587 235
Width: 1195
VWidth: 3622
Flags: W
HStem: -7 103<742.915 923.411> 775 90<361.343 549.605> 1236 103<530.532 656.726 836.96 916.066>
VStem: 253 97<877.962 1035.56> 593 99<148.427 412.757 909.24 1065.63> 917 96<972.525 1221.59> 1226 86<1039.22 1314>
Fore
593 1021 m 0
 593 1090 541 1107 490 1107 c 0
 370 1107 350 990 350 963 c 0
 350 904 379 865 461 865 c 0
 540 865 593 951 593 1021 c 0
676 1123 m 1
 674 1146 660 1236 596 1236 c 0
 568 1236 528 1227 502 1201 c 1
 583 1196 646 1178 676 1123 c 1
1269 1339 m 0
 1277 1339 1312 1329 1312 1284 c 1
 1286 1205 1241 1055 1204 821 c 2
 1174 628 l 2
 1150 447 1105 -7 810 -7 c 0
 654 -7 589 138 589 275 c 0
 589 329 603 420 662 542 c 2
 755 729 l 2
 858 914 917 1049 917 1173 c 0
 917 1219 910 1229 887 1229 c 0
 859 1229 841 1201 835 1189 c 2
 775 1081 l 2
 767 1067 740 1058 723 1058 c 0
 712 1058 702 1061 692 1067 c 1
 692 1033 l 2
 692 901 560 775 433 775 c 0
 285 779 253 877 253 950 c 0
 253 1127 445 1339 630 1339 c 0
 706 1339 738 1286 757 1224 c 1
 766 1240 815 1330 902 1330 c 0
 961 1330 1013 1318 1013 1141 c 0
 1013 1061 949 927 944 917 c 2
 853 725 l 2
 740 511 694 387 694 303 c 0
 694 214 728 96 831 96 c 0
 945 96 1007 262 1021 331 c 0
 1022 339 1025 359 1031 391 c 2
 1139 965 l 2
 1162 1090 1208 1290 1226 1314 c 1
 1242 1330 1257 1339 1269 1339 c 0
EndSplineSet
EndChar
StartChar: uni0E04
Encoding: 3588 3588 236
Width: 1478
VWidth: 3622
Flags: W
HStem: 11 21G<254.5 321.5> 398 94<743.777 888.888> 738 95<767.594 935.8> 1247 99<840.873 1202.12>
VStem: 971 93<540.45 723.75> 1359 94<758.194 1088.16>
Fore
274 11 m 0
 235 13 228 44 228 92 c 0
 228 104 258 584 403 871 c 0
 547 1158 783 1346 1037 1346 c 0
 1370 1346 1453 1152 1453 905 c 0
 1453 807 1441 682 1390 417 c 2
 1384 380 l 2
 1337 121 1303 3 1249 3 c 0
 1223 3 1220 33 1220 39 c 0
 1220 43 1221 54 1226 62 c 1
 1325 566 l 2
 1353 714 1359 808 1359 868 c 0
 1359 1171 1199 1238 1017 1247 c 0
 771 1247 496 997 402 578 c 0
 376 503 327 257 320 147 c 1
 317 133 308 114 299 110 c 1
 364 134 475 333 537 460 c 2
 593 578 l 2
 685 783 759 833 892 833 c 0
 1009 833 1064 781 1064 677 c 0
 1064 584 1008 398 785 398 c 0
 727 398 685 420 639 465 c 1
 434 90 369 11 274 11 c 0
971 655 m 0
 971 721 905 738 872 738 c 0
 766 738 730 654 695 550 c 1
 743 508 779 492 815 492 c 0
 838 492 971 508 971 655 c 0
EndSplineSet
EndChar
StartChar: uni0E05
Encoding: 3589 3589 237
Width: 1462
VWidth: 3622
Flags: W
HStem: 11 21G<259 310.5> 410 92<776.276 949.469> 745 99<768.088 962.706>
VStem: 207 108<121.303 255.452 255.452 333.423> 1000 99<552.354 729.43> 1380 99<602.342 1194.97>
Fore
272 11 m 0
 246 11 207 31 207 156 c 0
 207 466 366 1195 792 1346 c 1
 870 1339 927 1291 964 1238 c 0
 984 1216 1001 1192 1014 1167 c 1
 1093 1254 1200 1346 1295 1357 c 1
 1387 1343 1479 1280 1479 1010 c 0
 1479 783 1414 476 1347 162 c 2
 1320 41 l 1
 1309 30 1261 -17 1229 -17 c 0
 1219 -17 1212 -13 1212 4 c 0
 1212 24 1222 46 1261 210 c 2
 1302 384 l 2
 1308 413 1380 735 1380 969 c 0
 1380 1169 1331 1240 1258 1240 c 0
 1208 1240 1090 1119 1006 1021 c 0
 1001 1014 994 1010 986 1010 c 0
 960 1010 972 1041 902 1123 c 0
 874 1164 822 1215 773 1229 c 1
 635 1178 454 904 382 617 c 0
 356 552 329 320 329 311 c 2
 321 256 319 227 315 156 c 0
 315 132 309 117 297 110 c 1
 338 125 400 243 421 286 c 2
 483 410 l 2
 519 501 608 661 643 708 c 0
 733 829 835 844 913 844 c 0
 1037 844 1099 794 1099 693 c 0
 1099 592 1042 410 814 410 c 0
 766 410 684 430 621 476 c 1
 566 385 548 337 509 272 c 2
 436 142 l 2
 381 45 349 11 272 11 c 0
1000 661 m 0
 1000 731 924 745 891 745 c 0
 787 745 741 697 683 561 c 1
 745 508 831 502 837 502 c 0
 882 502 1000 533 1000 661 c 0
EndSplineSet
EndChar
StartChar: uni0E06
Encoding: 3590 3590 238
Width: 1521
VWidth: 3622
Flags: W
HStem: -46 94<426.667 631.538> 357 96<483.769 688.747> 688 92<338.092 528.328> 1011 87<405.348 555.754> 1183 103<448.954 626.751 824.907 909.523>
VStem: 234 94<793.011 942.293> 302 94<106.372 268.494> 565 97<816.892 998.551> 911 103<1014.73 1175.47>
Fore
440 780 m 0xfd80
 529 780 565 874 565 928 c 0
 565 990 512 1011 462 1011 c 0
 342 1011 328 886 328 866 c 0
 328 814 360 780 440 780 c 0xfd80
814 299 m 1
 757 57 686 -46 511 -46 c 0
 353 -46 302 42 302 136 c 0xfb80
 302 330 467 453 623 453 c 0
 691 453 715 445 736 437 c 1
 749 491 764 552 782 620 c 2
 833 814 l 2
 878 970 911 1102 911 1144 c 0
 911 1170 911 1176 854 1176 c 0
 836 1176 816 1150 808 1137 c 2
 750 1029 l 2
 740 1012 705 1006 694 1006 c 0
 679 1006 666 1013 654 1026 c 1
 654 1092 631 1183 538 1183 c 0
 480 1183 416 1171 389 1083 c 1
 426 1094 456 1098 485 1098 c 0
 607 1098 662 1017 662 933 c 0
 662 815 533 688 412 688 c 0
 285 688 234 754 234 854 c 0
 234 963 301 1286 568 1286 c 0
 616 1286 691 1261 723 1169 c 1
 785 1260 845 1279 876 1279 c 0
 936 1279 1014 1267 1014 1129 c 0
 1014 1064 897 695 838 409 c 1
 974 322 l 2
 1180 186 1200 152 1258 112 c 0
 1274 101 1289 89 1305 76 c 1
 1305 113 1532 1227 1532 1229 c 1
 1555 1277 1582 1285 1595 1285 c 0
 1631 1285 1631 1241 1631 1219 c 1
 1617 1165 1609 1123 1590 1047 c 2
 1574 973 l 2
 1548 839 1519 706 1503 640 c 2
 1433 308 l 2
 1423 256 1402 153 1378 51 c 1
 1350 -11 1301 -22 1273 -22 c 0
 1252 -22 1238 -15 1231 -11 c 2
 1049 127 l 2
 976 192 910 242 814 299 c 1
605 357 m 0
 474 357 396 225 396 174 c 0
 396 150 413 48 524 48 c 0
 650 48 688 160 720 327 c 1
 679 347 640 357 605 357 c 0
EndSplineSet
EndChar
StartChar: uni0E07
Encoding: 3591 3591 239
Width: 1199
VWidth: 3622
Flags: W
HStem: -4 108<801.575 890.672> 830 109<883.363 1082.27> 1078 20G<375.5 419> 1251 99<940.415 1146.85>
VStem: 760 105<959.04 1170.39> 1175 111<1022.3 1223.12>
Fore
1086 1350 m 0
 1246 1350 1286 1245 1286 1141 c 0
 1286 1081 1275 1020 1268 991 c 2
 1258 941 l 2
 1126 417 984 -4 835 -4 c 0
 722 -4 601 199 552 294 c 0
 384 614 320 1023 320 1045 c 0
 320 1088 364 1098 387 1098 c 0
 451 1098 407 1003 538 610 c 0
 569 516 660 251 770 151 c 0
 804 120 832 104 854 104 c 0
 905 104 1043 521 1107 752 c 2
 1141 876 l 1
 1100 850 1043 830 982 830 c 0
 820 830 760 929 760 1017 c 0
 760 1096 823 1350 1086 1350 c 0
865 1047 m 0
 865 961 930 939 1005 939 c 0
 1120 939 1175 1036 1175 1123 c 0
 1175 1201 1120 1251 1054 1251 c 0
 931 1251 865 1123 865 1047 c 0
EndSplineSet
EndChar
StartChar: uni0E08
Encoding: 3592 3592 240
Width: 1300
VWidth: 3622
Flags: W
HStem: 4 99<857.501 931.511> 428 101<648.234 816.588> 779 114<673.355 869.271> 1272 104<698.819 1106.57>
VStem: 264 106<723.07 990.182> 520 112<559.383 703.428> 790 97<106.926 208.299> 885 109<571.399 739.947> 1238 108<694.579 1140.48>
Fore
1238 941 m 0xfe80
 1238 1206 1089 1272 927 1272 c 0
 481 1272 391 876 370 771 c 0
 362 734 345 716 319 716 c 0
 293 716 264 733 264 762 c 1
 264 762 338 1376 950 1376 c 0
 1267 1376 1346 1174 1346 996 c 0
 1346 739 1198 269 992 64 c 0
 953 24 917 4 885 4 c 0xfd80
 828 4 790 39 790 131 c 0xfe80
 790 147 791 198 814 294 c 2
 838 409 l 2
 842 436 847 427 847 453 c 1
 808 436 767 428 716 428 c 0
 539 428 520 587 520 620 c 0
 520 756 668 893 812 893 c 0
 958 893 994 798 994 703 c 0xfd80
 994 618 971 558 944 442 c 2
 914 317 l 2
 894 213 887 178 887 143 c 0
 887 118 890 103 904 103 c 0
 942 103 1238 591 1238 941 c 0xfe80
772 779 m 0
 652 779 632 658 632 625 c 0
 632 587 653 529 751 529 c 0
 836 529 885 617 885 680 c 0
 885 718 868 779 772 779 c 0
EndSplineSet
EndChar
StartChar: uni0E09
Encoding: 3593 3593 241
Width: 1478
VWidth: 3622
Flags: W
HStem: -7 95<1098.47 1260.63> 343 97<301.092 453.477> 398 101<1186.15 1301.54> 689 98<330.668 527.069> 1226 109<655.911 1023.93>
VStem: 185 102<453.055 646.173> 537 116<488.08 678.118> 990 107<89.154 209.107> 1136 120<715.338 1102.27> 1326 93<195.533 375.737>
Fore
1419 307 m 0xbfc0
 1419 201 1341 -7 1131 -7 c 0
 1026 -7 990 37 990 124 c 0
 990 168 1000 224 1014 292 c 1
 859 207 814 164 763 132 c 0
 621 42 533 -3 495 -3 c 0
 449 -3 436 48 436 101 c 0
 436 187 474 302 493 380 c 1
 444 348 381 343 347 343 c 0xdfc0
 216 343 185 431 185 502 c 0
 185 600 261 787 455 787 c 0
 562 787 653 746 653 629 c 0
 653 557 610 458 564 242 c 0
 547 160 536 110 532 106 c 1
 587 135 639 166 692 200 c 2
 1059 448 l 1
 1072 492 1136 708 1136 882 c 0
 1136 1076 1066 1226 869 1226 c 0
 709 1226 523 1182 414 890 c 0
 397 853 361 832 332 832 c 0
 312 832 296 843 296 867 c 0
 296 919 413 1335 892 1335 c 0
 1110 1335 1256 1232 1256 933 c 0
 1256 839 1241 753 1234 721 c 2
 1203 574 l 2
 1196 543 1188 512 1181 488 c 1
 1205 499 1218 499 1247 499 c 0
 1337 499 1419 426 1419 307 c 0xbfc0
1151 88 m 0
 1297 88 1326 248 1326 280 c 0
 1326 339 1286 398 1222 398 c 0xbfc0
 1184 398 1156 382 1133 363 c 1
 1126 327 l 2
 1108 245 1097 188 1097 150 c 0
 1097 105 1113 88 1151 88 c 0
435 689 m 0
 328 689 287 593 287 538 c 0
 287 491 312 440 384 440 c 0xdfc0
 463 440 537 504 537 600 c 0
 537 647 514 689 435 689 c 0
EndSplineSet
EndChar
StartChar: uni0E0A
Encoding: 3594 3594 242
Width: 1137
VWidth: 3622
Flags: W
HStem: -0 103<578.534 774.428> 778 92<369.087 553.437> 1249 97<553.647 755.865>
VStem: 253 100<909.773 1046.63> 444 117<145.263 376.987> 596 97<910.297 1098.1> 778 100<1044.69 1224.03> 912 113<289.45 839.04 819.334 858.745 858.745 1021>
Fore
489 1114 m 0
 370 1114 353 1002 353 968 c 0
 353 936 369 870 461 870 c 0
 537 870 596 942 596 1016 c 0
 596 1056 574 1114 489 1114 c 0
693 1053 m 0
 693 875 531 778 430 778 c 0
 315 778 253 849 253 950 c 0
 253 1053 354 1346 667 1346 c 0
 787 1346 878 1309 878 1163 c 0
 878 1044 809 889 758 781 c 2
 620 488 l 2
 598 443 561 364 561 246 c 0
 561 193 572 103 638 103 c 0
 857 103 912 334 912 641 c 0
 912 727 901 923 901 968 c 0
 901 992 902 1013 904 1033 c 1
 1073 1301 1311 1425 1352 1425 c 0
 1375 1425 1393 1409 1393 1384 c 0
 1393 1362 1382 1343 1364 1330 c 0
 1356 1324 1093 1169 1012 1021 c 1
 1012 893 1025 847 1025 630 c 0
 1025 319 969 -0 641 -0 c 0
 523 -0 444 56 444 212 c 0
 444 278 459 404 534 568 c 2
 716 950 l 2
 761 1048 778 1108 778 1148 c 0
 778 1225 692 1249 638 1249 c 0
 590 1249 543 1231 518 1215 c 1
 630 1208 693 1167 693 1053 c 0
EndSplineSet
EndChar
StartChar: uni0E0B
Encoding: 3595 3595 243
Width: 1307
VWidth: 3622
Flags: W
HStem: -0 103<736.369 926.113> 775 90<362.98 549.997> 1048 20G<691 695.5> 1107 89<490 584.183> 1236 103<526.371 657.492 837.01 921.592>
VStem: 255 96<879.001 1071.14> 589 113<131.17 361.877 906.916 1066.78> 926 113<1066.26 1214.12> 1056 115<269.824 850.248 824.746 875.75 875.75 1021>
Fore
593 1022 m 0
 593 1090 543 1107 491 1107 c 0
 375 1107 351 1007 351 960 c 0
 351 903 381 865 463 865 c 0
 545 865 593 956 593 1022 c 0
513 1196 m 2
 604 1196 657 1156 679 1100 c 1
 674 1147 662 1236 598 1236 c 256
 579 1236 535 1228 490 1196 c 1
 513 1196 l 2
1171 618 m 0
 1171 161 1017 0 787 -0 c 0
 753 -0 589 -4 589 213 c 0
 589 273 601 399 678 564 c 2
 862 944 l 2
 881 986 926 1087 926 1155 c 0
 926 1181 919 1229 890 1229 c 0
 861 1229 841 1198 835 1189 c 2
 777 1081 l 2
 769 1067 733 1058 723 1058 c 0
 712 1058 701 1061 690 1068 c 1
 692 1058 692 1047 692 1035 c 0
 692 893 548 775 435 775 c 0
 287 775 255 876 255 950 c 0
 255 1129 449 1339 631 1339 c 0
 708 1339 740 1284 759 1224 c 1
 772 1247 817 1330 904 1330 c 0
 979 1330 1039 1304 1039 1199 c 0
 1039 1141 1013 1031 960 910 c 0
 788 523 702 414 702 253 c 0
 702 186 721 103 796 103 c 0
 1041 103 1056 418 1056 629 c 0
 1056 786 1044 886 1044 957 c 0
 1044 983 1046 1008 1049 1033 c 1
 1228 1307 1460 1425 1499 1425 c 0
 1522 1425 1539 1410 1539 1385 c 0
 1539 1377 1536 1350 1509 1330 c 0
 1496 1320 1247 1175 1157 1021 c 1
 1157 944 1171 845 1171 618 c 0
EndSplineSet
EndChar
StartChar: uni0E0C
Encoding: 3596 3596 244
Width: 1779
VWidth: 3622
Flags: W
HStem: 3 96<389.745 503.382 442.5 564.263 820.997 976.857> 317 100<848.298 1000.66> 340 90<453.326 608.141> 1201 103<585.535 988.913>
VStem: 272 104<109.065 293.333> 621 101<242 325.491> 699 102<103.585 222.881> 1102 114<656.797 1083.76>
Fore
722 242 m 1xbd
 744 293 824 417 978 417 c 0xdd
 996 417 1015 415 1035 412 c 1
 1047 467 l 2
 1090 668 1102 795 1102 877 c 0
 1102 1050 1046 1201 821 1201 c 0
 541 1201 374 1038 338 955 c 1
 527 876 l 1
 541 866 544 846 544 826 c 0
 544 772 522 688 479 554 c 2
 437 412 l 1
 473 429 519 430 545 430 c 0
 637 430 722 394 722 251 c 2
 722 242 l 1xbd
218 918 m 0
 218 1013 436 1304 812 1304 c 0
 1180 1304 1216 1115 1216 925 c 0
 1216 735 1159 495 1147 448 c 2
 1128 371 l 1
 1539 115 l 1
 1539 134 1558 233 1576 311 c 2
 1659 730 l 1
 1678 820 l 2
 1690 879 1705 968 1740 1114 c 2
 1765 1219 l 1
 1768 1253 1800 1270 1828 1270 c 0
 1849 1270 1886 1259 1886 1215 c 1
 1876 1186 1866 1151 1857 1112 c 2
 1825 973 l 1
 1758 647 l 2
 1744 581 1728 498 1725 481 c 258
 1631 73 l 1
 1620 51 1603 15 1546 0 c 1
 1518 0 1501 1 1488 7 c 1
 1118 251 l 1
 1110 215 1096 -2 842 -2 c 0
 785 -2 746 15 725 50 c 0
 708 85 699 120 699 155 c 0x9b
 699 175 702 175 702 175 c 1
 680 128 601 4 449 4 c 1
 445 3 440 3 436 3 c 0
 373 3 272 64 272 168 c 0
 272 260 402 634 430 761 c 0
 433 781 436 792 439 794 c 1
 418 804 378 822 347 835 c 2
 296 854 l 2
 242 874 218 892 218 918 c 0
469 99 m 0
 563 99 621 190 621 249 c 0
 621 302 581 340 520 340 c 0xbd
 423 340 376 249 376 192 c 0
 376 118 420 99 469 99 c 0
801 172 m 0xdb
 801 92 849 92 879 92 c 0
 1008 92 1018 233 1018 264 c 0
 1018 275 1017 287 1015 299 c 1
 993 311 971 317 948 317 c 0
 861 317 801 235 801 172 c 0xdb
EndSplineSet
EndChar
StartChar: uni0E0D
Encoding: 3597 3597 245
Width: 1775
VWidth: 3622
Flags: W
HStem: -610 106<976.608 1343.89> -181 109<830.914 1026.24> 5 103<386.242 571.209 1061.71 1184.5 1184.5 1209.08 1209.08 1346.01 1346.01 1541> 340 90<455.03 607.803> 1201 102<613.315 997.952>
VStem: 272 105<108.648 297.662> 621 102<148.497 325.503> 697 101<-400.644 -212.054> 1037 107<-356.753 -196.283> 1113 105<683.338 1080.37>
Fore
1008 7 m 0xfe40
 977 7 947 15 947 46 c 0
 947 53 948 60 950 69 c 2
 1067 555 l 2
 1069 565 1113 714 1113 872 c 0
 1113 1091 1022 1201 838 1201 c 0
 596 1201 385 1059 341 953 c 1
 529 876 l 1
 542 866 544 842 544 826 c 0
 544 772 522 688 479 554 c 2
 439 412 l 1
 472 429 514 430 540 430 c 0
 723 430 723 301 723 260 c 0
 723 190 647 3 436 3 c 0
 373 3 272 64 272 168 c 0
 272 237 347 474 361 515 c 2
 404 654 l 2
 444 791 433 787 440 794 c 1
 391 816 l 2
 301 858 218 868 218 918 c 0
 218 1042 539 1303 831 1303 c 0
 1149 1303 1218 1140 1218 922 c 0
 1218 831 1204 717 1176 578 c 2
 1061 115 l 1
 1076 112 1094 111 1112 111 c 0
 1170 111 1199 108 1257 108 c 0
 1379 108 1396 108 1431 109 c 2
 1541 111 l 1
 1579 276 l 2
 1613 427 1716 938 1716 938 c 1
 1748 1095 l 1
 1771 1222 l 2
 1775 1277 1815 1300 1838 1300 c 0
 1854 1300 1879 1288 1879 1250 c 0
 1879 1213 1867 1213 1838 1061 c 2
 1820 982 l 1
 1724 484 l 2
 1721 469 1667 194 1633 78 c 1
 1597 10 1574 5 1448 5 c 2
 1361 5 l 2
 1220 5 1149 7 1008 7 c 0xfe40
469 99 m 0
 563 99 621 190 621 249 c 0
 621 302 581 340 520 340 c 0
 418 340 377 240 377 192 c 0
 377 118 419 99 469 99 c 0
1754 -109 m 0
 1754 -115 1660 -610 1079 -610 c 0
 899 -610 697 -548 697 -346 c 0
 697 -148 871 -72 963 -72 c 0
 1056 -72 1144 -138 1144 -244 c 0xfd80
 1144 -289 1110 -428 957 -490 c 1
 997 -499 1039 -504 1083 -504 c 0
 1524 -504 1600 -238 1634 -133 c 0
 1651 -87 1684 -67 1712 -67 c 0
 1735 -67 1754 -82 1754 -109 c 0
922 -181 m 0
 868 -181 798 -219 798 -323 c 0
 798 -384 834 -409 878 -409 c 0
 947 -409 1037 -346 1037 -266 c 0
 1037 -203 980 -181 922 -181 c 0
EndSplineSet
Substitution2: "Single Substitution lookup 22 subtable" uni0E0D.alt1
Substitution2: "Single Substitution lookup 22 subtable" uni0E0D.alt1
EndChar
StartChar: uni0E0E
Encoding: 3598 3598 246
Width: 1376
VWidth: 3622
Flags: MW
HStem: -651 97<102.348 448.701> -280 101<172.741 595.811> -1 96<176.572 358.626> 337 90<204.345 391.884> 1233 104<695.669 1120.9>
VStem: -7 94<-530.39 -358.949> 62 100<110.579 294.551> 541 104<820 878.5> 1265 122<632.202 1079.19>
Fore
945 1337 m 0xfa80
 1313 1337 1387 1141 1387 917 c 0
 1387 726 1313 390 1286 281 c 2
 1201 -122 l 2
 1098 -516 1108 -610 1022 -610 c 0
 995 -610 965 -497 729 -379 c 1
 646 -553 417 -651 233 -651 c 0
 119 -651 -7 -611 -7 -485 c 0xfc80
 -7 -363 85 -179 365 -179 c 0
 530 -179 655 -232 676 -242 c 1
 692 -193 l 2
 694 -185 701 -152 739 -152 c 0
 767 -152 796 -175 787 -209 c 2
 771 -272 l 1
 872 -320 907 -342 958 -386 c 2
 1021 -442 l 1
 1205 384 l 2
 1252 611 1265 753 1265 846 c 0
 1265 1080 1183 1216 969 1233 c 0
 634 1233 440 1063 400 987 c 1
 630 914 l 1
 640 909 645 893 645 864 c 0
 645 823 625 706 600 587 c 2
 573 470 l 2
 564 432 554 393 543 356 c 2
 497 189 l 2
 460 54 323 -1 241 -1 c 0
 190 -1 62 22 62 156 c 0
 62 274 156 427 320 427 c 0
 422 427 441 401 457 386 c 1
 501 566 l 2
 523 672 541 807 541 833 c 1
 475 877 273 885 273 953 c 0
 273 1012 484 1337 945 1337 c 0xfa80
309 337 m 0
 232 337 162 275 162 191 c 0xfa80
 162 139 200 95 266 95 c 0
 350 95 404 183 404 238 c 0
 404 317 357 337 309 337 c 0
357 -280 m 0
 193 -280 87 -354 87 -466 c 0xfc80
 87 -533 169 -554 237 -554 c 0
 402 -554 598 -462 640 -343 c 1
 613 -329 497 -280 357 -280 c 0
EndSplineSet
Substitution2: "Single Substitution lookup 22 subtable" uni0E0E.alt1
Substitution2: "Single Substitution lookup 22 subtable" uni0E0E.alt1
EndChar
StartChar: uni0E0F
Encoding: 3599 3599 247
Width: 1406
VWidth: 3622
Flags: MW
HStem: -603 95<69.0266 224.398> -267 97<79.6225 262.58> -1 96<219.786 402.425> 337 90<247.279 434.768> 1235 102<708.77 1178.74>
VStem: -54 95<-499.556 -306.56> 105 99<112.807 294.113> 585 102<815 882> 1306 103<653.962 1100.05>
Fore
835 -228 m 1
 911 -228 959 -431 1022 -504 c 1
 1057 -414 1085 -288 1154 17 c 2
 1196 210 l 2
 1208 259 1306 692 1306 893 c 0
 1306 1235 1083 1235 955 1235 c 0
 698 1235 513 1108 442 987 c 1
 672 914 l 1
 684 908 687 892 687 872 c 0
 687 829 659 617 584 356 c 2
 539 189 l 2
 505 56 369 -1 286 -1 c 0
 222 -1 105 28 105 158 c 0
 105 294 216 427 362 427 c 0
 477 427 492 387 502 384 c 1
 545 566 l 2
 562 651 585 797 585 833 c 1
 553 851 490 869 446 879 c 2
 394 893 l 2
 331 910 316 931 316 950 c 0
 316 1006 511 1337 978 1337 c 0
 1125 1337 1409 1330 1409 901 c 0
 1409 849 1404 687 1337 379 c 2
 1231 -124 l 2
 1114 -589 1089 -624 994 -624 c 0
 971 -624 949 -591 936 -569 c 2
 906 -516 l 2
 877 -462 836 -358 817 -354 c 0
 816 -354 808 -362 793 -377 c 2
 741 -432 l 2
 711 -456 582 -617 529 -617 c 0
 479 -617 440 -538 403 -453 c 2
 375 -393 l 1
 344 -513 225 -603 116 -603 c 0
 53 -603 -54 -570 -54 -439 c 0
 -54 -308 36 -170 218 -170 c 0
 263 -170 304 -180 331 -198 c 1
 334 -178 337 -119 387 -119 c 0
 421 -119 437 -143 437 -179 c 2
 430 -253 l 1
 456 -292 471 -332 502 -389 c 2
 534 -457 l 2
 545 -482 544 -496 541 -499 c 1
 637 -400 l 2
 702 -343 783 -253 835 -228 c 1
346 337 m 0
 268 337 204 270 204 193 c 0
 204 139 244 95 310 95 c 0
 396 95 448 190 448 237 c 0
 448 285 428 337 346 337 c 0
120 -508 m 0
 213 -508 293 -406 293 -332 c 0
 293 -280 224 -267 187 -267 c 0
 121 -267 41 -310 41 -412 c 0
 41 -491 88 -508 120 -508 c 0
EndSplineSet
Substitution2: "Single Substitution lookup 22 subtable" uni0E0F.alt1
Substitution2: "Single Substitution lookup 22 subtable" uni0E0F.alt1
EndChar
StartChar: uni0E10
Encoding: 3600 3600 248
Width: 1271
VWidth: 3622
Flags: W
HStem: -649 94<-93.0847 8.90217 279.316 308> -386 96<-85.5318 49.9279 639.231 737.941> -113 90<667.711 787.819> 0 103<753.501 850.839> 340 93<510.409 683.799> 701 102<545.929 737.538> 847 110<368.258 746.209 746.209 898.755 822.482 1103.17> 989 104<1171.91 1273.93> 1222 101<612.117 963.975>
VStem: -204 96<-552.42 -408.112> 126 104<-321.288 -248.588> 240 124<911.395 1043.25> 385 106<489.208 646.197> 539 99<-273.143 -139.633> 680 108<105.3 291.234> 760 102<482.673 677.14> 816 104<-242.348 -123.219> 1110 106<609.179 837.766>
Fore
641 701 m 0xfffd40
 540 701 491 585 491 538 c 0
 491 503 507 433 608 433 c 0
 681 433 760 501 760 588 c 0
 760 648 716 701 641 701 c 0xfffd40
69 -435 m 1
 69 -433 l 1
 69 -435 l 1
-108 -502 m 0
 -108 -544 -73 -555 -50 -555 c 0
 -14 -555 61 -526 69 -433 c 1
 58 -395 20 -386 -4 -386 c 0
 -64 -386 -108 -440 -108 -502 c 0
523 -506 m 0
 499 -506 345 -662 299 -662 c 0
 240 -662 170 -556 143 -504 c 1
 86 -615 -22 -649 -63 -649 c 0
 -142 -649 -204 -592 -204 -506 c 0
 -204 -381 -84 -290 25 -290 c 0
 66 -290 99 -301 124 -322 c 1
 125 -317 126 -312 126 -306 c 0
 126 -295 124 -283 120 -269 c 1
 123 -225 158 -204 183 -204 c 0
 219 -204 230 -229 230 -271 c 0
 230 -307 207 -386 207 -386 c 1
 242 -442 298 -555 308 -555 c 1
 325 -540 483 -412 539 -393 c 1
 589 -393 615 -446 723 -554 c 1
 751 -502 774 -372 775 -359 c 1
 754 -372 722 -379 681 -379 c 0
 595 -379 539 -324 539 -242 c 0
 539 -136 629 -23 754 -23 c 0
 850 -23 920 -52 920 -169 c 0xfffcc0
 920 -213 907 -241 884 -345 c 0
 827 -605 808 -667 695 -667 c 0
 642 -662 553 -506 523 -506 c 0
638 -233 m 0
 638 -255 647 -288 708 -288 c 0
 718 -288 816 -263 816 -189 c 0
 816 -134 762 -113 738 -113 c 0
 684 -113 638 -190 638 -233 c 0
1216 814 m 0
 1216 676 995 0 777 0 c 0
 719 0 680 32 680 135 c 0xfffe40
 680 164 685 217 703 332 c 2
 708 363 l 1
 685 352 656 340 578 340 c 0
 400 340 385 495 385 526 c 0
 385 651 512 803 676 803 c 0
 824 803 862 700 862 606 c 0xfffd40
 862 510 788 272 788 145 c 0xfffe40
 788 116 791 103 805 103 c 0
 874 103 1110 624 1110 773 c 0
 1110 821 1092 853 936 853 c 0
 676 853 639 847 565 847 c 2
 492 847 l 2
 306 847 240 864 240 933 c 0
 240 1086 564 1323 801 1323 c 0
 1171 1323 1134 1093 1238 1093 c 0
 1294 1093 1243 1167 1332 1167 c 0
 1362 1167 1377 1156 1377 1135 c 0
 1377 1082 1301 989 1215 989 c 0
 1174 989 1141 1000 1117 1020 c 0
 1008 1115 1007 1222 791 1222 c 0
 608 1222 364 1054 364 969 c 0
 364 959 390 957 566 957 c 2
 727 957 l 2
 797 957 1044 959 1079 959 c 0
 1189 959 1216 885 1216 814 c 0
EndSplineSet
Substitution2: "Single Substitution lookup 22 subtable" uni0E10.alt1
Substitution2: "Single Substitution lookup 22 subtable" uni0E10.alt1
EndChar
StartChar: uni0E11
Encoding: 3601 3601 249
Width: 1648
VWidth: 3622
Flags: W
HStem: 688 92<341.796 532.766> 1011 87<408.049 559.77> 1183 103<433.3 633.724 823.904 923.901> 1190 105<1335.16 1537.69>
VStem: 238 94<794.363 937.917> 568 98<815.118 999.171> 925 102<1027 1163.79> 1565 109<743.736 1168.03>
Fore
456 1011 m 0xcf
 345 1011 332 878 332 858 c 0
 332 827 351 780 445 780 c 0
 536 780 568 877 568 929 c 0
 568 995 512 1011 456 1011 c 0xcf
771 7 m 0
 744 7 723 23 723 48 c 0
 723 71 732 63 754 172 c 2
 780 285 l 2
 793 345 806 410 818 480 c 2
 891 883 l 2
 912 996 925 1066 925 1112 c 0
 925 1151 916 1176 879 1176 c 0
 831 1172 826 1131 801 1082 c 2
 771 1022 l 1
 744 1004 715 1002 705 1002 c 0
 687 1002 675 1009 669 1024 c 1
 669 1077 636 1183 548 1183 c 0
 490 1183 410 1143 389 1081 c 1
 424 1092 458 1098 490 1098 c 0
 611 1098 666 1014 666 931 c 0
 666 812 536 688 417 688 c 0
 299 688 238 737 238 855 c 0
 238 1042 366 1286 579 1286 c 0xef
 621 1286 703 1263 739 1169 c 1
 782 1242 835 1279 899 1279 c 256
 993 1279 1027 1234 1027 1121 c 0
 1027 1068 1019 987 994 856 c 1
 1048 969 1212 1295 1491 1295 c 0
 1568 1295 1674 1253 1674 996 c 0
 1674 795 1600 493 1544 258 c 2
 1515 145 l 2
 1506 110 1499 77 1493 46 c 1
 1493 31 1447 3 1421 3 c 0
 1404 3 1393 17 1389 44 c 1
 1400 96 1413 152 1428 210 c 2
 1473 398 l 2
 1507 540 1518 575 1528 635 c 2
 1549 777 l 2
 1555 816 1565 895 1565 973 c 0
 1565 1115 1545 1190 1465 1190 c 0xdf
 1098 1190 897 274 853 69 c 0
 835 20 790 7 771 7 c 0
EndSplineSet
EndChar
StartChar: uni0E12
Encoding: 3602 3602 250
Width: 1912
VWidth: 3622
Flags: W
HStem: -1 93<968.015 1139.31> 317 100<1007.55 1165.29> 398 92<564.039 689.72> 738 99<577.017 771.246> 1176 110<615.601 821.118 1107.75 1273.98>
VStem: 230 85<88.5652 247.965> 428 104<499.506 691.849> 787 107<545.272 721.384> 853 109<97.8877 271.707> 1307 102<832.824 1170.8>
Fore
626 490 m 0xbf40
 728 490 787 587 787 643 c 0
 787 700 740 738 679 738 c 0
 570 738 532 630 532 593 c 0
 532 496 591 490 626 490 c 0xbf40
1275 249 m 1
 1275 243 1264 -1 1014 -1 c 0
 881 -1 853 92 853 157 c 0
 853 245 950 417 1137 417 c 0xdec0
 1163 417 1177 417 1199 412 c 1
 1258 670 l 1
 1275 787 l 2
 1300 941 1307 994 1307 1046 c 0
 1307 1175 1255 1180 1217 1180 c 0
 1116 1180 1044 1088 983 941 c 1
 966 915 949 904 927 904 c 0
 880 904 881 960 881 960 c 1
 857 1081 842 1176 727 1176 c 0
 472 1176 394 662 354 440 c 0
 320 257 315 162 315 132 c 0
 315 102 318 88 324 88 c 0
 369 88 486 180 566 253 c 2
 648 338 l 2
 674 367 699 396 720 425 c 1
 679 407 641 398 607 398 c 0
 463 398 428 485 428 562 c 0
 428 668 536 837 704 837 c 0
 792 837 894 774 894 656 c 0xbf40
 894 542 810 293 494 86 c 0
 493 85 374 5 287 -11 c 1
 249 -8 230 43 230 144 c 0
 230 243 255 459 296 668 c 0
 321 797 419 1286 750 1286 c 0
 919 1286 953 1154 962 1107 c 1xbec0
 994 1176 1078 1286 1252 1286 c 0
 1376 1286 1409 1215 1409 1082 c 0
 1409 942 1364 693 1297 379 c 1
 1680 111 l 1
 1680 137 1770 541 1838 886 c 2
 1874 1070 l 2
 1885 1130 1896 1180 1905 1222 c 1
 1923 1269 1952 1286 1976 1286 c 0
 2002 1286 2019 1264 2019 1238 c 0
 2019 1207 2011 1240 1924 818 c 2
 1844 428 l 1
 1765 87 l 2
 1755 61 1731 -1 1668 -1 c 0
 1649 -1 1635 3 1622 11 c 2
 1275 249 l 1
1056 92 m 0
 1154 92 1178 212 1178 263 c 0
 1178 275 1178 288 1176 301 c 1
 1157 311 1137 317 1111 317 c 0
 1028 317 962 241 962 176 c 0
 962 104 999 92 1056 92 c 0
EndSplineSet
EndChar
StartChar: uni0E13
Encoding: 3603 3603 251
Width: 1963
VWidth: 3622
Flags: W
HStem: -8 96<390.045 561.686 1620.91 1753.67> 308 99<1668.7 1794.53> 327 93<451.99 607.354> 1209 102<589.693 975.001>
VStem: 271 104<120.386 249.894> 620 101<139.076 313.336> 1088 109<714.983 1088.14> 1498 102<84.1476 204.108> 1809 98<172.167 293.044>
Fore
1810 1306 m 0xbf80
 1831 1306 1850 1293 1850 1273 c 0
 1850 1269 1849 1265 1848 1261 c 2
 1828 1150 l 2
 1820 1112 1813 1074 1804 1037 c 258
 1780 922 l 2
 1745 764 1744 788 1726 697 c 2
 1682 492 l 2
 1675 461 1669 431 1664 400 c 1
 1676 402 1701 407 1725 407 c 0xdf80
 1850 407 1907 323 1907 227 c 0
 1907 189 1899 125 1818 39 c 0
 1784 5 1737 -12 1678 -12 c 0
 1583 -12 1498 31 1498 131 c 0
 1498 175 1512 227 1518 242 c 1
 1038 2 l 2
 1023 -4 1007 -7 992 -7 c 0
 929 -7 929 43 929 64 c 0
 929 71 1061 672 1061 672 c 2
 1079 758 1088 832 1088 895 c 0
 1088 1059 1032 1209 805 1209 c 0
 589 1209 397 1086 340 955 c 1
 529 876 l 1
 539 868 544 854 544 834 c 0
 544 779 520 689 505 638 c 2
 467 506 l 2
 461 488 456 470 451 454 c 2
 437 402 l 1
 459 414 489 420 529 420 c 0
 631 420 721 387 721 253 c 0
 721 158 632 -8 435 -8 c 0
 365 -8 271 59 271 159 c 0
 271 193 287 262 316 362 c 2
 376 559 l 2
 438 752 433 788 442 794 c 1
 392 816 l 2
 295 859 220 870 220 918 c 0
 220 1016 446 1311 812 1311 c 0
 937 1311 1197 1298 1197 962 c 0
 1197 768 1127 555 1077 258 c 2
 1068 216 l 2
 1064 195 1054 132 1051 111 c 1
 1553 359 l 1
 1733 1245 l 1
 1754 1294 1790 1306 1810 1306 c 0xbf80
375 185 m 0
 375 144 390 88 467 88 c 0
 563 88 620 180 620 240 c 0
 620 292 578 327 518 327 c 0xbf80
 414 327 375 226 375 185 c 0
1809 216 m 0
 1809 266 1771 308 1712 308 c 0xdf80
 1693 308 1668 301 1636 288 c 1
 1617 245 l 2
 1604 215 1600 180 1600 164 c 0
 1600 82 1649 80 1679 80 c 0
 1718 80 1745 88 1760 104 c 0
 1805 149 1809 195 1809 216 c 0
EndSplineSet
EndChar
StartChar: uni0E14
Encoding: 3604 3604 252
Width: 1445
VWidth: 3622
Flags: W
HStem: -11 107<290.501 441.068> 439 90<684.09 817.22> 778 90<717.332 899.002> 1226 109<789.016 1158.41>
VStem: 224 104<96.8274 332.638> 568 104<541.221 732.07> 911 106<583.303 766.474> 1333 99<714.913 1035.42>
Fore
1017 666 m 0
 1017 395 494 -11 297 -11 c 0
 253 -11 224 18 224 114 c 0
 224 166 233 300 299 633 c 0
 408 1195 810 1335 998 1335 c 0
 1344 1335 1432 1082 1432 849 c 0
 1432 797 1429 717 1406 589 c 2
 1293 34 l 1
 1283 14 1257 -4 1235 -4 c 0
 1201 -4 1192 16 1192 30 c 1
 1305 582 l 2
 1324 671 1333 749 1333 816 c 0
 1333 986 1266 1226 975 1226 c 0
 748 1226 486 1021 407 626 c 0
 397 576 328 231 328 132 c 0
 328 108 331 96 338 96 c 0
 416 96 625 228 835 456 c 1
 802 445 773 439 750 439 c 0
 604 439 568 537 568 611 c 0
 568 699 668 868 840 868 c 0
 914 868 1017 805 1017 666 c 0
769 529 m 0
 869 529 911 646 911 686 c 0
 911 734 880 778 821 778 c 0
 714 778 672 677 672 632 c 0
 672 583 691 529 769 529 c 0
EndSplineSet
EndChar
StartChar: uni0E15
Encoding: 3605 3605 253
Width: 1445
VWidth: 3622
Flags: W
HStem: -11 107<289.779 432.867> 398 92<551.896 692.561> 738 99<585.623 770.366> 1219 101<666.006 849.496 1155.84 1334.77>
VStem: 223 103<97.8906 346.046> 438 101<499.585 660.498> 787 104<541.773 720.997> 1366 108<811.511 1197.11>
Fore
1366 1015 m 0
 1366 1169 1326 1222 1266 1222 c 0
 1112 1222 1038 999 1026 978 c 0
 1014 957 997 946 975 946 c 0
 936 946 936 968 936 987 c 1
 921 1052 898 1107 867 1153 c 0
 844 1197 801 1219 738 1219 c 0
 514 1219 417 722 364 434 c 0
 344 319 326 203 326 145 c 0
 326 99 334 96 344 96 c 0
 390 96 505 189 571 253 c 2
 652 338 l 2
 679 367 702 396 722 425 c 1
 683 407 647 398 614 398 c 0
 482 398 438 477 438 560 c 0
 438 678 549 837 708 837 c 0
 794 837 891 772 891 656 c 0
 891 359 478 -11 299 -11 c 0
 248 -11 223 39 223 139 c 0
 223 266 328 1172 643 1296 c 0
 684 1312 722 1320 757 1320 c 0
 841 1320 903 1293 943 1238 c 0
 972 1201 992 1164 1001 1127 c 1
 1076 1252 1173 1320 1288 1320 c 0
 1436 1320 1474 1205 1474 1038 c 0
 1474 941 1456 827 1429 697 c 2
 1295 34 l 1
 1285 14 1260 -4 1236 -4 c 0
 1217 -4 1194 3 1194 30 c 1
 1316 630 l 2
 1331 701 1366 881 1366 1015 c 0
631 490 m 0
 734 490 787 592 787 643 c 0
 787 700 740 738 683 738 c 0
 575 738 539 627 539 593 c 0
 539 517 576 490 631 490 c 0
EndSplineSet
EndChar
StartChar: uni0E16
Encoding: 3606 3606 254
Width: 1372
VWidth: 3622
Flags: W
HStem: 3 96<429.227 612.435> 340 90<501.861 651.104> 1230 102<642.392 1184.43>
VStem: 319 101<108.841 295.394> 665 100<151.58 324.751> 1297 97<619.935 1124.35>
Fore
765 265 m 0
 765 171 672 3 478 3 c 0
 407 3 319 65 319 168 c 0
 319 256 451 651 479 791 c 0
 483 816 486 829 488 831 c 1
 416 875 222 889 222 953 c 0
 222 987 380 1332 946 1332 c 0
 1293 1332 1394 1180 1394 951 c 0
 1394 821 1358 619 1309 414 c 2
 1265 226 l 2
 1250 151 1235 114 1220 39 c 1
 1201 20 1183 10 1166 10 c 0
 1158 10 1114 13 1114 44 c 1
 1190 348 l 2
 1251 595 1297 804 1297 946 c 0
 1297 1173 1180 1230 942 1230 c 0
 587 1230 405 1084 348 987 c 1
 578 914 l 1
 588 904 594 888 594 866 c 0
 594 830 587 791 557 686 c 2
 520 557 l 2
 505 497 494 468 479 409 c 1
 513 423 548 430 586 430 c 0
 729 430 765 344 765 265 c 0
511 99 m 0
 607 99 665 197 665 248 c 0
 665 303 620 340 562 340 c 0
 467 340 420 249 420 192 c 0
 420 118 463 99 511 99 c 0
EndSplineSet
EndChar
StartChar: uni0E17
Encoding: 3607 3607 255
Width: 1469
VWidth: 3622
Flags: W
HStem: 815 107<404.674 606.414> 1189 114<1250.24 1385.2> 1247 99<464.37 690.742>
VStem: 278 109<939.686 1164.23> 721 104<1017.56 1215.7> 1399 111<825.574 1153.31>
Fore
502 922 m 0xbc
 576 922 721 961 721 1120 c 0
 721 1206 655 1247 577 1247 c 0
 442 1247 387 1102 387 1036 c 0
 387 945 445 922 502 922 c 0xbc
1399 1051 m 0
 1399 1118 1389 1189 1330 1189 c 0xdc
 1245 1189 1024 927 808 427 c 2
 649 39 l 1
 618 8 582 -1 555 -1 c 0
 525 -1 497 11 497 56 c 0
 497 68 500 82 504 99 c 2
 674 863 l 1
 615 821 533 815 487 815 c 0
 320 815 278 934 278 1025 c 0
 278 1182 415 1346 598 1346 c 0xbc
 719 1346 825 1305 825 1142 c 0
 825 1085 826 1053 782 856 c 2
 738 656 l 2
 692 449 679 421 669 361 c 1
 766 609 1081 1303 1355 1303 c 0xdc
 1486 1303 1510 1217 1510 1072 c 0
 1510 755 1338 128 1323 35 c 1
 1316 17 1280 -2 1257 -2 c 0
 1227 -2 1219 17 1219 46 c 1
 1223 69 1234 140 1265 279 c 2
 1328 577 l 2
 1382 823 1399 967 1399 1051 c 0
EndSplineSet
EndChar
StartChar: uni0E18
Encoding: 3608 3608 256
Width: 1188
VWidth: 3622
Flags: W
HStem: 12 101<369.33 452.693 452.693 580.615 580.615 653.661 653.661 865> 782 101<403.956 476 476 674 674 966.951> 946 99<1166.19 1232.33> 1201 104<623.856 962.983>
VStem: 283 110<841.101 985.562> 972 120<575.545 765.314>
Fore
366 117 m 1
 401 115 471 113 541 113 c 0
 606 113 736 116 865 127 c 1
 893 222 972 621 972 692 c 0
 972 761 952 769 872 769 c 2
 476 782 l 2
 317 785 283 797 283 853 c 0
 283 996 509 1305 810 1305 c 0
 1164 1305 1154 1045 1192 1045 c 0
 1249 1045 1218 1148 1297 1148 c 0
 1334 1148 1341 1126 1341 1112 c 0
 1341 1049 1275 946 1174 946 c 0
 1006 946 1100 1201 789 1201 c 0
 563 1201 393 953 393 900 c 0
 393 886 423 883 554 883 c 2
 772 883 l 2
 1029 883 1092 892 1092 759 c 0
 1092 683 1062 538 1045 460 c 2
 975 127 l 2
 969 76 926 21 867 21 c 2
 617 14 l 2
 595 13 571 12 544 12 c 2
 412 12 l 2
 246 18 237 26 237 50 c 1
 359 600 l 1
 376 639 399 658 428 658 c 0
 476 658 471 616 471 601 c 1
 366 117 l 1
EndSplineSet
EndChar
StartChar: uni0E19
Encoding: 3609 3609 257
Width: 1641
VWidth: 3622
Flags: W
HStem: -18 98<1233.54 1416.4> 382 94<1300.99 1462.96> 769 101<385.26 586.64> 1205 93<453.388 678.507>
VStem: 267 96<893.706 1111.99> 709 103<985.669 1172.17> 1113 102<93.3279 285.052> 1489 97<153.451 355.655>
Fore
1113 192 m 0
 1113 232 1118 276 1128 325 c 1
 1065 291 1010 259 965 230 c 2
 738 82 l 2
 653 27 610 6 579 6 c 0
 534 6 511 30 511 85 c 0
 544 337 586 489 597 541 c 2
 612 617 l 2
 616 637 628 697 658 815 c 1
 596 778 512 769 476 769 c 0
 302 769 267 896 267 980 c 0
 267 1137 398 1298 585 1298 c 0
 708 1298 812 1258 812 1099 c 0
 812 1035 788 931 778 886 c 258
 731 667 l 2
 720 624 710 582 702 538 c 2
 628 204 l 2
 617 153 607 117 605 115 c 1
 808 214 845 285 1151 437 c 1
 1314 1174 l 1
 1334 1272 l 1
 1353 1304 1372 1320 1391 1320 c 0
 1412 1320 1442 1297 1442 1264 c 0
 1442 1240 1411 1149 1346 857 c 2
 1261 462 l 1
 1296 471 1334 476 1383 476 c 0
 1561 476 1586 356 1586 302 c 0
 1586 151 1467 -18 1282 -18 c 0
 1181 -18 1113 36 1113 192 c 0
501 870 m 0
 574 870 709 925 709 1076 c 0
 709 1153 655.09 1205 566 1205 c 0
 449 1205 363 1082 363 982 c 0
 363 937 383 870 501 870 c 0
1489 263 m 0
 1489 320 1450 382 1362 382 c 0
 1328 382 1286 371 1235 350 c 1
 1221 295 1215 249 1215 211 c 0
 1215 133 1247 80 1304 80 c 0
 1431 80 1489 213 1489 263 c 0
EndSplineSet
EndChar
StartChar: uni0E1A
Encoding: 3610 3610 258
Width: 1542
VWidth: 3622
Flags: W
HStem: -5 115<672.796 793.784 793.784 807.946 807.946 1044.14 1044.14 1173.6 1173.6 1270> 796 101<453.788 699.352> 1229 94<516.239 744.511>
VStem: 335 96<919.639 1140.09> 776 104<1008.26 1197.55>
Fore
653 1323 m 0
 835 1323 880 1218 880 1116 c 0
 880 1050 838 831 750 445 c 2
 670 111 l 1
 769 110 851 110 916 110 c 2
 1076 110 l 2
 1172 110 1200 111 1270 111 c 1
 1258 123 1282 206 1322 424 c 2
 1373 700 l 2
 1382 754 1425 1023 1472 1235 c 0
 1476 1281 1512 1311 1539 1311 c 256
 1557 1311 1583 1299 1583 1260 c 0
 1583 1252 1582 1243 1580 1233 c 2
 1484 651 l 2
 1451 450 1401 175 1362 62 c 1
 1352 -8 1279 -5 1162 -5 c 0
 1090 -5 1066 -4 923 -4 c 0
 808 -4 785 -11 694 -11 c 0
 599 -11 563 5 547 23 c 1
 620 361 608 313 653 506 c 2
 731 842 l 1
 702 820 649 796 538 796 c 0
 367 796 335 924 335 1005 c 0
 335 1157 469 1323 653 1323 c 0
571 897 m 0
 638 897 776 946 776 1101 c 0
 776 1187 713 1229 627 1229 c 0
 502 1229 431 1088 431 1014 c 0
 431 920 496 897 571 897 c 0
EndSplineSet
EndChar
StartChar: uni0E1B
Encoding: 3611 3611 259
Width: 1434
VWidth: 3622
Flags: W
HStem: -12 123<605.251 726.104 726.104 1031.93 1031.93 1085.42 1085.42 1208.34> 796 101<387.24 635.188> 1229 94<451.846 681.347>
VStem: 271 96<916.824 1139.42> 712 102<1005.15 1195.86>
Fore
587 1323 m 0
 768 1323 814 1214 814 1105 c 0
 814 1054 793 929 684 445 c 2
 605 111 l 1
 610 110 638 108 720 108 c 2
 984 108 l 2
 1064 108 1145 109 1185 111 c 2
 1210 111 l 1
 1191 116 1217 197 1266 472 c 2
 1470 1608 l 2
 1492 1738 1500 1764 1519 1868 c 1
 1532 1895 1555 1909 1588 1909 c 0
 1603 1909 1635 1903 1635 1873 c 0
 1635 1858 1626 1835 1604 1716 c 2
 1468 966 l 1
 1337 272 l 2
 1333 244 1328 221 1323 195 c 0
 1282 1 1314 2 1132 -9 c 0
 1092 -12 1031 -12 929 -12 c 0
 839 -12 749 -9 479 -4 c 1
 552 345 l 1
 667 842 l 1
 644 826 592 796 472 796 c 0
 311 796 271 915 271 1005 c 0
 271 1153 397 1323 587 1323 c 0
504 897 m 0
 575 897 712 947 712 1099 c 0
 712 1203 625 1229 566 1229 c 0
 444 1229 367 1100 367 1013 c 0
 367 920 426 897 504 897 c 0
EndSplineSet
EndChar
StartChar: uni0E1C
Encoding: 3612 3612 260
Width: 1268
VWidth: 3622
Flags: W
HStem: 4 125<977.268 1047.47> 804 99<517.964 730.783> 1234 106<557.781 783.873>
VStem: 807 109<983.665 1211.4>
Fore
233 4 m 0
 193 4 183 26 183 69 c 0
 183 131 207 260 264 522 c 0
 366 989 355 1104 468 1232 c 0
 531 1304 617 1340 706 1340 c 0
 832 1340 916 1257 916 1139 c 0
 916 981 784 804 590 804 c 0
 512 804 446 853 444 861 c 1
 414 700 l 1
 330 304 l 2
 304 181 309 171 295 149 c 1
 330 176 362 203 393 230 c 2
 485 313 l 2
 536 366 620 468 706 610 c 0
 720 630 747 640 768 640 c 0
 818 640 814 605 814 605 c 1
 839 416 949 129 1042 129 c 1
 1036 129 1172 781 1174 791 c 2
 1282 1272 l 1
 1296 1302 1314 1317 1336 1317 c 0
 1349 1317 1393 1309 1393 1267 c 0
 1393 1246 1386 1246 1348 1058 c 2
 1309 877 l 2
 1198 355 1147 151 1118 76 c 1
 1108 63 1059 4 1022 4 c 0
 959 6 796 95 723 440 c 1
 596 241 331 4 233 4 c 0
685 1234 m 0
 527 1234 488 1091 488 1032 c 0
 488 960 539 903 615 903 c 0
 716 903 807 995 807 1116 c 0
 807 1210 736 1234 685 1234 c 0
EndSplineSet
EndChar
StartChar: uni0E1D
Encoding: 3613 3613 261
Width: 1278
VWidth: 3622
Flags: W
HStem: 804 99<516.909 729.76> 1234 106<557.281 787.364>
VStem: 808 108<982.872 1211.02>
Fore
237 0 m 0
 195 0 186 28 186 67 c 0
 186 122 206 241 278 585 c 2
 357 982 l 2
 414 1307 630 1340 706 1340 c 0
 832 1340 916 1257 916 1139 c 0
 916 981 784 804 590 804 c 0
 544 804 451 837 446 860 c 1
 437 805 424 740 410 667 c 0
 335 304 313 160 271 122 c 1
 378 185 515 301 702 610 c 0
 716 630 743 640 765 640 c 0
 813 640 810 605 810 605 c 1
 829 462 925 269 925 269 c 1
 982 159 l 2
 998 130 1007 114 1010 113 c 1
 1040 157 1273 1188 1350 1548 c 2
 1426 1896 l 1
 1439 1927 1456 1942 1477 1942 c 0
 1538 1942 1532 1898 1532 1882 c 0
 1532 1881 1372 1127 1329 936 c 2
 1251 595 l 2
 1234 521 1165 231 1116 92 c 0
 1099 55 1053 4 1019 4 c 2
 1015 4 l 2
 935 4 781 127 720 437 c 1
 619 272 343 0 237 0 c 0
685 1234 m 0
 527 1234 488 1091 488 1032 c 0
 488 960 539 903 615 903 c 0
 719 903 808 999 808 1120 c 0
 808 1211 734 1234 685 1234 c 0
EndSplineSet
EndChar
StartChar: uni0E1E
Encoding: 3614 3614 262
Width: 1507
VWidth: 3622
Flags: W
HStem: 796 97<397.632 609.558> 1222 105<444.779 667.883>
VStem: 258 113<918.893 1144.01> 690 121<975.838 1199.93>
Fore
577 1327 m 0
 781 1327 811 1221 811 1107 c 0
 811 936 702 512 647 225 c 2
 637 173 l 1
 709 263 702 248 738 303 c 2
 803 403 l 2
 864 498 962 683 1010 830 c 1
 1029 866 1063 872 1076 872 c 0
 1093 872 1123 864 1123 830 c 0
 1123 440 1185 133 1226 133 c 0
 1281 133 1518 1261 1521 1277 c 1
 1533 1296 1560 1307 1580 1307 c 0
 1593 1307 1623 1304 1631 1281 c 1
 1506 730 l 2
 1364 131 1277 7 1206 7 c 0
 1096 7 1038 306 1022 584 c 1
 880 264 659 7 568 7 c 0
 525 7 514 30 514 72 c 0
 514 172 595 462 663 860 c 1
 633 831 586 796 471 796 c 0
 344 796 258 875 258 997 c 0
 258 1153 386 1327 577 1327 c 0
499 893 m 0
 587 893 690 987 690 1101 c 0
 690 1159 665 1222 564 1222 c 0
 453 1222 371 1127 371 1013 c 0
 371 932 434 893 499 893 c 0
EndSplineSet
EndChar
StartChar: uni0E1F
Encoding: 3615 3615 263
Width: 1499
VWidth: 3622
Flags: W
HStem: 11 21G<560 626 1136 1294> 801 103<394.047 573.682> 1233 106<441.074 662.969>
VStem: 259 107<932.841 1155.95> 686 130<1008.68 1211.81>
Fore
1112 800 m 0
 1112 478 1185 143 1233 143 c 0
 1240 143 1287 335 1287 336 c 2
 1397 796 l 2
 1423 894 1520 1381 1544 1509 c 2
 1583 1726 l 2
 1615 1910 1608 1973 1668 1973 c 0
 1687 1973 1721 1964 1721 1927 c 0
 1721 1897 1689 1638 1615 1256 c 2
 1564 999 l 2
 1542 919 1365 11 1223 11 c 0
 1049 11 1011 539 1006 610 c 1
 865 278 668 11 584 11 c 0
 536 11 526 49 526 102 c 0
 526 145 533 210 554 315 c 2
 622 654 l 2
 632 706 637 718 649 782 c 2
 667 872 l 1
 611 821 538 801 476 801 c 0
 341 801 259 894 259 1012 c 0
 259 1164 387 1339 582 1339 c 0
 772 1339 816 1256 816 1131 c 0
 816 1095 812 1054 805 1008 c 2
 693 462 l 2
 656 270 650 159 642 159 c 1
 647 159 733 297 743 315 c 2
 799 414 l 258
 859 521 948 717 964 760 c 2
 996 854 l 2
 1011 890 1038 911 1066 911 c 0
 1086 911 1114 898 1114 860 c 0
 1113 842 1112 822 1112 800 c 0
497 904 m 256
 596 904 686 1003 686 1111 c 0
 686 1190 643 1233 564 1233 c 0
 451 1233 366 1138 366 1026 c 0
 366 942 434 904 497 904 c 256
EndSplineSet
EndChar
StartChar: uni0E20
Encoding: 3616 3616 264
Width: 1386
VWidth: 3622
Flags: MW
HStem: -1 92<180.72 361.58> 334 92<206.915 394.535> 1240 104<706.913 1222.73>
VStem: 62 103<108.057 292.654> 541 112<820 901> 1309 117<902.528 1154.6>
Fore
456 386 m 1
 466 420 474 452 482 481 c 2
 501 566 l 2
 525 672 541 807 541 833 c 1
 442 888 289 883 289 951 c 0
 289 1009 475 1344 1018 1344 c 0
 1344 1344 1426 1215 1426 1021 c 0
 1426 960 1414 850 1385 713 c 2
 1377 676 l 2
 1357 586 1305 389 1231 37 c 1
 1211 17 1193 7 1178 7 c 0
 1164 7 1121 16 1121 42 c 0
 1121 46 1212 432 1233 524 c 2
 1263 662 l 2
 1287 774 1309 901 1309 986 c 0
 1309 1168 1227 1240 1035 1240 c 0
 768 1240 510 1168 416 987 c 1
 635 908 653 935 653 867 c 0
 653 832 639 737 632 698 c 2
 580 440 l 2
 505 115 483 115 461 93 c 0
 395 27 307 -1 243 -1 c 0
 198 -1 62 17 62 156 c 0
 62 262 144 426 327 426 c 0
 439 426 450 388 456 386 c 1
310 334 m 0
 245 334 165 282 165 190 c 0
 165 131 208 91 266 91 c 0
 358 91 406 186 406 239 c 0
 406 315 357 334 310 334 c 0
EndSplineSet
EndChar
StartChar: uni0E21
Encoding: 3617 3617 265
Width: 1282
VWidth: 3622
Flags: W
HStem: -18 90<244.546 479.587> 387 94<294.688 493.479> 774 94<408.723 651.821> 1212 90<474.548 700.249>
VStem: 127 94<95.0157 313.003> 289 97<891.462 1117.69> 738 111<996.152 1176.1> 1281 113<1103.87 1256>
Fore
221 184 m 0
 221 108 278 72 353 72 c 0
 545 72 546 263 570 341 c 1
 521 375 464 387 419 387 c 0
 282 387 221 274 221 184 c 0
437 481 m 0
 496 481 544 467 585 449 c 1
 681 817 l 1
 648 798 588 774 485 774 c 0
 328 774 289 897 289 984 c 0
 289 1132 417 1302 608 1302 c 0
 811 1302 849 1178 849 1096 c 0
 849 1079 847 1061 844 1042 c 2
 688 421 l 1
 726 390 760 360 791 332 c 2
 877 248 l 2
 903 223 932 196 964 170 c 2
 1061 88 l 1
 1059 90 1058 107 1074 199 c 2
 1096 312 l 2
 1125 458 1137 493 1174 676 c 2
 1252 1074 l 2
 1263 1129 1272 1175 1281 1210 c 1
 1282 1242 1315 1258 1342 1258 c 0
 1363 1258 1394 1249 1394 1211 c 0
 1394 1205 l 1
 1385 1176 1376 1142 1366 1102 c 2
 1196 313 l 1
 1137 64 l 1
 1111 -2 1056 -11 1039 -11 c 0
 1012 -11 988 -13 898 80 c 2
 817 157 l 1
 745 231 l 2
 724 253 696 278 663 306 c 1
 619 99 534 -18 342 -18 c 0
 206 -18 127 49 127 184 c 0
 127 300 253 481 437 481 c 0
525 868 m 0
 598 868 738 929 738 1075 c 0
 738 1185 642 1212 580 1212 c 0
 464 1212 386 1072 386 990 c 0
 386 892 452 868 525 868 c 0
EndSplineSet
EndChar
StartChar: uni0E22
Encoding: 3618 3618 266
Width: 1261
VWidth: 3622
Flags: W
HStem: 0 92<437.838 879.048> 580 100<483.202 554.738 554.738 646.792> 840 96<512.289 739.897> 1247 99<550.207 784.217>
VStem: 218 102<192.484 388.945> 327 91<698.68 879.496> 805 103<1003.35 1226.84>
Fore
218 266 m 0
 218 308 247 516 391 630 c 1
 344 653 327 713 327 785 c 0
 327 832 344 1083 452 1223 c 0
 504 1291 586 1346 709 1346 c 0
 872 1346 908 1239 908 1147 c 0
 908 1010 790 840 608 840 c 0
 532 840 476 863 430 916 c 1
 423 880 418 838 418 811 c 0
 418 684 500 680 528 680 c 0
 566 680 574 679 580 679 c 0
 633 679 682 695 697 695 c 0
 712 695 714 669 714 661 c 0
 714 608 659 587 626 587 c 2
 479 580 l 1
 386 509 382 493 380 490 c 0
 352 447 320 359 320 302 c 0
 320 161 489 92 631 92 c 0
 924 92 1064 222 1098 384 c 2
 1250 1098 l 2
 1293 1304 1281 1346 1350 1346 c 0
 1381 1346 1397 1335 1397 1314 c 0
 1397 1311 1397 1308 1396 1304 c 2
 1201 386 l 2
 1139 127 954 0 580 0 c 0
 410 0 218 103 218 266 c 0
686 1247 m 0
 507 1247 481 1090 481 1058 c 0
 481 981 551 936 626 936 c 0
 744 936 805 1045 805 1128 c 0
 805 1187 782 1247 686 1247 c 0
EndSplineSet
EndChar
StartChar: uni0E23
Encoding: 3619 3619 267
Width: 1261
VWidth: 3622
Flags: W
HStem: 4 99<549.371 752.416> 357 101<581.998 782.465> 769 98<342.996 546.2 546.2 722.469 722.469 889.148> 934 95<1159.79 1234.62> 1187 104<591.389 934.853>
VStem: 230 111<818.98 968.749> 429 105<117.288 310.502> 909 98<598.743 746.405>
Fore
865 387 m 1
 865 387 909 611 909 657 c 0
 909 751 859 769 709 769 c 2
 423 766 l 2
 294 766 230 770 230 837 c 0
 230 986 482 1291 784 1291 c 0
 1133 1291 1149 1029 1196 1029 c 0
 1219 1029 1223 1040 1235 1067 c 1
 1235 1074 1244 1134 1302 1134 c 0
 1330 1134 1345 1121 1345 1094 c 0
 1345 1030 1276 934 1180 934 c 0
 1143 934 1116 942 1100 960 c 0
 1030 1029 990 1187 762 1187 c 0
 527 1187 341 938 341 886 c 0
 341 873 355 865 485 865 c 0
 534 865 546 867 608 867 c 0
 700 867 723 868 838 868 c 0
 973 868 1007 804 1007 673 c 0
 1007 641 1002 608 994 573 c 2
 918 244 l 2
 875 54 729 4 628 4 c 0
 498 4 429 100 429 196 c 0
 429 316 558 458 711 458 c 0
 776 458 832 435 865 387 c 1
534 200 m 0
 534 160 555 103 639 103 c 0
 781 103 799 238 799 260 c 0
 799 302 768 357 692 357 c 0
 584 357 534 272 534 200 c 0
EndSplineSet
EndChar
StartChar: uni0E24
Encoding: 3620 3620 268
Width: 1379
VWidth: 3622
Flags: W
HStem: -1 97<437.201 600.056> 336 91<484.758 638.732> 1231 103<641.434 1150.23>
VStem: 301 107<105.836 256.409> 651 101<146.368 322.794> 1282 111<594.755 1103.67>
Fore
567 427 m 0
 614 427 752 423 752 256 c 0
 752 155 654 -1 468 -1 c 0
 405 -1 301 59 301 167 c 0
 301 203 314 253 344 348 c 0
 411 560 484 819 488 821 c 1
 474 832 454 840 428 848 c 2
 354 868 l 2
 246 897 218 916 218 942 c 0
 218 1020 480 1334 922 1334 c 0
 1232 1334 1393 1258 1393 954 c 0
 1393 709 1269 167 1151 -327 c 2
 1081 -639 l 2
 1072 -674 1030 -707 1000 -707 c 0
 982 -707 969 -696 969 -667 c 0
 969 -578 1282 536 1282 897 c 0
 1282 1116 1211 1231 909 1231 c 0
 626 1231 438 1104 350 980 c 1
 580 904 l 1
 589 897 593 885 593 868 c 0
 593 789 496 510 467 407 c 1
 502 425 537 427 567 427 c 0
501 96 m 0
 599 96 651 196 651 246 c 0
 651 299 612 336 552 336 c 0
 452 336 408 240 408 192 c 0
 408 100 469 96 501 96 c 0
EndSplineSet
EndChar
StartChar: uni0E25
Encoding: 3621 3621 269
Width: 1438
VWidth: 3622
Flags: W
HStem: 0 99<417.637 621.016> 343 105<498.272 656.37> 752 99<707.973 950.31> 1247 106<765.022 1148.33>
VStem: 299 104<115.119 296.768> 672 98<152.631 305.004> 1340 116<756.803 1045.5>
Fore
497 0 m 0
 406 0 299 57 299 149 c 0
 299 300 473 851 858 851 c 0
 1079 851 1149 641 1174 404 c 0
 1199 159 1192 136 1206 136 c 0
 1215 136 1295 516 1304 568 c 2
 1321 656 l 2
 1334 724 1340 784 1340 838 c 0
 1340 1073 1198 1247 978 1247 c 0
 633 1247 476 968 402 713 c 0
 387 670 347 663 333 663 c 0
 305 663 298 681 298 700 c 0
 298 718 441 1353 996 1353 c 256
 1283 1353 1456 1170 1456 885 c 0
 1456 829 1449 747 1418 605 c 2
 1389 458 l 2
 1318 152 1271 18 1192 18 c 0
 1151 18 1111 51 1090 196 c 2
 1075 306 l 2
 1045 593 987 752 842 752 c 0
 766 752 561 672 463 417 c 1
 491 432 540 448 591 448 c 0
 717 448 770 355 770 263 c 0
 770 117 635 0 497 0 c 0
566 343 m 0
 491 343 403 293 403 192 c 0
 403 129 451 99 516 99 c 0
 615 99 672 197 672 242 c 0
 672 273 661 343 566 343 c 0
EndSplineSet
EndChar
StartChar: uni0E26
Encoding: 3622 3622 270
Width: 1376
VWidth: 3622
Flags: MW
HStem: -1 96<176.572 358.626> 337 89<203.93 393.123> 1240 103<751.729 1216.36>
VStem: 62 100<110.579 295.536> 541 104<820 898> 1302 101<861.084 1154.17>
Fore
338 426 m 0
 434 426 452 387 456 386 c 1
 466 420 474 452 482 481 c 2
 501 566 l 2
 523 672 541 807 541 833 c 1
 458 883 293 884 293 949 c 0
 293 1041 599 1343 1031 1343 c 0
 1329 1343 1403 1167 1403 971 c 0
 1403 863 1377 700 1346 555 c 2
 1095 -606 l 2
 1088 -638 1083 -659 1081 -670 c 1
 1058 -693 1041 -704 1028 -704 c 0
 1008 -704 974 -684 974 -672 c 0
 974 -668 978 -647 985 -614 c 2
 1068 -228 l 2
 1077 -191 1086 -149 1096 -100 c 2
 1245 580 l 2
 1280 739 1302 875 1302 978 c 0
 1302 1162 1226 1240 1033 1240 c 0
 694 1240 482 1079 421 987 c 1
 639 906 645 932 645 864 c 0
 645 823 625 706 600 587 c 2
 573 470 l 2
 564 432 554 393 543 356 c 2
 497 189 l 2
 460 54 323 -1 241 -1 c 0
 190 -1 62 22 62 156 c 0
 62 241 122 426 338 426 c 0
309 337 m 0
 232 337 162 275 162 191 c 0
 162 139 200 95 266 95 c 0
 350 95 404 183 404 238 c 0
 404 317 357 337 309 337 c 0
EndSplineSet
EndChar
StartChar: uni0E27
Encoding: 3623 3623 271
Width: 1043
VWidth: 3622
Flags: W
HStem: -5 100<592.673 778.64> 337 97<621.405 813.069> 1265 101<527.529 917.961>
VStem: 470 108<112.547 296.369> 1002 107<963.49 1183.49>
Fore
741 1366 m 0
 949 1366 1109 1308 1109 1077 c 0
 1109 1033 1102 917 1035 633 c 2
 939 209 l 2
 899 63 736 -5 649 -5 c 0
 599 -5 470 21 470 163 c 0
 470 298 594 434 738 434 c 0
 786 434 835 424 870 389 c 1
 973 819 l 2
 991 902 1002 983 1002 1036 c 0
 1002 1172 942 1265 721 1265 c 0
 479 1265 373 1121 322 922 c 0
 310 880 276 867 252 867 c 0
 229 867 217 879 217 904 c 0
 217 917 264 1366 741 1366 c 0
719 337 m 0
 641 337 578 269 578 191 c 0
 578 133 623 95 681 95 c 0
 763 95 829 184 829 233 c 0
 829 269 812 337 719 337 c 0
EndSplineSet
EndChar
StartChar: uni0E28
Encoding: 3624 3624 272
Width: 1448
VWidth: 3622
Flags: W
HStem: 11 21G<146 191.5> 421 90<647.465 836.033> 755 92<669.74 882.964> 1243 103<761.235 1127.86>
VStem: 893 91<568.63 725.099> 1313 118<751.626 1000.83> 1751 97<1603.78 1848>
Fore
1798 1892 m 0
 1838 1892 1848 1852 1848 1852 c 1
 1842 1602 1704 1230 1426 992 c 1
 1429 966 1431 938 1431 908 c 0
 1431 807 1413 684 1390 570 c 2
 1309 191 l 2
 1299 148 1280 76 1270 48 c 1
 1250 16 1230 -1 1210 -1 c 0
 1177 -1 1166 29 1171 34 c 1
 1258 430 l 2
 1286 558 1313 718 1313 821 c 0
 1313 1159 1111 1243 934 1243 c 0
 699 1243 403 990 298 546 c 0
 246 324 208 133 198 126 c 1
 232 131 303 241 344 310 c 2
 427 458 l 2
 509 609 577 847 795 847 c 0
 953 847 984 755 984 694 c 0
 984 552 862 421 713 421 c 0
 676 421 580 440 548 490 c 1
 332 74 231 11 152 11 c 0
 140 11 121 21 121 83 c 0
 121 163 178 626 305 887 c 0
 437 1159 662 1346 955 1346 c 0
 1278 1346 1364 1172 1396 1083 c 1
 1624 1299 1731 1568 1751 1848 c 1
 1763 1880 1779 1892 1798 1892 c 0
784 755 m 0
 713 755 622 706 622 602 c 0
 622 536 672 511 736 511 c 0
 823 511 893 606 893 670 c 0
 893 704 879 755 784 755 c 0
EndSplineSet
EndChar
StartChar: uni0E29
Encoding: 3625 3625 273
Width: 1528
VWidth: 3622
Flags: W
HStem: -4 112<628.565 656.079 656.079 796.908 796.908 995.931 995.931 1209> 448 97<1103.19 1245.97 1230.09 1261.84 1261.84 1276> 796 101<414.788 660.871> 819 95<975.206 1117.33> 1229 94<478.074 708.005>
VStem: 296 96<919.816 1139.65> 738 103<1007.67 1197.71> 861 97<646.536 804.68> 1144 93<671.408 809.43>
Back
769 722 m 2
 741 596 741 596 706.5 445 c 128
 672 294 672 294 628 111 c 1
 640 109 654.833 108 672.5 108 c 128
 699 108 699 108 734 108 c 2
 937 108 l 2
 975 108 1014.33 108.333 1055 109 c 128
 1116 110 1116 110 1183 111 c 2
 1210 111 l 1
 1207.33 111 1210.5 135 1219.5 183 c 128
 1228.5 231 1240.67 292 1256 366 c 0
 1272.67 436.667 1285 493.333 1293 536 c 0
 1355 854 l 0
 1362.33 886 1369.5 919.333 1376.5 954 c 128
 1387 1006 1387 1006 1397.5 1056.5 c 128
 1408 1107 1408 1107 1417.5 1152 c 128
 1427 1197 1427 1197 1434 1233 c 1
 1441.33 1251.67 1450.83 1263.67 1462.5 1269 c 128
 1474.17 1274.33 1486 1275.17 1498 1271.5 c 128
 1510 1267.83 1519.83 1260.83 1527.5 1250.5 c 128
 1535.17 1240.17 1537.33 1228.33 1534 1215 c 0
 1525.33 1175 1518 1135.83 1512 1097.5 c 128
 1506 1059.17 1499 1020 1491 980 c 0
 1477 904 1477 904 1462 818 c 128
 1452 760.667 1441.67 704.333 1431 649 c 0
 1415 570 1415 570 1396.5 481.5 c 128
 1384.17 422.5 1373.33 368 1364 318 c 0
 1346 241 1346 241 1330 176 c 128
 1319.33 132.667 1308.67 95.3333 1298 64 c 1
 1292 29.3333 1270.33 8 1233 0 c 1
 909 -4 l 2
 871.667 -4 834 -3.66667 796 -3 c 128
 758 -2.33333 721 -0.666667 685 2 c 0
 676.333 2 661.667 1.66667 641 1 c 128
 620.333 0.333333 599.667 0.833333 579 2.5 c 128
 558.333 4.16667 540.333 7.66667 525 13 c 128
 509.667 18.3333 504 28 508 42 c 2
 577 345 l 2
 598 437 598 437 614 506 c 128
 630 575 630 575 643 630.5 c 128
 656 686 656 686 667.5 736.5 c 128
 679 787 679 787 692 842 c 1
 669.333 825.333 643.333 813.833 614 807.5 c 128
 584.667 801.167 550.333 797.333 511 796 c 0
 421.667 793.333 361.667 820 331 876 c 0
 297.667 933.333 288 994 302 1058 c 0
 308 1090.67 319.667 1122 337 1152 c 128
 354.333 1182 376.333 1210.67 403 1238 c 0
 430.333 1264 462 1284.67 498 1300 c 128
 534 1315.33 572.667 1323 614 1323 c 0
 701.333 1323 763 1300 799 1254 c 128
 835 1208 848 1146.67 838 1070 c 0
 834.667 1046.67 829.5 1015.17 822.5 975.5 c 128
 815.5 935.833 806 890 794 838 c 2
 769 722 l 2
731 1047 m 0
 743.667 1102.33 737.833 1146 713.5 1178 c 128
 689.167 1210 650.667 1227 598 1229 c 0
 573.333 1230.33 550.667 1226.83 530 1218.5 c 128
 509.333 1210.17 490 1198 472 1182 c 256
 454.667 1165.33 439.833 1146.67 427.5 1126 c 128
 415.167 1105.33 406 1084.33 400 1063 c 0
 386.667 1021.67 389.667 982.667 409 946 c 0
 417 930 431.833 917.833 453.5 909.5 c 128
 475.167 901.167 501.333 897 532 897 c 0
 573.333 897 614.667 911 656 939 c 0
 696 963.667 721 999.667 731 1047 c 0
1235 748 m 0
 1229 710.667 1212.17 675.5 1184.5 642.5 c 128
 1156.83 609.5 1120.33 584.667 1075 568 c 1
 1095.67 558.667 1119.17 552.167 1145.5 548.5 c 128
 1171.83 544.833 1198.67 544.333 1226 547 c 0
 1258.67 549 1291.83 554.167 1325.5 562.5 c 128
 1359.17 570.833 1390.5 585.833 1419.5 607.5 c 128
 1448.5 629.167 1474.5 659.833 1497.5 699.5 c 128
 1520.5 739.167 1539 791.333 1553 856 c 0
 1554.33 870 1559.67 882.333 1569 893 c 128
 1578.33 903.667 1591.33 910.333 1608 913 c 0
 1648 917.667 1664 900 1656 860 c 0
 1599.33 596.667 1450 459.667 1208 449 c 0
 1160 447 1113 451 1067 461 c 128
 1021 471 981.5 488 948.5 512 c 128
 915.5 536 891 566.667 875 604 c 128
 859 641.333 856.333 686.333 867 739 c 0
 878.333 792.333 907 835.333 953 868 c 0
 973 881.333 993.333 892.167 1014 900.5 c 128
 1034.67 908.833 1054.67 913.333 1074 914 c 0
 1100 915.333 1123.83 911.833 1145.5 903.5 c 128
 1167.17 895.167 1185 883.333 1199 868 c 128
 1213 852.667 1223.33 834.5 1230 813.5 c 128
 1236.67 792.5 1238.33 770.667 1235 748 c 0
1049 819 m 0
 1029 819 1011 812.167 995 798.5 c 128
 979 784.833 968 765 962 739 c 0
 958.667 720.333 957.5 704.167 958.5 690.5 c 128
 959.5 676.833 965 667.333 975 662 c 1
 973 662 l 1
 993 648.667 1008.33 642 1019 642 c 0
 1034.33 642 1049 645 1063 651 c 128
 1077 657 1090 664.333 1102 673 c 128
 1114 681.667 1123.5 692 1130.5 704 c 128
 1137.5 716 1141.67 727.333 1143 738 c 0
 1145 753.333 1144 766.167 1140 776.5 c 128
 1136 786.833 1129.33 795 1120 801 c 128
 1110.67 807 1099.67 811.5 1087 814.5 c 128
 1074.33 817.5 1061.67 819 1049 819 c 0
EndSplineSet
Fore
958 700 m 0xdf80
 958 649 1017 642 1019 642 c 0
 1066 642 1144 681 1144 752 c 0
 1144 806 1089 819 1049 819 c 0
 1005 819 958 784 958 700 c 0xdf80
1237 770 m 0
 1237 708 1191 611 1075 568 c 1
 1107 554 1147 545 1192 545 c 0
 1231 545 1266 549 1297 555 c 1
 1355 854 l 2
 1372 930 1427 1195 1434 1233 c 1
 1446 1264 1464 1274 1483 1274 c 0
 1507 1274 1536 1255 1536 1227 c 1
 1536 1227 1494 993 1491 980 c 2
 1462 818 l 2
 1452 761 1442 704 1431 649 c 2
 1423 611 l 1
 1543 703 1542 861 1569 893 c 0
 1582 908 1599 914 1620 914 c 0xdf80
 1645 914 1658 902 1658 878 c 1
 1658 878 1632 601 1398 492 c 1
 1391 457 1373 370 1364 318 c 2
 1330 176 l 2
 1319 133 1309 95 1298 64 c 1
 1292 29 1270 8 1233 0 c 1
 909 -4 l 2
 834 -4 756 -3 685 2 c 0
 660 2 642 1 623 1 c 0
 565 1 507 7 507 34 c 0
 507 39 585 381 614 506 c 2
 692 842 l 1
 669 825 621 796 499 796 c 0xef80
 328 796 296 927 296 1002 c 0
 296 1142 417 1323 614 1323 c 0
 796 1323 841 1218 841 1118 c 0
 841 1062 816 934 794 838 c 2
 628 111 l 1
 640 109 655 108 672 108 c 2
 937 108 l 2
 975 108 1014 108 1055 109 c 2
 1183 111 l 2
 1210 111 1209 108 1209 115 c 0
 1209 147 1251 340 1276 455 c 1
 1247 450 1217 448 1184 448 c 0
 988 448 861 541 861 679 c 0
 861 851 1007 914 1085 914 c 0
 1180 914 1237 846 1237 770 c 0
532 897 m 0xef80
 599 897 738 946 738 1100 c 0
 738 1186 675 1229 588 1229 c 0
 463 1229 392 1088 392 1014 c 0
 392 920 457 897 532 897 c 0xef80
EndSplineSet
EndChar
StartChar: uni0E2A
Encoding: 3626 3626 274
Width: 1538
VWidth: 3622
Flags: W
HStem: 0 104<497.914 688.744> 350 105<578.329 729.201> 755 103<780.469 979.839> 1258 100<820.922 1206.05>
VStem: 391 93<119.61 300.726> 744 96<158.709 310.376> 1394 110<767.192 1064.26>
Fore
1967 1830 m 0
 1967 1744 1747 1292 1454 1159 c 1
 1477 1114 1504 1027 1504 903 c 0
 1504 861 1508 810 1458 550 c 2
 1442 467 l 2
 1397 261 1335 18 1247 18 c 0
 1092 18 1179 522 1006 712 c 0
 981 741 948 755 909 755 c 0
 837 755 666 694 548 428 c 1
 591 448 636 455 665 455 c 0
 781 455 840 367 840 264 c 0
 840 128 705 0 571 0 c 0
 408 0 391 132 391 180 c 0
 391 395 609 858 925 858 c 0
 1118 858 1180 681 1210 540 c 0
 1242 397 1243 143 1265 143 c 1
 1330 443 1310 368 1344 518 c 2
 1373 662 l 2
 1387 732 1394 794 1394 849 c 0
 1394 1073 1281 1239 1045 1258 c 0
 738 1251 541 1071 439 764 c 0
 423 727 390 722 377 722 c 0
 347 722 332 733 332 755 c 0
 332 832 483 1358 1058 1358 c 0
 1165 1358 1305 1331 1396 1240 c 1
 1414 1248 1478 1273 1565 1360 c 2
 1646 1456 l 2
 1862 1723 1848 1868 1933 1868 c 0
 1956 1868 1967 1855 1967 1830 c 0
640 350 m 0
 573 350 484 301 484 198 c 0
 484 136 530 104 593 104 c 0
 673 104 744 193 744 246 c 0
 744 276 734 350 640 350 c 0
EndSplineSet
EndChar
StartChar: uni0E2B
Encoding: 3627 3627 275
Width: 1452
VWidth: 3622
Flags: W
HStem: 745 99<391.035 655.152> 1219 101<461.277 708.907> 1240 95<1173.16 1407.73>
VStem: 253 106<876.063 1117.31> 736 111<941.72 1190.69> 986 100<907.295 1148.54> 1209 107<258.446 660.899> 1434 106<968.495 1213.5>
Fore
619 1320 m 0xdf
 748 1320 847 1221 847 1083 c 0
 847 917 657 492 560 227 c 2
 516 108 l 1
 559 175 632 233 826 469 c 0
 839 485 1038 720 1102 791 c 1
 1025 831 986 888 986 995 c 0
 986 1160 1105 1335 1327 1335 c 0xbf
 1448 1335 1540 1255 1540 1135 c 0
 1540 1039 1469 811 1272 789 c 1
 1302 729 1316 659 1316 574 c 0
 1316 385 1246 171 1230 85 c 2
 1219 27 l 1
 1191 -3 1173 -14 1161 -14 c 0
 1131 -14 1118 27 1118 27 c 1
 1157 207 l 2
 1180 310 1209 459 1209 570 c 0
 1209 641 1197 691 1173 722 c 1
 1132 683 1087 634 1040 574 c 2
 794 267 l 2
 577 1 522 -4 469 -4 c 0
 403 -4 402 37 402 58 c 0
 402 64 402 71 403 78 c 1
 492 358 596 616 599 624 c 2
 615 662 l 2
 617 667 658 776 658 777 c 1
 626 759 593 745 464 745 c 0
 295 745 253 867 253 958 c 0
 253 1200 437 1320 619 1320 c 0xdf
359 978 m 0
 359 926 382 844 508 844 c 0
 580 844 630 860 658 891 c 0
 684 922 736 1006 736 1083 c 0
 736 1160 695 1219 611 1219 c 0xdf
 429 1219 359 1079 359 978 c 0
1300 1240 m 0xbf
 1158 1240 1086 1109 1086 1016 c 0
 1086 949 1122 884 1196 884 c 0
 1407 884 1434 1046 1434 1111 c 0
 1434 1170 1407 1240 1300 1240 c 0xbf
EndSplineSet
EndChar
StartChar: uni0E2C
Encoding: 3628 3628 276
Width: 1659
VWidth: 3622
Flags: W
HStem: 11 21G<560 626.5 1138 1285.5> 801 103<393.169 574.574> 1119 109<1287.93 1417.96> 1233 106<441.678 667.215> 1449 100<1331.6 1479.8>
VStem: 261 105<931.929 1156.17> 687 129<1009.92 1212.22> 1172 107<1254.5 1397.82> 1520 290<1311 1436>
Fore
1114 818 m 2
 1114 508 1185 129 1233 129 c 0
 1239 129 1290 224 1413 801 c 2
 1447 969 l 2
 1458 1021 1468 1080 1479 1146 c 1
 1459 1136 1422 1119 1365 1119 c 0
 1211 1119 1172 1216 1172 1294 c 0
 1172 1406 1273 1549 1434 1549 c 0
 1575 1549 1603 1480 1634 1387 c 1
 1726 1451 1718 1469 1751 1469 c 0
 1779 1469 1810 1451 1810 1421 c 0
 1810 1409 1802 1396 1786 1383 c 2
 1767 1356 1736 1324 1659 1274 c 2
 1615 1249 l 1
 1526 838 l 2
 1423 344 1346 11 1225 11 c 0
 1051 11 1014 527 1008 610 c 1
 854 259 669 11 584 11 c 0
 536 11 526 49 526 102 c 0
 526 145 533 210 554 315 c 2
 610 585 l 2
 615 611 619 634 624 654 c 2
 637 716 l 2
 645 747 659 825 669 872 c 1
 610 822 539 801 476 801 c 0
 336 801 261 901 261 1012 c 0
 261 1165 389 1339 582 1339 c 0
 772 1339 816 1256 816 1131 c 0
 816 1054 805 995 752 746 c 2
 690 440 l 2
 669 337 653 237 642 142 c 1
 764 313 933 676 964 760 c 2
 998 854 l 1
 1017 883 1039 897 1065 897 c 0
 1093 897 1109 887 1114 861 c 1
 1114 818 l 2
497 904 m 256
 590 904 687 994 687 1117 c 0
 687 1210 622 1233 564 1233 c 0
 451 1233 366 1138 366 1026 c 0
 366 942 434 904 497 904 c 256
1381 1228 m 0
 1401 1228 1520 1263 1520 1359 c 0
 1520 1421 1454 1449 1429 1449 c 0
 1349 1449 1279 1362 1279 1304 c 0
 1279 1274 1294 1228 1381 1228 c 0
EndSplineSet
Substitution2: "Single Substitution lookup 22 subtable" uni0E2C.alt1
Substitution2: "Single Substitution lookup 22 subtable" uni0E2C.alt1
EndChar
StartChar: uni0E2D
Encoding: 3629 3629 277
Width: 1282
VWidth: 3622
Flags: W
HStem: -7 106<508.298 969.188> 333 100<467.917 696.473> 729 104<498.421 716.505> 1236 110<723.806 1033.63>
VStem: 215 110<155.909 375.099> 741 108<476.07 678.22> 1174 115<496.635 1081.55>
Fore
741 596 m 0
 741 645 724 729 631 729 c 0
 555 729 431 673 431 567 c 0
 431 475 512 433 591 433 c 0
 714 433 741 542 741 596 c 0
315 807 m 1
 357 998 545 1346 890 1346 c 0
 1129 1346 1289 1228 1289 887 c 0
 1289 735 1246 436 1182 262 c 0
 1102 43 946 -7 794 -7 c 0
 533 -7 215 -24 215 217 c 0
 215 320 283 653 449 764 c 0
 516 808 574 833 658 833 c 0
 792 833 849 705 849 608 c 0
 849 519 791 333 559 333 c 0
 459 333 392 377 364 442 c 1
 343 377 325 293 325 256 c 0
 325 87 566 99 706 99 c 2
 812 99 l 2
 999 99 1079 222 1123 433 c 0
 1127 453 1174 674 1174 835 c 0
 1174 1129 1051 1236 867 1236 c 0
 699 1236 542 1051 448 870 c 1
 448 868 435 849 430 817 c 1
 387 781 375 778 360 778 c 0
 343 778 328 788 315 807 c 1
EndSplineSet
EndChar
StartChar: uni0E2E
Encoding: 3630 3630 278
Width: 1289
VWidth: 3622
Flags: W
HStem: -4 103<374.415 752.208 752.208 955.075> 336 97<459.078 686.123> 729 101<490.153 716.214> 867 104<531.054 887.17> 1268 108<603.146 974.109>
VStem: 206 105<157.899 385.763> 387 112<1004.63 1177.53> 735 99<523.359 710.052> 1163 103<590.81 1006.07>
Fore
499 1086 m 0
 499 1040 534 971 681 971 c 0
 806 971 980 1031 1081 1151 c 1
 1052 1182 937 1268 785 1268 c 0
 592 1268 499 1159 499 1086 c 0
621 729 m 0
 531 729 425 664 425 566 c 0
 425 460 520 433 582 433 c 0
 710 433 735 566 735 613 c 0
 735 665 712 729 621 729 c 0
674 867 m 0
 504 867 387 939 387 1048 c 0
 387 1180 540 1376 812 1376 c 0
 941 1376 1095 1303 1160 1236 c 1
 1204 1278 l 2
 1274 1346 1340 1443 1389 1557 c 1
 1390 1567 1403 1572 1412 1572 c 0
 1412 1572 1470 1569 1470 1539 c 0
 1470 1504 1425 1380 1314 1251 c 2
 1217 1150 l 1
 1250 1089 1266 1004 1266 895 c 0
 1266 628 1211 383 1166 267 c 0
 1076 32 890 -4 700 -4 c 2
 589 -4 l 2
 341 -4 206 39 206 211 c 0
 206 321 273 653 439 761 c 0
 472 783 554 830 631 830 c 0
 697 830 834 800 834 614 c 0
 834 469 711 336 545 336 c 0
 407 336 375 403 350 453 c 1
 323 378 311 287 311 263 c 0
 311 132 428 99 617 99 c 2
 706 99 l 2
 741 99 772 100 798 103 c 0
 993 103 1090 205 1146 627 c 0
 1158 715 1163 805 1163 850 c 0
 1163 935 1147 1010 1120 1068 c 1
 1003 950 852 867 674 867 c 0
EndSplineSet
EndChar
